STARTFONT 2.1
COMMENT
COMMENT Converted from OpenType font "Q:\font stuff\winfont\Rationale-Regular.ttf" by "otf2bdf 3.0".
COMMENT
FONT -FreeType-Rationale-Medium-R-Normal--189-1900-72-72-P-573-ISO10646-1
SIZE 190 72 72
FONTBOUNDINGBOX 151 220 -6 -48
STARTPROPERTIES 19
FOUNDRY "FreeType"
FAMILY_NAME "Rationale"
WEIGHT_NAME "Medium"
SLANT "R"
SETWIDTH_NAME "Normal"
ADD_STYLE_NAME ""
PIXEL_SIZE 189
POINT_SIZE 1900
RESOLUTION_X 72
RESOLUTION_Y 72
SPACING "P"
AVERAGE_WIDTH 573
CHARSET_REGISTRY "ISO10646"
CHARSET_ENCODING "1"
FONT_ASCENT 171
FONT_DESCENT 47
COPYRIGHT "Copyright (c) 2011, Cyreal (www.cyreal.org) with Reserved Font Name "Rationale"."
_OTF_FONTFILE "Q:\font stuff\winfont\Rationale-Regular.ttf"
_OTF_PSNAME "Rationale-Regular"
ENDPROPERTIES
CHARS 214
STARTCHAR 0020
ENCODING 32
SWIDTH 194 0
DWIDTH 37 0
BBX 0 0 0 0
BITMAP
ENDCHAR
STARTCHAR 0021
ENCODING 33
SWIDTH 226 0
DWIDTH 43 0
BBX 16 133 14 0
BITMAP
3FFE
FFFE
FFFE
FFFE
FFFE
FFFE
FFFE
FFFE
FFFE
FFFE
FFFE
FFFE
FFFE
FFFE
FFFE
FFFE
FFFE
FFFE
FFFE
FFFE
FFFE
FFFE
FFFE
FFFE
FFFE
FFFE
FFFE
FFFE
FFFE
FFFE
FFFE
FFFE
FFFE
FFFE
FFFE
FFFE
FFFE
FFFE
FFFE
FFFE
FFFE
FFFE
FFFE
FFFE
FFFE
FFFE
FFFE
FFFE
FFFE
FFFE
FFFE
FFFE
FFFE
FFFE
FFFE
FFFE
FFFE
FFFE
FFFE
FFFE
FFFE
FFFE
FFFE
FFFE
FFFE
FFFE
FFFE
FFFE
FFFE
FFFE
FFFE
FFFE
FFFE
FFFE
FFFE
FFFE
FFFE
FFFE
FFFE
FFFE
FFFE
FFFE
FFFE
FFFE
FFFE
FFFE
FFFE
FFFE
FFFE
FFFE
FFFE
FFFE
FFFE
FFFE
FFFE
FFFE
FFFE
FFFE
FFFE
FFFE
FFFE
FFFC
FFF8
0000
0000
0000
0000
0000
0000
0000
0000
0000
0000
0000
0000
0000
0000
0000
FFFC
FFFF
FFFF
FFFF
FFFF
FFFF
FFFF
FFFF
FFFF
FFFF
FFFF
FFFF
FFFF
FFFF
3FFF
ENDCHAR
STARTCHAR 0022
ENCODING 34
SWIDTH 321 0
DWIDTH 61 0
BBX 38 30 12 103
BITMAP
FFE0007FF0
FFF0007FF8
FFF0007FF8
FFF0007FF8
FFF0007FF8
FFF8007FFC
FFF8007FFC
FFF8007FFC
FFF8007FFC
FFF8007FFC
FFF8007FFC
FFF8007FFC
FFF8007FFC
FFF8007FFC
FFF8007FFC
FFF8007FFC
FFF8007FFC
FFF8007FFC
FFF8007FFC
FFF8007FFC
FFF8007FFC
FFF8007FFC
FFF8007FFC
FFF8007FFC
FFF8007FFC
FFF8007FFC
FFF8007FFC
FFF8007FFC
FFF8007FFC
7FF8003FFC
ENDCHAR
STARTCHAR 0023
ENCODING 35
SWIDTH 800 0
DWIDTH 152 0
BBX 128 133 14 0
BITMAP
3FFF0000000000FFF8000000FFFFFE00
FFFF0000000001FFF8000007FFFFFFC0
FFFF8000000003FFF800001FFFFFFFF0
FFFF8000000003FFF800003FFFFFFFF8
FFFF8000000003FFF800007FFFFFFFFC
FFFFC000000003FFF800007FFFFFFFFC
FFFFC000000003FFF80000FFFFFFFFFE
FFFFE000000003FFF80000FFFFFFFFFE
FFFFE000000003FFF80000FFFFFFFFFE
FFFFF000000003FFF80001FFFFFFFFFE
FFFFF000000003FFF80001FFFFFFFFFE
FFFFF000000003FFF80001FFFE00FFFF
FFFFF800000003FFF80001FFF8003FFF
FFFFF800000003FFF80001FFF0003FFF
FFFFFC00000003FFF80001FFF0001FFF
FFFFFC00000003FFF80001FFF0001FFF
FFFFFC00000003FFF80001FFF0001FFF
FFFFFE00000003FFF80001FFF0001FFF
FFFFFE00000003FFF80001FFE0001FFF
FFFFFF00000003FFF80001FFE0001FFF
FFFFFF00000003FFF80001FFE0001FFF
FFFFFF00000003FFF80001FFE0001FFF
FFFFFF80000003FFF80001FFE0001FFF
FFFFFF80000003FFF80001FFE0001FFF
FFFFFFC0000003FFF80001FFE0001FFF
FFFFFFC0000003FFF80001FFE0001FFF
FFFFFFE0000003FFF80001FFE0001FFF
FFFFFFE0000003FFF80001FFE0001FFF
FFFBFFE0000003FFF80001FFE0001FFF
FFFBFFF0000003FFF80001FFE0001FFF
FFFBFFF0000003FFF80001FFE0001FFF
FFF9FFF8000003FFF80001FFE0001FFF
FFFDFFF8000003FFF80001FFE0001FFF
FFFDFFF8000003FFF80001FFE0001FFF
FFFCFFFC000003FFF80001FFE0001FFF
FFFCFFFC000003FFF80001FFE0001FFF
FFFCFFFE000003FFF80001FFE0001FFF
FFFC7FFE000003FFF80001FFE0001FFF
FFFC7FFE000003FFF80001FFF0001FFF
FFFC3FFF000003FFF80001FFF0001FFF
FFFC3FFF000003FFF80001FFF0001FFF
FFFC3FFF800003FFF80001FFF0003FFF
FFFC1FFF800003FFF80001FFF8003FFF
FFFC1FFFC00003FFF80001FFFE00FFFF
FFFC1FFFC00003FFF80001FFFFFFFFFE
FFFE0FFFC00003FFF80001FFFFFFFFFE
FFFE0FFFE00003FFF80000FFFFFFFFFE
FFFE0FFFE00003FFF80000FFFFFFFFFE
FFFE07FFF00003FFF80000FFFFFFFFFE
FFFE07FFF00003FFF800007FFFFFFFFC
FFFE07FFF00003FFF800007FFFFFFFFC
FFFE03FFF80003FFF800003FFFFFFFF8
FFFE03FFF80003FFF800001FFFFFFFF0
FFFE01FFFC0003FFF8000007FFFFFFC0
FFFE01FFFC0003FFF8000000FFFFFE00
FFFE01FFFC0003FFF800000000000000
FFFE00FFFE0003FFF800000000000000
FFFE00FFFE0003FFF800000000000000
FFFE007FFF0003FFF800000000000000
FFFE007FFF0003FFF800000000000000
FFFE003FFF8003FFF800000000000000
FFFE003FFF8003FFF800000000000000
FFFE003FFF8003FFF800000000000000
FFFE001FFFC003FFF800000000000000
FFFE001FFFC003FFF800000000000000
FFFE000FFFE003FFF80001FFFFFFFFFC
FFFE000FFFE003FFF80001FFFFFFFFFE
FFFE000FFFE003FFF80001FFFFFFFFFE
FFFE0007FFF003FFF80001FFFFFFFFFF
FFFE0007FFF003FFF80001FFFFFFFFFF
FFFE0003FFF803FFF80001FFFFFFFFFF
FFFE0003FFF803FFF80001FFFFFFFFFF
FFFE0001FFF803FFF80001FFFFFFFFFF
FFFE0001FFFC03FFF80001FFFFFFFFFF
FFFE0001FFFC03FFF80000FFFFFFFFFF
FFFE0000FFFE03FFF800007FFFFFFFFF
FFFE0000FFFE03FFF800000000000000
FFFE00007FFE03FFF800000000000000
FFFE00007FFF03FFF800000000000000
FFFE00007FFF03FFF800000000000000
FFFE00003FFF83FFF800000000000000
FFFE00003FFF83FFF800000000000000
FFFE00001FFF83FFF800000000000000
FFFE00001FFFC3FFF800000000000000
FFFE00000FFFC3FFF800000000000000
FFFE00000FFFC1FFF800000000000000
FFFE00000FFFE1FFF800000000000000
FFFE000007FFE1FFF800000000000000
FFFE000007FFE1FFF800000000000000
FFFE000003FFF1FFF800000000000000
FFFE000003FFF1FFF800000000000000
FFFE000003FFF1FFF800000000000000
FFFE000001FFF9FFF800000000000000
FFFE000001FFF9FFF800000000000000
FFFE000000FFF9FFF800000000000000
FFFE000000FFFDFFF800000000000000
FFFE0000007FFDFFF800000000000000
FFFE0000007FFDFFF800000000000000
FFFE0000007FFCFFF800000000000000
FFFE0000003FFEFFF800000000000000
FFFE0000003FFEFFF800000000000000
FFFE0000001FFFFFF800000000000000
FFFE0000001FFFFFF800000000000000
FFFE0000001FFFFFF800000000000000
FFFE0000000FFFFFF800000000000000
FFFE0000000FFFFFF800000000000000
FFFE00000007FFFFF800000000000000
FFFE00000007FFFFF800000000000000
FFFE00000003FFFFF800000000000000
FFFE00000003FFFFF800000000000000
FFFE00000003FFFFF800000000000000
FFFE00000001FFFFF800000000000000
FFFE00000001FFFFF800000000000000
FFFE00000000FFFFF800000000000000
FFFE00000000FFFFF800000000000000
FFFE00000000FFFFF800000000000000
FFFE000000007FFFF800000000000000
FFFE000000007FFFF800000000000000
FFFE000000003FFFF800000000000000
FFFE000000003FFFF800000000000000
FFFE000000001FFFF800000000000000
FFFE000000001FFFF800000000000000
FFFE000000001FFFF800000000000000
FFFE000000000FFFF800000000000000
FFFE000000000FFFF800000000000000
FFFE0000000007FFF800000000000000
FFFE0000000007FFF800000000000000
FFFE0000000007FFF800000000000000
FFFE0000000003FFF800000000000000
FFFE0000000003FFF800000000000000
FFFE0000000001FFF800000000000000
FFFC0000000001FFF800000000000000
FFF80000000000FFE000000000000000
ENDCHAR
STARTCHAR 0024
ENCODING 36
SWIDTH 436 0
DWIDTH 83 0
BBX 58 133 12 0
BITMAP
0000007FF0000000
000000FFF0000000
000000FFF0000000
000000FFF0000000
000000FFF0000000
000000FFF0000000
000000FFF0000000
000000FFF0000000
000000FFF0000000
000000FFF0000000
000000FFF0000000
000000FFF0000000
000000FFF0000000
000000FFF0000000
000000FFF0000000
000000FFF0000000
000000FFF0000000
000FFFFFFFFFE000
00FFFFFFFFFFFC00
03FFFFFFFFFFFE00
07FFFFFFFFFFFE00
0FFFFFFFFFFFFF00
1FFFFFFFFFFFFF00
3FFFFFFFFFFFFF00
3FFFFFFFFFFFFF80
3FFFFFFFFFFFFF80
7FFFFFFFFFFFFF80
7FFFFFFFFFFFFF80
7FFFF00000000000
7FFFC00000000000
FFFF800000000000
FFFF000000000000
FFFF000000000000
FFFF000000000000
FFFF000000000000
FFFF000000000000
FFFE000000000000
FFFE000000000000
FFFE000000000000
FFFE000000000000
FFFE000000000000
FFFE000000000000
FFFE000000000000
FFFE000000000000
FFFE000000000000
FFFE000000000000
FFFE000000000000
FFFE000000000000
FFFE000000000000
FFFE000000000000
FFFE000000000000
FFFF000000000000
FFFF000000000000
FFFF000000000000
FFFF000000000000
FFFF000000000000
FFFF800000000000
7FFFC00000000000
7FFFF00000000000
7FFFFFFFFFFC0000
7FFFFFFFFFFFC000
3FFFFFFFFFFFF000
3FFFFFFFFFFFFC00
3FFFFFFFFFFFFE00
1FFFFFFFFFFFFF00
0FFFFFFFFFFFFF00
07FFFFFFFFFFFF80
03FFFFFFFFFFFF80
00FFFFFFFFFFFF80
000FFFFFFFFFFFC0
0000000003FFFFC0
00000000007FFFC0
00000000003FFFC0
00000000003FFFC0
00000000001FFFC0
00000000001FFFC0
00000000001FFFC0
00000000001FFFC0
00000000001FFFC0
00000000001FFFC0
00000000001FFFC0
00000000001FFFC0
00000000001FFFC0
00000000001FFFC0
00000000001FFFC0
00000000001FFFC0
00000000001FFFC0
00000000001FFFC0
00000000001FFFC0
00000000001FFFC0
00000000001FFFC0
00000000001FFFC0
00000000001FFFC0
00000000001FFFC0
00000000001FFFC0
00000000001FFFC0
00000000001FFFC0
00000000001FFFC0
00000000001FFFC0
00000000001FFFC0
00000000001FFFC0
00000000001FFFC0
00000000001FFFC0
00000000003FFFC0
00000000003FFFC0
00000000007FFFC0
0000000001FFFFC0
FFFFFFFFFFFFFFC0
FFFFFFFFFFFFFF80
FFFFFFFFFFFFFF80
7FFFFFFFFFFFFF80
7FFFFFFFFFFFFF00
7FFFFFFFFFFFFF00
7FFFFFFFFFFFFE00
3FFFFFFFFFFFFC00
1FFFFFFFFFFFF000
0FFFFFFFFFFFC000
03FFFFFFFFFE0000
000000FFF8000000
000000FFF8000000
000000FFF8000000
000000FFF8000000
000000FFF8000000
000000FFF8000000
000000FFF8000000
000000FFF8000000
000000FFF8000000
000000FFF8000000
000000FFF8000000
000000FFF8000000
000000FFF0000000
000000FFF0000000
000000FFE0000000
ENDCHAR
STARTCHAR 0025
ENCODING 37
SWIDTH 631 0
DWIDTH 120 0
BBX 100 133 10 0
BITMAP
007FFFFE00000000001FFF0000
07FFFFFFE0000000007FFE0000
0FFFFFFFF800000000FFFE0000
1FFFFFFFFC00000001FFFC0000
3FFFFFFFFC00000001FFFC0000
7FFFFFFFFE00000003FFF80000
7FFFFFFFFE00000003FFF80000
7FFFFFFFFF00000007FFF00000
FFFFFFFFFF00000007FFF00000
FFFFFFFFFF0000000FFFE00000
FFFFFFFFFF0000000FFFE00000
FFFF00FFFF0000001FFFC00000
FFFC001FFF0000001FFFC00000
FFF8001FFF0000003FFF800000
FFF8000FFF8000003FFF800000
FFF8000FFF8000007FFF800000
FFF0000FFF8000007FFF000000
FFF0000FFF800000FFFF000000
FFF0000FFF800000FFFE000000
FFF0000FFF800001FFFE000000
FFF0000FFF800001FFFC000000
FFF0000FFF800003FFFC000000
FFF0000FFF800003FFF8000000
FFF0000FFF800007FFF8000000
FFF0000FFF800007FFF0000000
FFF0000FFF80000FFFF0000000
FFF0000FFF80000FFFE0000000
FFF0000FFF80001FFFE0000000
FFF0000FFF80001FFFC0000000
FFF0000FFF80003FFFC0000000
FFF0000FFF80003FFF80000000
FFF0000FFF80003FFF80000000
FFF0000FFF80007FFF00000000
FFF0000FFF80007FFF00000000
FFF0000FFF8000FFFE00000000
FFF0000FFF8000FFFE00000000
FFF0000FFF8001FFFC00000000
FFF0000FFF8001FFFC00000000
FFF0000FFF8003FFF800000000
FFF8000FFF8003FFF800000000
FFF8000FFF8007FFF000000000
FFF8001FFF0007FFF000000000
FFFC001FFF000FFFE000000000
FFFF007FFF000FFFE000000000
FFFFFFFFFF001FFFC000000000
FFFFFFFFFF001FFFC000000000
FFFFFFFFFF003FFF8000000000
7FFFFFFFFF003FFF8000000000
7FFFFFFFFE007FFF0000000000
7FFFFFFFFE007FFF0000000000
3FFFFFFFFC00FFFE0000000000
1FFFFFFFFC00FFFE0000000000
0FFFFFFFF801FFFC0000000000
07FFFFFFE001FFFC0000000000
007FFFFF0003FFF80000000000
000000000003FFF80000000000
000000000007FFF80000000000
000000000007FFF00000000000
00000000000FFFF00000000000
00000000000FFFE00000000000
00000000001FFFE00000000000
00000000001FFFC00000000000
00000000003FFFC00000000000
00000000003FFF800000000000
00000000007FFF800000000000
00000000007FFF000000000000
0000000000FFFF000000000000
0000000000FFFE000000000000
0000000001FFFE000000000000
0000000001FFFC000000000000
0000000001FFFC000000000000
0000000003FFF8000000000000
0000000003FFF8000000000000
0000000007FFF0000000000000
0000000007FFF0000000000000
000000000FFFE0000000000000
000000000FFFE0000000000000
000000001FFFC0000000000000
000000001FFFC00007FFFFE000
000000003FFF80007FFFFFFE00
000000003FFF8001FFFFFFFF00
000000007FFF0003FFFFFFFF80
000000007FFF0003FFFFFFFFC0
00000000FFFE0007FFFFFFFFE0
00000000FFFE0007FFFFFFFFE0
00000001FFFC000FFFFFFFFFE0
00000001FFFC000FFFFFFFFFF0
00000003FFF8000FFFFFFFFFF0
00000003FFF8000FFFFFFFFFF0
00000007FFF0000FFFE00FFFF0
00000007FFF0000FFF8003FFF0
0000000FFFE0000FFF8001FFF0
0000000FFFE0000FFF0001FFF0
0000001FFFC0000FFF0000FFF0
0000001FFFC0000FFF0000FFF0
0000003FFFC0000FFF0000FFF0
0000003FFF80000FFF0000FFF0
0000007FFF80000FFF0000FFF0
0000007FFF00000FFF0000FFF0
000000FFFF00000FFF0000FFF0
000000FFFE00000FFF0000FFF0
000001FFFE00000FFF0000FFF0
000001FFFC00000FFF0000FFF0
000003FFFC00000FFF0000FFF0
000003FFF800000FFF0000FFF0
000007FFF800000FFF0000FFF0
000007FFF000000FFF0000FFF0
00000FFFF000000FFF0000FFF0
00000FFFE000000FFF0000FFF0
00001FFFE000000FFF0000FFF0
00001FFFC000000FFF0000FFF0
00001FFFC000000FFF0000FFF0
00003FFF8000000FFF0000FFF0
00003FFF8000000FFF0000FFF0
00007FFF0000000FFF0000FFF0
00007FFF0000000FFF0000FFF0
0000FFFE0000000FFF0000FFF0
0000FFFE0000000FFF0000FFF0
0001FFFC0000000FFF0001FFF0
0001FFFC0000000FFF8001FFF0
0003FFF80000000FFFC003FFF0
0003FFF80000000FFFF00FFFF0
0007FFF00000000FFFFFFFFFF0
0007FFF00000000FFFFFFFFFF0
000FFFE00000000FFFFFFFFFF0
000FFFE00000000FFFFFFFFFE0
001FFFC000000007FFFFFFFFE0
001FFFC000000007FFFFFFFFE0
003FFF8000000003FFFFFFFFC0
003FFF8000000003FFFFFFFF80
007FFF0000000001FFFFFFFF00
007FFE00000000007FFFFFFE00
00FFFC000000000007FFFFE000
ENDCHAR
STARTCHAR 0026
ENCODING 38
SWIDTH 452 0
DWIDTH 86 0
BBX 67 133 13 0
BITMAP
000FFFFFFFFC000000
00FFFFFFFFFF000000
03FFFFFFFFFF800000
0FFFFFFFFFFFC00000
1FFFFFFFFFFFC00000
3FFFFFFFFFFFC00000
3FFFFFFFFFFFE00000
7FFFFFFFFFFFE00000
7FFFFFFFFFFFE00000
7FFFFFFFFFFFE00000
FFFFFFFFFFFFE00000
FFFFE0000000000000
FFFF80000000000000
FFFF00000000000000
FFFF00000000000000
FFFE00000000000000
FFFE00000000000000
FFFE00000000000000
FFFE00000000000000
FFFE00000000000000
FFFE00000000000000
FFFE00000000000000
FFFE00000000000000
FFFE00000000000000
FFFE00000000000000
FFFE00000000000000
FFFE00000000000000
FFFE00000000000000
FFFE00000000000000
FFFE00000000000000
FFFE00000000000000
FFFE00000000000000
FFFE00000000000000
FFFE00000000000000
FFFE00000000000000
FFFE00000000000000
FFFE00000000000000
FFFE00000000000000
FFFE00000000000000
FFFE00000000000000
FFFE00000000000000
FFFE00000000000000
FFFE00000000000000
FFFE00000000000000
FFFE00000000000000
FFFE00000000000000
FFFE00000000000000
FFFE00000000000000
FFFE0000001FFE0000
FFFE0000003FFE0000
FFFE0000007FFE0000
FFFE0000007FFE0000
FFFE0000007FFE0000
FFFE0000007FFE0000
7FFE0000007FFE0000
7FFF0000007FFE0000
7FFF0000007FFE0000
3FFF8000007FFE0000
3FFFE000007FFE0000
1FFFFFFFFFFFFFFF80
0FFFFFFFFFFFFFFFE0
07FFFFFFFFFFFFFFE0
01FFFFFFFFFFFFFFE0
003FFFFFFFFFFFFFE0
00FFFFFFFFFFFFFFE0
03FFFFFFFFFFFFFFE0
0FFFFFFFFFFFFFFFE0
1FFFFFFFFFFFFFFFE0
1FFFFFFFFFFFFFFFE0
3FFFFFFFFFFFFFFFE0
7FFFE000007FFE0000
7FFF8000007FFE0000
7FFF0000007FFE0000
FFFF0000007FFE0000
FFFE0000007FFE0000
FFFE0000007FFE0000
FFFE0000007FFE0000
FFFE0000007FFE0000
FFFE0000007FFE0000
FFFE0000007FFE0000
FFFE0000007FFE0000
FFFE0000007FFE0000
FFFE0000007FFE0000
FFFE0000007FFE0000
FFFE0000007FFE0000
FFFE0000007FFE0000
FFFE0000007FFE0000
FFFE0000007FFE0000
FFFE0000007FFE0000
FFFE0000007FFE0000
FFFE0000007FFE0000
FFFE0000007FFE0000
FFFE0000007FFE0000
FFFE0000007FFE0000
FFFE0000007FFE0000
FFFE0000007FFE0000
FFFE0000007FFE0000
FFFE0000007FFE0000
FFFE0000007FFE0000
FFFE0000007FFE0000
FFFE0000007FFE0000
FFFE0000007FFE0000
FFFE0000007FFE0000
FFFE0000007FFE0000
FFFE0000007FFE0000
FFFE0000007FFE0000
FFFE0000007FFE0000
FFFE0000007FFE0000
FFFE0000007FFE0000
FFFE0000007FFE0000
FFFE0000007FFE0000
FFFE0000007FFE0000
FFFE0000007FFE0000
FFFE0000007FFE0000
FFFE0000007FFE0000
FFFE0000007FFE0000
FFFE0000007FFE0000
FFFE0000007FFE0000
FFFF0000007FFE0000
FFFF0000007FFE0000
FFFF8000007FFE0000
FFFFE000007FFE0000
FFFFFFFFC07FFE0000
7FFFFFFFC07FFE0000
7FFFFFFFC07FFE0000
7FFFFFFFC07FFE0000
3FFFFFFFC07FFE0000
3FFFFFFFC07FFE0000
1FFFFFFFC07FFE0000
0FFFFFFF807FFE0000
03FFFFFF807FFE0000
00FFFFFF807FFE0000
001FFFFF007FF80000
ENDCHAR
STARTCHAR 0027
ENCODING 39
SWIDTH 189 0
DWIDTH 36 0
BBX 13 30 12 103
BITMAP
FFE0
FFF0
FFF0
FFF0
FFF0
FFF8
FFF8
FFF8
FFF8
FFF8
FFF8
FFF8
FFF8
FFF8
FFF8
FFF8
FFF8
FFF8
FFF8
FFF8
FFF8
FFF8
FFF8
FFF8
FFF8
FFF8
FFF8
FFF8
FFF8
7FF8
ENDCHAR
STARTCHAR 0028
ENCODING 40
SWIDTH 278 0
DWIDTH 53 0
BBX 33 169 13 -25
BITMAP
000FFFFE00
00FFFFFF00
03FFFFFF80
07FFFFFF80
0FFFFFFF80
1FFFFFFF80
1FFFFFFF80
3FFFFFFF80
3FFFFFFF80
7FFFFFFF80
7FFFFFFF80
7FFFF00000
7FFF800000
7FFF000000
7FFF000000
7FFF000000
FFFE000000
FFFE000000
FFFE000000
FFFE000000
FFFE000000
FFFE000000
FFFE000000
FFFE000000
FFFE000000
FFFE000000
FFFE000000
FFFE000000
FFFE000000
FFFE000000
FFFE000000
FFFE000000
FFFE000000
FFFE000000
FFFE000000
FFFE000000
FFFE000000
FFFE000000
FFFE000000
FFFE000000
FFFE000000
FFFE000000
FFFE000000
FFFE000000
FFFE000000
FFFE000000
FFFE000000
FFFE000000
FFFE000000
FFFE000000
FFFE000000
FFFE000000
FFFE000000
FFFE000000
FFFE000000
FFFE000000
FFFE000000
FFFE000000
FFFE000000
FFFE000000
FFFE000000
FFFE000000
FFFE000000
FFFE000000
FFFE000000
FFFE000000
FFFE000000
FFFE000000
FFFE000000
FFFE000000
FFFE000000
FFFE000000
FFFE000000
FFFE000000
FFFE000000
FFFE000000
FFFE000000
FFFE000000
FFFE000000
FFFE000000
FFFE000000
FFFE000000
FFFE000000
FFFE000000
FFFE000000
FFFE000000
FFFE000000
FFFE000000
FFFE000000
FFFE000000
FFFE000000
FFFE000000
FFFE000000
FFFE000000
FFFE000000
FFFE000000
FFFE000000
FFFE000000
FFFE000000
FFFE000000
FFFE000000
FFFE000000
FFFE000000
FFFE000000
FFFE000000
FFFE000000
FFFE000000
FFFE000000
FFFE000000
FFFE000000
FFFE000000
FFFE000000
FFFE000000
FFFE000000
FFFE000000
FFFE000000
FFFE000000
FFFE000000
FFFE000000
FFFE000000
FFFE000000
FFFE000000
FFFE000000
FFFE000000
FFFE000000
FFFE000000
FFFE000000
FFFE000000
FFFE000000
FFFE000000
FFFE000000
FFFE000000
FFFE000000
FFFE000000
FFFE000000
FFFE000000
FFFE000000
FFFE000000
FFFE000000
FFFE000000
FFFE000000
FFFE000000
FFFE000000
FFFE000000
FFFE000000
FFFE000000
FFFE000000
FFFE000000
FFFE000000
FFFE000000
FFFE000000
FFFE000000
FFFE000000
7FFF000000
7FFF000000
7FFF000000
7FFF800000
7FFFF00000
7FFFFFFF80
7FFFFFFF80
3FFFFFFF80
3FFFFFFF80
1FFFFFFF80
1FFFFFFF80
0FFFFFFF80
07FFFFFF80
03FFFFFF80
00FFFFFF00
000FFFFE00
ENDCHAR
STARTCHAR 0029
ENCODING 41
SWIDTH 278 0
DWIDTH 53 0
BBX 32 169 8 -25
BITMAP
7FFFF800
FFFFFF00
FFFFFFC0
FFFFFFF0
FFFFFFF8
FFFFFFF8
FFFFFFFC
FFFFFFFC
FFFFFFFE
FFFFFFFE
FFFFFFFE
0007FFFE
0001FFFF
0000FFFF
0000FFFF
00007FFF
00007FFF
00007FFF
00007FFF
00007FFF
00007FFF
00007FFF
00007FFF
00007FFF
00007FFF
00007FFF
00007FFF
00007FFF
00007FFF
00007FFF
00007FFF
00007FFF
00007FFF
00007FFF
00007FFF
00007FFF
00007FFF
00007FFF
00007FFF
00007FFF
00007FFF
00007FFF
00007FFF
00007FFF
00007FFF
00007FFF
00007FFF
00007FFF
00007FFF
00007FFF
00007FFF
00007FFF
00007FFF
00007FFF
00007FFF
00007FFF
00007FFF
00007FFF
00007FFF
00007FFF
00007FFF
00007FFF
00007FFF
00007FFF
00007FFF
00007FFF
00007FFF
00007FFF
00007FFF
00007FFF
00007FFF
00007FFF
00007FFF
00007FFF
00007FFF
00007FFF
00007FFF
00007FFF
00007FFF
00007FFF
00007FFF
00007FFF
00007FFF
00007FFF
00007FFF
00007FFF
00007FFF
00007FFF
00007FFF
00007FFF
00007FFF
00007FFF
00007FFF
00007FFF
00007FFF
00007FFF
00007FFF
00007FFF
00007FFF
00007FFF
00007FFF
00007FFF
00007FFF
00007FFF
00007FFF
00007FFF
00007FFF
00007FFF
00007FFF
00007FFF
00007FFF
00007FFF
00007FFF
00007FFF
00007FFF
00007FFF
00007FFF
00007FFF
00007FFF
00007FFF
00007FFF
00007FFF
00007FFF
00007FFF
00007FFF
00007FFF
00007FFF
00007FFF
00007FFF
00007FFF
00007FFF
00007FFF
00007FFF
00007FFF
00007FFF
00007FFF
00007FFF
00007FFF
00007FFF
00007FFF
00007FFF
00007FFF
00007FFF
00007FFF
00007FFF
00007FFF
00007FFF
00007FFF
00007FFF
00007FFF
00007FFF
00007FFF
00007FFF
00007FFF
0000FFFF
0000FFFF
0001FFFF
0007FFFE
FFFFFFFE
FFFFFFFE
FFFFFFFE
FFFFFFFC
FFFFFFFC
FFFFFFF8
FFFFFFF8
FFFFFFF0
FFFFFFC0
FFFFFF00
7FFFF800
ENDCHAR
STARTCHAR 002A
ENCODING 42
SWIDTH 442 0
DWIDTH 84 0
BBX 64 68 10 69
BITMAP
0000000FF8000000
0000001FF8000000
0000001FF8000000
0000003FF8000000
0000003FF8000000
0000003FF8000000
0000003FF8000000
0000003FF8000000
0000003FF8000000
0000003FF8000000
0000003FF8000000
0000003FF8000000
0000003FF8000000
0E00003FF8000000
0F80003FF80001E0
1FE0003FF80007F0
1FF0003FF8001FF8
3FFC003FF8003FFC
7FFF003FF800FFFC
7FFF803FF803FFFE
7FFFE03FF80FFFFE
7FFFF83FF81FFFFF
3FFFFE3FF87FFFFE
1FFFFF3FF9FFFFF8
0FFFFFFFFBFFFFE0
03FFFFFFFFFFFFC0
00FFFFFFFFFFFF00
007FFFFFFFFFFC00
001FFFFFFFFFF800
0007FFFFFFFFE000
0001FFFFFFFF8000
0000FFFFFFFE0000
00003FFFFFFC0000
00000FFFFFF00000
00000FFFFFF00000
00003FFFFFF80000
00007FFFFFFE0000
0001FFFFFFFF8000
0007FFFFFFFFE000
001FFFFFFFFFF000
007FFFFFFFFFFC00
00FFFFFFFFFFFF00
03FFFFFFFFFFFFC0
0FFFFFFFFFFFFFE0
3FFFFFBFF9FFFFF8
7FFFFE3FF87FFFFC
FFFFF83FF81FFFFE
FFFFE03FF80FFFFE
7FFFC03FF803FFFC
7FFF003FF800FFFC
3FFC003FF8003FFC
1FF0003FF8001FF8
1FE0003FF80007F0
0F80003FF80001F0
0000003FF8000060
0000003FF8000020
0000003FF8000000
0000003FF8000000
0000003FF8000000
0000003FF8000000
0000003FF8000000
0000003FF8000000
0000003FF8000000
0000003FF8000000
0000003FF8000000
0000003FF8000000
0000003FF8000000
0000003FE0000000
ENDCHAR
STARTCHAR 002B
ENCODING 43
SWIDTH 436 0
DWIDTH 83 0
BBX 57 57 13 40
BITMAP
0000007FC0000000
000000FFC0000000
000001FFC0000000
000001FFC0000000
000001FFC0000000
000001FFC0000000
000001FFC0000000
000001FFC0000000
000001FFC0000000
000001FFC0000000
000001FFC0000000
000001FFC0000000
000001FFC0000000
000001FFC0000000
000001FFC0000000
000001FFC0000000
000001FFC0000000
000001FFC0000000
000001FFC0000000
000001FFC0000000
000001FFC0000000
000001FFC0000000
000001FFC0000000
FFFFFFFFFFFFFE00
FFFFFFFFFFFFFF00
FFFFFFFFFFFFFF80
FFFFFFFFFFFFFF80
FFFFFFFFFFFFFF80
FFFFFFFFFFFFFF80
FFFFFFFFFFFFFF80
FFFFFFFFFFFFFF80
FFFFFFFFFFFFFF80
7FFFFFFFFFFFFF80
3FFFFFFFFFFFFF80
000001FFC0000000
000001FFC0000000
000001FFC0000000
000001FFC0000000
000001FFC0000000
000001FFC0000000
000001FFC0000000
000001FFC0000000
000001FFC0000000
000001FFC0000000
000001FFC0000000
000001FFC0000000
000001FFC0000000
000001FFC0000000
000001FFC0000000
000001FFC0000000
000001FFC0000000
000001FFC0000000
000001FFC0000000
000001FFC0000000
000001FFC0000000
000001FF80000000
000001FF00000000
ENDCHAR
STARTCHAR 002C
ENCODING 44
SWIDTH 215 0
DWIDTH 41 0
BBX 17 41 12 -26
BITMAP
FFFE00
FFFF00
FFFF80
FFFF80
FFFF80
FFFF80
FFFF80
FFFF80
FFFF80
FFFF80
FFFF80
FFFF80
7FFF80
7FFF80
3FFF80
03FF80
03FF80
03FF80
03FF80
03FF80
03FF80
03FF80
03FF80
03FF80
03FF80
03FF80
03FF80
03FF00
03FF00
03FF00
03FF00
03FE00
03FE00
03FC00
03FC00
03F800
03F800
03F000
03E000
03C000
030000
ENDCHAR
STARTCHAR 002D
ENCODING 45
SWIDTH 431 0
DWIDTH 82 0
BBX 57 11 13 63
BITMAP
FFFFFFFFFFFFFE00
FFFFFFFFFFFFFF00
FFFFFFFFFFFFFF00
FFFFFFFFFFFFFF00
FFFFFFFFFFFFFF80
FFFFFFFFFFFFFF80
FFFFFFFFFFFFFF80
FFFFFFFFFFFFFF80
FFFFFFFFFFFFFF80
FFFFFFFFFFFFFF80
7FFFFFFFFFFFFF80
ENDCHAR
STARTCHAR 002E
ENCODING 46
SWIDTH 215 0
DWIDTH 41 0
BBX 17 15 12 0
BITMAP
FFFE00
FFFF00
FFFF80
FFFF80
FFFF80
FFFF80
FFFF80
FFFF80
FFFF80
FFFF80
FFFF80
FFFF80
7FFF80
7FFF80
3FFF80
ENDCHAR
STARTCHAR 002F
ENCODING 47
SWIDTH 389 0
DWIDTH 74 0
BBX 59 167 8 -23
BITMAP
000000000003FFE0
000000000007FFC0
00000000000FFFC0
00000000001FFFC0
00000000001FFF80
00000000001FFF80
00000000001FFF80
00000000003FFF80
00000000003FFF00
00000000003FFF00
00000000007FFF00
00000000007FFF00
00000000007FFE00
00000000007FFE00
0000000000FFFE00
0000000000FFFE00
0000000000FFFC00
0000000000FFFC00
0000000001FFFC00
0000000001FFFC00
0000000001FFF800
0000000001FFF800
0000000003FFF800
0000000003FFF000
0000000003FFF000
0000000007FFF000
0000000007FFF000
0000000007FFE000
0000000007FFE000
000000000FFFE000
000000000FFFE000
000000000FFFC000
000000000FFFC000
000000001FFFC000
000000001FFFC000
000000001FFF8000
000000001FFF8000
000000003FFF8000
000000003FFF0000
000000003FFF0000
000000007FFF0000
000000007FFF0000
000000007FFE0000
000000007FFE0000
00000000FFFE0000
00000000FFFE0000
00000000FFFC0000
00000000FFFC0000
00000001FFFC0000
00000001FFFC0000
00000001FFF80000
00000001FFF80000
00000003FFF80000
00000003FFF00000
00000003FFF00000
00000007FFF00000
00000007FFF00000
00000007FFE00000
00000007FFE00000
0000000FFFE00000
0000000FFFE00000
0000000FFFC00000
0000000FFFC00000
0000001FFFC00000
0000001FFFC00000
0000001FFF800000
0000001FFF800000
0000003FFF800000
0000003FFF000000
0000003FFF000000
0000007FFF000000
0000007FFF000000
0000007FFE000000
0000007FFE000000
000000FFFE000000
000000FFFE000000
000000FFFC000000
000000FFFC000000
000001FFFC000000
000001FFFC000000
000001FFF8000000
000001FFF8000000
000003FFF8000000
000003FFF0000000
000003FFF0000000
000003FFF0000000
000007FFF0000000
000007FFE0000000
000007FFE0000000
00000FFFE0000000
00000FFFE0000000
00000FFFC0000000
00000FFFC0000000
00001FFFC0000000
00001FFFC0000000
00001FFF80000000
00001FFF80000000
00003FFF80000000
00003FFF00000000
00003FFF00000000
00003FFF00000000
00007FFF00000000
00007FFE00000000
00007FFE00000000
0000FFFE00000000
0000FFFE00000000
0000FFFC00000000
0000FFFC00000000
0001FFFC00000000
0001FFFC00000000
0001FFF800000000
0001FFF800000000
0003FFF800000000
0003FFF000000000
0003FFF000000000
0003FFF000000000
0007FFF000000000
0007FFE000000000
0007FFE000000000
000FFFE000000000
000FFFE000000000
000FFFC000000000
000FFFC000000000
001FFFC000000000
001FFFC000000000
001FFF8000000000
001FFF8000000000
003FFF8000000000
003FFF0000000000
003FFF0000000000
003FFF0000000000
007FFF0000000000
007FFE0000000000
007FFE0000000000
00FFFE0000000000
00FFFE0000000000
00FFFC0000000000
00FFFC0000000000
01FFFC0000000000
01FFFC0000000000
01FFF80000000000
01FFF80000000000
03FFF80000000000
03FFF00000000000
03FFF00000000000
03FFF00000000000
07FFF00000000000
07FFE00000000000
07FFE00000000000
0FFFE00000000000
0FFFE00000000000
0FFFC00000000000
0FFFC00000000000
1FFFC00000000000
1FFFC00000000000
1FFF800000000000
1FFF800000000000
3FFF800000000000
3FFF000000000000
3FFF000000000000
3FFF000000000000
7FFF000000000000
7FFE000000000000
7FFE000000000000
FFFE000000000000
FFFC000000000000
FFF0000000000000
ENDCHAR
STARTCHAR 0030
ENCODING 48
SWIDTH 436 0
DWIDTH 83 0
BBX 57 133 13 0
BITMAP
000FFFFFFFF80000
007FFFFFFFFF8000
03FFFFFFFFFFE000
07FFFFFFFFFFF000
0FFFFFFFFFFFF800
1FFFFFFFFFFFFC00
1FFFFFFFFFFFFE00
3FFFFFFFFFFFFE00
3FFFFFFFFFFFFF00
7FFFFFFFFFFFFF00
7FFFFFFFFFFFFF00
7FFFE00003FFFF80
7FFF800000FFFF80
7FFF0000007FFF80
FFFF0000003FFF80
FFFE0000003FFF80
FFFE0000003FFF80
FFFE0000001FFF80
FFFE0000001FFF80
FFFE0000001FFF80
FFFE0000001FFF80
FFFE0000001FFF80
FFFE0000001FFF80
FFFE0000001FFF80
FFFE0000001FFF80
FFFE0000001FFF80
FFFE0000001FFF80
FFFE0000001FFF80
FFFE0000001FFF80
FFFE0000001FFF80
FFFE0000001FFF80
FFFE0000001FFF80
FFFE0000001FFF80
FFFE0000001FFF80
FFFE0000001FFF80
FFFE0000001FFF80
FFFE0000001FFF80
FFFE0000001FFF80
FFFE0000001FFF80
FFFE0000001FFF80
FFFE0000001FFF80
FFFE0000001FFF80
FFFE0000001FFF80
FFFE0000001FFF80
FFFE0000001FFF80
FFFE0000001FFF80
FFFE0000001FFF80
FFFE0000001FFF80
FFFE0000001FFF80
FFFE0000001FFF80
FFFE0000001FFF80
FFFE0000001FFF80
FFFE0000001FFF80
FFFE0000001FFF80
FFFE0000001FFF80
FFFE0000001FFF80
FFFE0000001FFF80
FFFE0000001FFF80
FFFE0000001FFF80
FFFE0000001FFF80
FFFE0000001FFF80
FFFE0000001FFF80
FFFE0000001FFF80
FFFE0000001FFF80
FFFE0000001FFF80
FFFE0000001FFF80
FFFE0000001FFF80
FFFE0000001FFF80
FFFE0000001FFF80
FFFE0000001FFF80
FFFE0000001FFF80
FFFE0000001FFF80
FFFE0000001FFF80
FFFE0000001FFF80
FFFE0000001FFF80
FFFE0000001FFF80
FFFE0000001FFF80
FFFE0000001FFF80
FFFE0000001FFF80
FFFE0000001FFF80
FFFE0000001FFF80
FFFE0000001FFF80
FFFE0000001FFF80
FFFE0000001FFF80
FFFE0000001FFF80
FFFE0000001FFF80
FFFE0000001FFF80
FFFE0000001FFF80
FFFE0000001FFF80
FFFE0000001FFF80
FFFE0000001FFF80
FFFE0000001FFF80
FFFE0000001FFF80
FFFE0000001FFF80
FFFE0000001FFF80
FFFE0000001FFF80
FFFE0000001FFF80
FFFE0000001FFF80
FFFE0000001FFF80
FFFE0000001FFF80
FFFE0000001FFF80
FFFE0000001FFF80
FFFE0000001FFF80
FFFE0000001FFF80
FFFE0000001FFF80
FFFE0000001FFF80
FFFE0000001FFF80
FFFE0000001FFF80
FFFE0000001FFF80
FFFE0000001FFF80
FFFE0000001FFF80
FFFE0000001FFF80
FFFE0000001FFF80
FFFE0000001FFF80
FFFE0000001FFF80
FFFE0000001FFF80
FFFE0000003FFF80
FFFE0000003FFF80
FFFF0000003FFF80
7FFF0000007FFF80
7FFF800000FFFF80
7FFFE00003FFFF80
7FFFFFFFFFFFFF00
7FFFFFFFFFFFFF00
3FFFFFFFFFFFFF00
3FFFFFFFFFFFFE00
1FFFFFFFFFFFFE00
1FFFFFFFFFFFFC00
0FFFFFFFFFFFF800
07FFFFFFFFFFF000
03FFFFFFFFFFE000
00FFFFFFFFFF8000
000FFFFFFFF80000
ENDCHAR
STARTCHAR 0031
ENCODING 49
SWIDTH 226 0
DWIDTH 43 0
BBX 15 133 14 0
BITMAP
0006
007E
01FE
07FE
0FFE
1FFE
3FFE
7FFE
7FFE
FFFE
FFFE
FFFE
FFFE
FFFE
FFFE
FFFE
FFFE
FFFE
FFFE
FFFE
FFFE
FFFE
FFFE
FFFE
FFFE
FFFE
FFFE
FFFE
FFFE
FFFE
FFFE
FFFE
FFFE
FFFE
FFFE
FFFE
FFFE
FFFE
FFFE
FFFE
FFFE
FFFE
FFFE
FFFE
FFFE
FFFE
FFFE
FFFE
FFFE
FFFE
FFFE
FFFE
FFFE
FFFE
FFFE
FFFE
FFFE
FFFE
FFFE
FFFE
FFFE
FFFE
FFFE
FFFE
FFFE
FFFE
FFFE
FFFE
FFFE
FFFE
FFFE
FFFE
FFFE
FFFE
FFFE
FFFE
FFFE
FFFE
FFFE
FFFE
FFFE
FFFE
FFFE
FFFE
FFFE
FFFE
FFFE
FFFE
FFFE
FFFE
FFFE
FFFE
FFFE
FFFE
FFFE
FFFE
FFFE
FFFE
FFFE
FFFE
FFFE
FFFE
FFFE
FFFE
FFFE
FFFE
FFFE
FFFE
FFFE
FFFE
FFFE
FFFE
FFFE
FFFE
FFFE
FFFE
FFFE
FFFE
FFFE
FFFE
FFFE
FFFE
FFFE
FFFE
FFFE
FFFE
FFFE
FFFE
FFFE
FFFE
FFFE
FFFC
FFF8
ENDCHAR
STARTCHAR 0032
ENCODING 50
SWIDTH 400 0
DWIDTH 76 0
BBX 54 133 11 0
BITMAP
007FFFFFFFC000
01FFFFFFFFF800
07FFFFFFFFFE00
0FFFFFFFFFFF80
0FFFFFFFFFFFC0
1FFFFFFFFFFFE0
1FFFFFFFFFFFE0
3FFFFFFFFFFFF0
3FFFFFFFFFFFF0
3FFFFFFFFFFFF0
3FFFFFFFFFFFF8
000000003FFFF8
000000000FFFF8
0000000007FFF8
0000000007FFF8
0000000003FFF8
0000000003FFFC
0000000003FFFC
0000000003FFFC
0000000003FFFC
0000000003FFFC
0000000003FFFC
0000000003FFFC
0000000003FFFC
0000000003FFFC
0000000003FFFC
0000000003FFFC
0000000003FFFC
0000000003FFFC
0000000003FFFC
0000000003FFFC
0000000003FFFC
0000000003FFFC
0000000003FFFC
0000000003FFFC
0000000003FFFC
0000000003FFFC
0000000003FFFC
0000000003FFFC
0000000003FFFC
0000000003FFFC
0000000003FFFC
0000000003FFFC
0000000003FFFC
0000000003FFFC
0000000003FFFC
0000000003FFFC
0000000003FFFC
0000000003FFFC
0000000003FFFC
0000000003FFFC
0000000003FFFC
0000000003FFFC
0000000003FFFC
0000000003FFFC
0000000003FFF8
0000000007FFF8
000000000FFFF8
000000003FFFF8
001FFFFFFFFFF8
01FFFFFFFFFFF8
07FFFFFFFFFFF8
0FFFFFFFFFFFF0
1FFFFFFFFFFFF0
1FFFFFFFFFFFE0
3FFFFFFFFFFFE0
3FFFFFFFFFFFC0
7FFFFFFFFFFF00
7FFFFFFFFFFE00
7FFFFFFFFFE000
7FFFF000000000
7FFFC000000000
7FFF8000000000
FFFF0000000000
FFFF0000000000
FFFF0000000000
FFFF0000000000
FFFF0000000000
FFFF0000000000
FFFF0000000000
FFFF0000000000
FFFF0000000000
FFFF0000000000
FFFF0000000000
FFFF0000000000
FFFF0000000000
FFFF0000000000
FFFF0000000000
FFFF0000000000
FFFF0000000000
FFFF0000000000
FFFF0000000000
FFFF0000000000
FFFF0000000000
FFFF0000000000
FFFF0000000000
FFFF0000000000
FFFF0000000000
FFFF0000000000
FFFF0000000000
FFFF0000000000
FFFF0000000000
FFFF0000000000
FFFF0000000000
FFFF0000000000
FFFF0000000000
FFFF0000000000
FFFF0000000000
FFFF0000000000
FFFF0000000000
FFFF0000000000
FFFF0000000000
FFFF0000000000
FFFF0000000000
FFFF0000000000
FFFF0000000000
FFFF0000000000
FFFF0000000000
7FFF8000000000
7FFF8000000000
7FFFC000000000
7FFFF000000000
7FFFFFFFFFFFFC
7FFFFFFFFFFFFC
3FFFFFFFFFFFFC
3FFFFFFFFFFFFC
1FFFFFFFFFFFFC
1FFFFFFFFFFFFC
0FFFFFFFFFFFFC
07FFFFFFFFFFF8
03FFFFFFFFFFF8
007FFFFFFFFFF8
000FFFFFFFFFF0
ENDCHAR
STARTCHAR 0033
ENCODING 51
SWIDTH 389 0
DWIDTH 74 0
BBX 54 133 8 0
BITMAP
00FFFFFFFF0000
07FFFFFFFFF000
0FFFFFFFFFFC00
1FFFFFFFFFFF00
1FFFFFFFFFFF80
3FFFFFFFFFFF80
3FFFFFFFFFFFC0
7FFFFFFFFFFFE0
7FFFFFFFFFFFE0
7FFFFFFFFFFFE0
FFFFFFFFFFFFF0
000000007FFFF0
000000001FFFF0
000000000FFFF0
000000000FFFF0
0000000007FFF0
0000000007FFF0
0000000007FFF0
0000000007FFF0
0000000007FFF0
0000000007FFF0
0000000007FFF0
0000000007FFF0
0000000007FFF0
0000000007FFF0
0000000007FFF0
0000000007FFF0
0000000007FFF0
0000000007FFF0
0000000007FFF0
0000000007FFF0
0000000007FFF0
0000000007FFF0
0000000007FFF0
0000000007FFF0
0000000007FFF0
0000000007FFF0
0000000007FFF0
0000000007FFF0
0000000007FFF0
0000000007FFF0
0000000007FFF0
0000000007FFF0
0000000007FFF0
0000000007FFF0
0000000007FFF0
0000000007FFF0
0000000007FFF0
0000000007FFF0
0000000007FFF0
0000000007FFF0
0000000007FFF0
0000000007FFF0
0000000007FFF0
000000000FFFF0
000000000FFFF0
000000000FFFE0
000000001FFFE0
00000000FFFFC0
0003FFFFFFFFC0
0007FFFFFFFF80
000FFFFFFFFF00
000FFFFFFFFC00
000FFFFFFFE000
000FFFFFFFFC00
000FFFFFFFFF00
000FFFFFFFFF80
000FFFFFFFFFC0
000FFFFFFFFFE0
000FFFFFFFFFE0
00000000FFFFF0
000000001FFFF0
000000000FFFF8
0000000007FFF8
0000000003FFF8
0000000003FFFC
0000000003FFFC
0000000003FFFC
0000000001FFFC
0000000001FFFC
0000000001FFFC
0000000001FFFC
0000000001FFFC
0000000001FFFC
0000000001FFFC
0000000001FFFC
0000000001FFFC
0000000001FFFC
0000000001FFFC
0000000001FFFC
0000000001FFFC
0000000001FFFC
0000000001FFFC
0000000001FFFC
0000000001FFFC
0000000001FFFC
0000000001FFFC
0000000001FFFC
0000000001FFFC
0000000001FFFC
0000000001FFFC
0000000001FFFC
0000000001FFFC
0000000001FFFC
0000000001FFFC
0000000001FFFC
0000000001FFFC
0000000001FFFC
0000000001FFFC
0000000001FFFC
0000000001FFFC
0000000001FFFC
0000000001FFFC
0000000001FFFC
0000000001FFFC
0000000003FFFC
0000000003FFFC
0000000003FFFC
0000000003FFFC
0000000007FFFC
000000000FFFFC
000000003FFFF8
3FFFFFFFFFFFF8
3FFFFFFFFFFFF8
3FFFFFFFFFFFF8
1FFFFFFFFFFFF0
1FFFFFFFFFFFF0
0FFFFFFFFFFFE0
0FFFFFFFFFFFC0
07FFFFFFFFFF80
03FFFFFFFFFF00
01FFFFFFFFFC00
007FFFFFFFC000
ENDCHAR
STARTCHAR 0034
ENCODING 52
SWIDTH 431 0
DWIDTH 82 0
BBX 59 133 9 0
BITMAP
3FFE00000003FFE0
7FFE00000007FFE0
FFFE0000000FFFE0
FFFE0000000FFFE0
FFFE0000000FFFE0
FFFE0000000FFFE0
FFFE0000000FFFE0
FFFE0000000FFFE0
FFFE0000000FFFE0
FFFE0000000FFFE0
FFFE0000000FFFE0
FFFE0000000FFFE0
FFFE0000000FFFE0
FFFE0000000FFFE0
FFFE0000000FFFE0
FFFE0000000FFFE0
FFFE0000000FFFE0
FFFE0000000FFFE0
FFFE0000000FFFE0
FFFE0000000FFFE0
FFFE0000000FFFE0
FFFE0000000FFFE0
FFFE0000000FFFE0
FFFE0000000FFFE0
FFFE0000000FFFE0
FFFE0000000FFFE0
FFFE0000000FFFE0
FFFE0000000FFFE0
FFFE0000000FFFE0
FFFE0000000FFFE0
FFFE0000000FFFE0
FFFE0000000FFFE0
FFFE0000000FFFE0
FFFE0000000FFFE0
FFFE0000000FFFE0
FFFE0000000FFFE0
FFFE0000000FFFE0
FFFE0000000FFFE0
FFFE0000000FFFE0
FFFE0000000FFFE0
FFFE0000000FFFE0
FFFE0000000FFFE0
FFFE0000000FFFE0
FFFE0000000FFFE0
FFFE0000000FFFE0
FFFE0000000FFFE0
FFFE0000000FFFE0
FFFE0000000FFFE0
FFFE0000000FFFE0
FFFE0000000FFFE0
FFFE0000000FFFE0
FFFE0000000FFFE0
FFFE0000000FFFE0
FFFF0000000FFFE0
FFFF0000000FFFE0
FFFF0000000FFFE0
FFFF8000000FFFE0
FFFF8000000FFFE0
7FFFF000000FFFE0
7FFFFFFFFFFFFFE0
7FFFFFFFFFFFFFE0
7FFFFFFFFFFFFFE0
7FFFFFFFFFFFFFE0
3FFFFFFFFFFFFFE0
3FFFFFFFFFFFFFE0
1FFFFFFFFFFFFFE0
0FFFFFFFFFFFFFE0
07FFFFFFFFFFFFE0
01FFFFFFFFFFFFE0
001FFFFFFFFFFFE0
00000000000FFFE0
00000000000FFFE0
00000000000FFFE0
00000000000FFFE0
00000000000FFFE0
00000000000FFFE0
00000000000FFFE0
00000000000FFFE0
00000000000FFFE0
00000000000FFFE0
00000000000FFFE0
00000000000FFFE0
00000000000FFFE0
00000000000FFFE0
00000000000FFFE0
00000000000FFFE0
00000000000FFFE0
00000000000FFFE0
00000000000FFFE0
00000000000FFFE0
00000000000FFFE0
00000000000FFFE0
00000000000FFFE0
00000000000FFFE0
00000000000FFFE0
00000000000FFFE0
00000000000FFFE0
00000000000FFFE0
00000000000FFFE0
00000000000FFFE0
00000000000FFFE0
00000000000FFFE0
00000000000FFFE0
00000000000FFFE0
00000000000FFFE0
00000000000FFFE0
00000000000FFFE0
00000000000FFFE0
00000000000FFFE0
00000000000FFFE0
00000000000FFFE0
00000000000FFFE0
00000000000FFFE0
00000000000FFFE0
00000000000FFFE0
00000000000FFFE0
00000000000FFFE0
00000000000FFFE0
00000000000FFFE0
00000000000FFFE0
00000000000FFFE0
00000000000FFFE0
00000000000FFFE0
00000000000FFFE0
00000000000FFFE0
00000000000FFFE0
00000000000FFFE0
00000000000FFFE0
00000000000FFFE0
00000000000FFFE0
00000000000FFFE0
00000000000FFFC0
00000000000FFF80
ENDCHAR
STARTCHAR 0035
ENCODING 53
SWIDTH 410 0
DWIDTH 78 0
BBX 55 133 12 0
BITMAP
3FFFFFFFFFFFF0
7FFFFFFFFFFFF0
7FFFFFFFFFFFF0
7FFFFFFFFFFFF0
7FFFFFFFFFFFF0
7FFFFFFFFFFFF0
7FFFFFFFFFFFF0
7FFFFFFFFFFFF0
7FFFFFFFFFFFF0
7FFFFFFFFFFFF0
7FFFFFFFFFFFE0
7FFE0000000000
7FFE0000000000
7FFE0000000000
7FFE0000000000
7FFE0000000000
7FFE0000000000
7FFE0000000000
7FFE0000000000
7FFE0000000000
7FFE0000000000
7FFE0000000000
7FFE0000000000
7FFE0000000000
7FFE0000000000
7FFE0000000000
7FFE0000000000
7FFE0000000000
7FFE0000000000
7FFE0000000000
7FFE0000000000
7FFE0000000000
7FFE0000000000
7FFE0000000000
7FFE0000000000
7FFE0000000000
7FFE0000000000
7FFE0000000000
7FFE0000000000
7FFE0000000000
7FFE0000000000
7FFE0000000000
7FFE0000000000
7FFE0000000000
7FFE0000000000
7FFE0000000000
7FFE0000000000
7FFE0000000000
7FFE0000000000
7FFE0000000000
7FFE0000000000
7FFE0000000000
7FFE0000000000
7FFE0000000000
7FFE0000000000
7FFE0000000000
7FFE0000000000
7FFE0000000000
7FFE0000000000
7FFFFFFFFFE000
7FFFFFFFFFFE00
7FFFFFFFFFFF80
7FFFFFFFFFFFC0
7FFFFFFFFFFFE0
7FFFFFFFFFFFF0
7FFFFFFFFFFFF8
7FFFFFFFFFFFF8
7FFFFFFFFFFFF8
7FFFFFFFFFFFFC
3FFFFFFFFFFFFC
000000001FFFFC
0000000007FFFC
0000000003FFFE
0000000001FFFE
0000000001FFFE
0000000001FFFE
0000000001FFFE
0000000000FFFE
0000000000FFFE
0000000000FFFE
0000000000FFFE
0000000000FFFE
0000000000FFFE
0000000000FFFE
0000000000FFFE
0000000000FFFE
0000000000FFFE
0000000000FFFE
0000000000FFFE
0000000000FFFE
0000000000FFFE
0000000000FFFE
0000000000FFFE
0000000000FFFE
0000000000FFFE
0000000000FFFE
0000000000FFFE
0000000000FFFE
0000000000FFFE
0000000000FFFE
0000000000FFFE
0000000000FFFE
0000000000FFFE
0000000000FFFE
0000000000FFFE
0000000000FFFE
0000000000FFFE
0000000000FFFE
0000000000FFFE
0000000000FFFE
0000000000FFFE
0000000000FFFE
0000000000FFFE
0000000000FFFE
0000000000FFFE
0000000001FFFE
0000000001FFFE
0000000001FFFE
0000000001FFFE
0000000003FFFE
0000000007FFFC
000000001FFFFC
FFFFFFFFFFFFFC
FFFFFFFFFFFFFC
FFFFFFFFFFFFF8
7FFFFFFFFFFFF8
7FFFFFFFFFFFF8
7FFFFFFFFFFFF0
3FFFFFFFFFFFE0
1FFFFFFFFFFFC0
1FFFFFFFFFFF80
07FFFFFFFFFE00
01FFFFFFFFE000
ENDCHAR
STARTCHAR 0036
ENCODING 54
SWIDTH 436 0
DWIDTH 83 0
BBX 59 133 13 0
BITMAP
000FFFFFFFFF8000
007FFFFFFFFFE000
03FFFFFFFFFFF000
07FFFFFFFFFFF800
0FFFFFFFFFFFFC00
1FFFFFFFFFFFFC00
1FFFFFFFFFFFFE00
3FFFFFFFFFFFFE00
3FFFFFFFFFFFFF00
7FFFFFFFFFFFFF00
7FFFFFFFFFFFFF00
7FFFF00000000000
7FFFC00000000000
7FFF800000000000
FFFF800000000000
FFFF000000000000
FFFF000000000000
FFFF000000000000
FFFF000000000000
FFFF000000000000
FFFF000000000000
FFFF000000000000
FFFF000000000000
FFFF000000000000
FFFF000000000000
FFFF000000000000
FFFF000000000000
FFFF000000000000
FFFF000000000000
FFFF000000000000
FFFF000000000000
FFFF000000000000
FFFF000000000000
FFFF000000000000
FFFF000000000000
FFFF000000000000
FFFF000000000000
FFFF000000000000
FFFF000000000000
FFFF000000000000
FFFF000000000000
FFFF000000000000
FFFF000000000000
FFFF000000000000
FFFF000000000000
FFFF000000000000
FFFF000000000000
FFFF000000000000
FFFF000000000000
FFFF000000000000
FFFF000000000000
FFFF000000000000
FFFF000000000000
FFFF000000000000
FFFF000000000000
FFFF000000000000
FFFF000000000000
FFFF000000000000
FFFF000000000000
FFFF007FFFFE0000
FFFF00FFFFFFE000
FFFF01FFFFFFF800
FFFF01FFFFFFFC00
FFFF01FFFFFFFE00
FFFF01FFFFFFFF00
FFFF01FFFFFFFF80
FFFF01FFFFFFFF80
FFFF01FFFFFFFFC0
FFFF01FFFFFFFFC0
FFFF01FFFFFFFFC0
FFFF000001FFFFC0
FFFF0000007FFFE0
FFFF0000003FFFE0
FFFF0000001FFFE0
FFFF0000001FFFE0
FFFF0000001FFFE0
FFFF0000000FFFE0
FFFF0000000FFFE0
FFFF0000000FFFE0
FFFF0000000FFFE0
FFFF0000000FFFE0
FFFF0000000FFFE0
FFFF0000000FFFE0
FFFF0000000FFFE0
FFFF0000000FFFE0
FFFF0000000FFFE0
FFFF0000000FFFE0
FFFF0000000FFFE0
FFFF0000000FFFE0
FFFF0000000FFFE0
FFFF0000000FFFE0
FFFF0000000FFFE0
FFFF0000000FFFE0
FFFF0000000FFFE0
FFFF0000000FFFE0
FFFF0000000FFFE0
FFFF0000000FFFE0
FFFF0000000FFFE0
FFFF0000000FFFE0
FFFF0000000FFFE0
FFFF0000000FFFE0
FFFF0000000FFFE0
FFFF0000000FFFE0
FFFF0000000FFFE0
FFFF0000000FFFE0
FFFF0000000FFFE0
FFFF0000000FFFE0
FFFF0000000FFFE0
FFFF0000000FFFE0
FFFF0000000FFFE0
FFFF0000000FFFE0
FFFF0000000FFFE0
FFFF0000000FFFE0
FFFF0000000FFFE0
FFFF0000000FFFE0
FFFF0000000FFFE0
FFFF0000001FFFE0
FFFF0000001FFFE0
FFFF0000001FFFE0
7FFF8000003FFFE0
7FFFC000007FFFE0
7FFFF00001FFFFC0
7FFFFFFFFFFFFFC0
7FFFFFFFFFFFFFC0
3FFFFFFFFFFFFFC0
3FFFFFFFFFFFFF80
1FFFFFFFFFFFFF80
1FFFFFFFFFFFFF00
0FFFFFFFFFFFFE00
07FFFFFFFFFFFC00
03FFFFFFFFFFF800
00FFFFFFFFFFE000
000FFFFFFFFE0000
ENDCHAR
STARTCHAR 0037
ENCODING 55
SWIDTH 357 0
DWIDTH 68 0
BBX 56 133 6 0
BITMAP
3FFFFFFFFFFFFC
7FFFFFFFFFFFFE
7FFFFFFFFFFFFF
FFFFFFFFFFFFFF
FFFFFFFFFFFFFF
FFFFFFFFFFFFFF
FFFFFFFFFFFFFF
FFFFFFFFFFFFFF
FFFFFFFFFFFFFF
FFFFFFFFFFFFFF
FFFFFFFFFFFFFF
00000000007FFF
00000000007FFF
00000000007FFE
0000000000FFFE
0000000000FFFE
0000000000FFFC
0000000000FFFC
0000000001FFFC
0000000001FFFC
0000000001FFF8
0000000001FFF8
0000000003FFF8
0000000003FFF8
0000000003FFF0
0000000007FFF0
0000000007FFF0
0000000007FFF0
0000000007FFE0
000000000FFFE0
000000000FFFE0
000000000FFFC0
000000000FFFC0
000000001FFFC0
000000001FFFC0
000000001FFF80
000000001FFF80
000000003FFF80
000000003FFF80
000000003FFF00
000000007FFF00
000000007FFF00
000000007FFF00
000000007FFE00
00000000FFFE00
00000000FFFE00
00000000FFFC00
00000000FFFC00
00000001FFFC00
00000001FFFC00
00000001FFF800
00000001FFF800
00000003FFF800
00000003FFF800
00000003FFF000
00000007FFF000
00000007FFF000
00000007FFF000
00000007FFE000
0000000FFFE000
0000000FFFE000
0000000FFFC000
0000000FFFC000
0000001FFFC000
0000001FFFC000
0000001FFF8000
0000001FFF8000
0000003FFF8000
0000003FFF8000
0000003FFF0000
0000007FFF0000
0000007FFF0000
0000007FFE0000
0000007FFE0000
000000FFFE0000
000000FFFE0000
000000FFFC0000
000000FFFC0000
000001FFFC0000
000001FFFC0000
000001FFF80000
000001FFF80000
000003FFF80000
000003FFF80000
000003FFF00000
000007FFF00000
000007FFF00000
000007FFE00000
000007FFE00000
00000FFFE00000
00000FFFE00000
00000FFFC00000
00000FFFC00000
00001FFFC00000
00001FFFC00000
00001FFF800000
00001FFF800000
00003FFF800000
00003FFF800000
00003FFF000000
00007FFF000000
00007FFF000000
00007FFE000000
00007FFE000000
0000FFFE000000
0000FFFE000000
0000FFFC000000
0000FFFC000000
0001FFFC000000
0001FFFC000000
0001FFF8000000
0001FFF8000000
0003FFF8000000
0003FFF8000000
0003FFF0000000
0007FFF0000000
0007FFF0000000
0007FFE0000000
0007FFE0000000
000FFFE0000000
000FFFE0000000
000FFFC0000000
000FFFC0000000
001FFFC0000000
001FFFC0000000
001FFF80000000
001FFF80000000
003FFF80000000
003FFF00000000
003FFF00000000
007FFF00000000
007FFF00000000
007FFE00000000
ENDCHAR
STARTCHAR 0038
ENCODING 56
SWIDTH 442 0
DWIDTH 84 0
BBX 58 133 13 0
BITMAP
001FFFFFFFFE0000
00FFFFFFFFFFE000
03FFFFFFFFFFF800
0FFFFFFFFFFFFC00
1FFFFFFFFFFFFE00
1FFFFFFFFFFFFF00
3FFFFFFFFFFFFF00
3FFFFFFFFFFFFF80
7FFFFFFFFFFFFF80
7FFFFFFFFFFFFF80
7FFFFFFFFFFFFFC0
7FFFF00003FFFFC0
FFFFC000007FFFC0
FFFF8000003FFFC0
FFFF0000003FFFC0
FFFF0000003FFFC0
FFFF0000001FFFC0
FFFF0000001FFFC0
FFFE0000001FFFC0
FFFE0000001FFFC0
FFFE0000001FFFC0
FFFE0000001FFFC0
FFFE0000001FFFC0
FFFE0000001FFFC0
FFFE0000001FFFC0
FFFE0000001FFFC0
FFFE0000001FFFC0
FFFE0000001FFFC0
FFFE0000001FFFC0
FFFE0000001FFFC0
FFFE0000001FFFC0
FFFE0000001FFFC0
FFFE0000001FFFC0
FFFE0000001FFFC0
FFFE0000001FFFC0
FFFE0000001FFFC0
FFFE0000001FFFC0
FFFE0000001FFFC0
FFFE0000001FFFC0
FFFE0000001FFFC0
FFFE0000001FFFC0
FFFE0000001FFFC0
FFFE0000001FFFC0
FFFE0000001FFFC0
FFFE0000001FFFC0
FFFE0000001FFFC0
FFFE0000001FFFC0
FFFE0000001FFFC0
FFFE0000001FFFC0
FFFE0000001FFFC0
FFFE0000001FFFC0
FFFE0000001FFFC0
7FFF0000001FFFC0
7FFF0000001FFFC0
7FFF0000003FFF80
7FFF0000003FFF80
3FFF8000003FFF80
3FFFC000007FFF00
1FFFF00003FFFE00
0FFFFFFFFFFFFE00
07FFFFFFFFFFFC00
03FFFFFFFFFFF000
00FFFFFFFFFFC000
001FFFFFFFFF0000
00FFFFFFFFFFC000
03FFFFFFFFFFF000
07FFFFFFFFFFF800
0FFFFFFFFFFFFC00
1FFFFFFFFFFFFE00
1FFFFFFFFFFFFF00
3FFFF00003FFFF00
3FFFC000007FFF80
7FFF8000003FFF80
7FFF0000003FFF80
7FFF0000003FFFC0
FFFF0000001FFFC0
FFFF0000001FFFC0
FFFE0000001FFFC0
FFFE0000001FFFC0
FFFE0000001FFFC0
FFFE0000001FFFC0
FFFE0000001FFFC0
FFFE0000001FFFC0
FFFE0000001FFFC0
FFFE0000001FFFC0
FFFE0000001FFFC0
FFFE0000001FFFC0
FFFE0000001FFFC0
FFFE0000001FFFC0
FFFE0000001FFFC0
FFFE0000001FFFC0
FFFE0000001FFFC0
FFFE0000001FFFC0
FFFE0000001FFFC0
FFFE0000001FFFC0
FFFE0000001FFFC0
FFFE0000001FFFC0
FFFE0000001FFFC0
FFFE0000001FFFC0
FFFE0000001FFFC0
FFFE0000001FFFC0
FFFE0000001FFFC0
FFFE0000001FFFC0
FFFE0000001FFFC0
FFFE0000001FFFC0
FFFE0000001FFFC0
FFFE0000001FFFC0
FFFE0000001FFFC0
FFFE0000001FFFC0
FFFE0000001FFFC0
FFFE0000001FFFC0
FFFE0000001FFFC0
FFFE0000001FFFC0
FFFE0000001FFFC0
FFFE0000001FFFC0
FFFF0000001FFFC0
FFFF0000001FFFC0
FFFF0000003FFFC0
FFFF0000003FFFC0
FFFF8000003FFFC0
FFFFC000007FFFC0
7FFFF00003FFFFC0
7FFFFFFFFFFFFFC0
7FFFFFFFFFFFFF80
7FFFFFFFFFFFFF80
3FFFFFFFFFFFFF80
3FFFFFFFFFFFFF00
1FFFFFFFFFFFFF00
1FFFFFFFFFFFFE00
0FFFFFFFFFFFFC00
03FFFFFFFFFFF800
01FFFFFFFFFFE000
001FFFFFFFFF0000
ENDCHAR
STARTCHAR 0039
ENCODING 57
SWIDTH 426 0
DWIDTH 81 0
BBX 57 133 11 0
BITMAP
000FFFFFFFF80000
00FFFFFFFFFF8000
03FFFFFFFFFFE000
07FFFFFFFFFFF000
0FFFFFFFFFFFF800
1FFFFFFFFFFFFC00
3FFFFFFFFFFFFE00
3FFFFFFFFFFFFE00
7FFFFFFFFFFFFE00
7FFFFFFFFFFFFF00
7FFFFFFFFFFFFF00
7FFFF00007FFFF00
FFFFC00001FFFF00
FFFF800000FFFF80
FFFF0000007FFF80
FFFF0000007FFF80
FFFF0000007FFF80
FFFE0000007FFF80
FFFE0000007FFF80
FFFE0000003FFF80
FFFE0000003FFF80
FFFE0000003FFF80
FFFE0000003FFF80
FFFE0000003FFF80
FFFE0000003FFF80
FFFE0000003FFF80
FFFE0000003FFF80
FFFE0000003FFF80
FFFE0000003FFF80
FFFE0000003FFF80
FFFE0000003FFF80
FFFE0000003FFF80
FFFE0000003FFF80
FFFE0000003FFF80
FFFE0000003FFF80
FFFE0000003FFF80
FFFE0000003FFF80
FFFE0000003FFF80
FFFE0000003FFF80
FFFE0000003FFF80
FFFE0000003FFF80
FFFE0000003FFF80
FFFE0000003FFF80
FFFE0000003FFF80
FFFE0000003FFF80
FFFE0000003FFF80
FFFE0000003FFF80
FFFE0000003FFF80
FFFE0000003FFF80
FFFE0000003FFF80
FFFE0000003FFF80
FFFE0000003FFF80
FFFE0000003FFF80
FFFE0000003FFF80
FFFE0000003FFF80
FFFE0000003FFF80
FFFE0000003FFF80
FFFF0000003FFF80
FFFF0000003FFF80
FFFF0000003FFF80
FFFF8000003FFF80
FFFFC000003FFF80
7FFFF000003FFF80
7FFFFFFFC03FFF80
7FFFFFFFC03FFF80
7FFFFFFFC03FFF80
3FFFFFFFC03FFF80
3FFFFFFFC03FFF80
1FFFFFFFC03FFF80
0FFFFFFFC03FFF80
07FFFFFFC03FFF80
03FFFFFFC03FFF80
00FFFFFF803FFF80
000FFFFF003FFF80
00000000003FFF80
00000000003FFF80
00000000003FFF80
00000000003FFF80
00000000003FFF80
00000000003FFF80
00000000003FFF80
00000000003FFF80
00000000003FFF80
00000000003FFF80
00000000003FFF80
00000000003FFF80
00000000003FFF80
00000000003FFF80
00000000003FFF80
00000000003FFF80
00000000003FFF80
00000000003FFF80
00000000003FFF80
00000000003FFF80
00000000003FFF80
00000000003FFF80
00000000003FFF80
00000000003FFF80
00000000003FFF80
00000000003FFF80
00000000003FFF80
00000000003FFF80
00000000003FFF80
00000000003FFF80
00000000003FFF80
00000000003FFF80
00000000003FFF80
00000000003FFF80
00000000003FFF80
00000000003FFF80
00000000003FFF80
00000000003FFF80
00000000003FFF80
00000000003FFF80
00000000007FFF80
00000000007FFF80
00000000007FFF80
00000000007FFF80
00000000007FFF80
0000000000FFFF80
0000000001FFFF00
0000000007FFFF00
1FFFFFFFFFFFFF00
1FFFFFFFFFFFFF00
1FFFFFFFFFFFFE00
0FFFFFFFFFFFFE00
0FFFFFFFFFFFFE00
0FFFFFFFFFFFFC00
07FFFFFFFFFFF800
03FFFFFFFFFFF000
03FFFFFFFFFFE000
00FFFFFFFFFF8000
003FFFFFFFF80000
ENDCHAR
STARTCHAR 003A
ENCODING 58
SWIDTH 221 0
DWIDTH 42 0
BBX 16 86 13 0
BITMAP
FFFC
FFFF
FFFF
FFFF
FFFF
FFFF
FFFF
FFFF
FFFF
FFFF
FFFF
FFFF
FFFF
FFFF
7FFF
0000
0000
0000
0000
0000
0000
0000
0000
0000
0000
0000
0000
0000
0000
0000
0000
0000
0000
0000
0000
0000
0000
0000
0000
0000
0000
0000
0000
0000
0000
0000
0000
0000
0000
0000
0000
0000
0000
0000
0000
0000
0000
0000
0000
0000
0000
0000
0000
0000
0000
0000
0000
0000
0000
0000
0000
FFFC
FFFF
FFFF
FFFF
FFFF
FFFF
FFFF
FFFF
FFFF
FFFF
FFFF
FFFF
FFFF
FFFF
7FFF
ENDCHAR
STARTCHAR 003B
ENCODING 59
SWIDTH 221 0
DWIDTH 42 0
BBX 17 111 12 -26
BITMAP
FFFE00
FFFF00
FFFF80
FFFF80
FFFF80
FFFF80
FFFF80
FFFF80
FFFF80
FFFF80
FFFF80
FFFF80
7FFF80
7FFF80
3FFF80
000000
000000
000000
000000
000000
000000
000000
000000
000000
000000
000000
000000
000000
000000
000000
000000
000000
000000
000000
000000
000000
000000
000000
000000
000000
000000
000000
000000
000000
000000
000000
000000
000000
000000
000000
000000
000000
000000
000000
000000
000000
000000
000000
000000
000000
000000
000000
000000
000000
000000
000000
000000
000000
000000
000000
FFFE00
FFFF00
FFFF80
FFFF80
FFFF80
FFFF80
FFFF80
FFFF80
FFFF80
FFFF80
FFFF80
FFFF80
7FFF80
7FFF80
3FFF80
03FF80
03FF80
03FF80
03FF80
03FF80
03FF80
03FF80
03FF80
03FF80
03FF80
03FF80
03FF80
03FF00
03FF00
03FF00
03FF00
03FE00
03FE00
03FC00
03FC00
03F800
03F800
03F000
03E000
03C000
030000
ENDCHAR
STARTCHAR 003C
ENCODING 60
SWIDTH 347 0
DWIDTH 66 0
BBX 47 84 8 24
BITMAP
000000000080
0000000001E0
0000000003F0
0000000007F8
000000000FF8
000000001FFC
000000003FFE
000000007FFE
00000000FFFE
00000001FFFE
00000003FFFC
00000007FFF8
0000000FFFF0
0000001FFFE0
0000003FFFC0
0000007FFF80
000000FFFF00
000001FFFE00
000003FFFC00
000007FFF800
00000FFFF000
00001FFFE000
00003FFFC000
00007FFF8000
0000FFFF0000
0001FFFE0000
0003FFFC0000
0007FFF80000
000FFFF00000
001FFFE00000
003FFFC00000
007FFF800000
00FFFF000000
01FFFE000000
03FFFC000000
07FFF8000000
0FFFF0000000
1FFFE0000000
3FFFC0000000
7FFF80000000
7FFF00000000
FFFE00000000
FFFE00000000
7FFF00000000
7FFF80000000
3FFFC0000000
1FFFE0000000
0FFFF0000000
07FFF8000000
03FFFC000000
01FFFE000000
00FFFF000000
007FFF800000
003FFFC00000
001FFFE00000
000FFFF00000
0007FFF80000
0003FFFC0000
0001FFFE0000
0000FFFF0000
00007FFF8000
00003FFFC000
00001FFFE000
00000FFFF000
000007FFF800
000003FFFC00
000001FFFE00
000000FFFF00
0000007FFF80
0000003FFFC0
0000001FFFE0
0000000FFFF0
00000007FFF8
00000003FFFC
00000001FFFE
00000000FFFE
000000007FFE
000000003FFE
000000001FFC
000000000FFC
0000000007F8
0000000003F0
0000000000E0
000000000040
ENDCHAR
STARTCHAR 003D
ENCODING 61
SWIDTH 436 0
DWIDTH 83 0
BBX 57 37 13 47
BITMAP
FFFFFFFFFFFFFE00
FFFFFFFFFFFFFF00
FFFFFFFFFFFFFF80
FFFFFFFFFFFFFF80
FFFFFFFFFFFFFF80
FFFFFFFFFFFFFF80
FFFFFFFFFFFFFF80
FFFFFFFFFFFFFF80
FFFFFFFFFFFFFF80
7FFFFFFFFFFFFF80
3FFFFFFFFFFFFF80
0000000000000000
0000000000000000
0000000000000000
0000000000000000
0000000000000000
0000000000000000
0000000000000000
0000000000000000
0000000000000000
0000000000000000
0000000000000000
0000000000000000
0000000000000000
0000000000000000
0000000000000000
FFFFFFFFFFFFFE00
FFFFFFFFFFFFFF00
FFFFFFFFFFFFFF80
FFFFFFFFFFFFFF80
FFFFFFFFFFFFFF80
FFFFFFFFFFFFFF80
FFFFFFFFFFFFFF80
FFFFFFFFFFFFFF80
FFFFFFFFFFFFFF80
7FFFFFFFFFFFFF80
3FFFFFFFFFFFFF80
ENDCHAR
STARTCHAR 003E
ENCODING 62
SWIDTH 347 0
DWIDTH 66 0
BBX 47 84 11 24
BITMAP
040000000000
0F0000000000
1F8000000000
3FC000000000
7FE000000000
7FF000000000
FFF800000000
FFFC00000000
FFFE00000000
FFFF00000000
7FFF80000000
3FFFC0000000
1FFFE0000000
0FFFF0000000
07FFF8000000
03FFFC000000
01FFFE000000
00FFFF000000
007FFF800000
003FFFC00000
001FFFE00000
000FFFF00000
0007FFF80000
0003FFFC0000
0001FFFE0000
0000FFFF0000
00007FFF8000
00003FFFC000
00001FFFE000
00000FFFF000
000007FFF800
000003FFFC00
000001FFFE00
000000FFFF00
0000007FFF80
0000003FFFC0
0000001FFFE0
0000000FFFF0
00000007FFF8
00000003FFFC
00000001FFFC
00000000FFFE
00000000FFFE
00000001FFFC
00000003FFFC
00000007FFF8
0000000FFFF0
0000001FFFE0
0000003FFFC0
0000007FFF80
000000FFFF00
000001FFFE00
000003FFFC00
000007FFF800
00000FFFF000
00001FFFE000
00003FFFC000
00007FFF8000
0000FFFF0000
0001FFFE0000
0003FFFC0000
0007FFF80000
000FFFF00000
001FFFE00000
003FFFC00000
007FFF800000
00FFFF000000
01FFFE000000
03FFFC000000
07FFF8000000
0FFFF0000000
1FFFE0000000
3FFFC0000000
7FFF80000000
FFFF00000000
FFFE00000000
FFFC00000000
FFF800000000
7FF000000000
7FE000000000
3FC000000000
1F8000000000
0E0000000000
040000000000
ENDCHAR
STARTCHAR 003F
ENCODING 63
SWIDTH 378 0
DWIDTH 72 0
BBX 53 133 9 0
BITMAP
00FFFFFFFF8000
07FFFFFFFFF000
0FFFFFFFFFFC00
1FFFFFFFFFFF00
1FFFFFFFFFFF80
3FFFFFFFFFFFC0
3FFFFFFFFFFFC0
7FFFFFFFFFFFE0
7FFFFFFFFFFFE0
7FFFFFFFFFFFF0
FFFFFFFFFFFFF0
000000007FFFF0
000000001FFFF0
000000000FFFF0
000000000FFFF8
0000000007FFF8
0000000007FFF8
0000000007FFF8
0000000007FFF8
0000000007FFF8
0000000003FFF8
0000000003FFF8
0000000003FFF8
0000000003FFF8
0000000003FFF8
0000000003FFF8
0000000003FFF8
0000000003FFF8
0000000003FFF8
0000000003FFF8
0000000003FFF8
0000000003FFF8
0000000003FFF8
0000000003FFF8
0000000003FFF8
0000000003FFF8
0000000003FFF8
0000000003FFF8
0000000003FFF8
0000000003FFF8
0000000003FFF8
0000000003FFF8
0000000003FFF8
0000000003FFF8
0000000003FFF8
0000000003FFF8
0000000007FFF8
0000000007FFF8
0000000007FFF8
0000000007FFF8
0000000007FFF8
0000000007FFF8
000000000FFFF8
000000000FFFF0
000000001FFFF0
000000007FFFF0
000007FFFFFFF0
00007FFFFFFFF0
0001FFFFFFFFE0
0003FFFFFFFFE0
0007FFFFFFFFC0
000FFFFFFFFFC0
001FFFFFFFFF80
001FFFFFFFFF00
001FFFFFFFFE00
003FFFFFFFF800
003FFFFFFF8000
003FFFF8000000
003FFFE0000000
007FFFC0000000
007FFF80000000
007FFF80000000
007FFF80000000
007FFF80000000
007FFF80000000
007FFF80000000
007FFF00000000
007FFF00000000
007FFF00000000
007FFF00000000
007FFF00000000
007FFF00000000
007FFF00000000
007FFF00000000
007FFF00000000
007FFF00000000
007FFF00000000
007FFF00000000
007FFF00000000
007FFF00000000
007FFF00000000
007FFF00000000
007FFF00000000
007FFF00000000
007FFF00000000
007FFF00000000
007FFF00000000
007FFF00000000
007FFF00000000
007FFF00000000
007FFF00000000
007FFF00000000
007FFF00000000
007FFE00000000
00000000000000
00000000000000
00000000000000
00000000000000
00000000000000
00000000000000
00000000000000
00000000000000
00000000000000
00000000000000
00000000000000
00000000000000
00000000000000
00000000000000
007FFF00000000
007FFF80000000
007FFFC0000000
007FFFC0000000
007FFFC0000000
007FFFC0000000
007FFFC0000000
007FFFC0000000
007FFFC0000000
007FFFC0000000
007FFFC0000000
007FFFC0000000
007FFFC0000000
003FFFC0000000
001FFFC0000000
ENDCHAR
STARTCHAR 0040
ENCODING 64
SWIDTH 500 0
DWIDTH 95 0
BBX 70 94 13 0
BITMAP
000FFFFFFFFFFFE000
00FFFFFFFFFFFFFC00
03FFFFFFFFFFFFFF00
0FFFFFFFFFFFFFFFC0
1FFFFFFFFFFFFFFFC0
3FFFFFFFFFFFFFFFE0
3FFFFFFFFFFFFFFFF0
7FFFFFFFFFFFFFFFF0
7FFFFFFFFFFFFFFFF0
7FFFFFFFFFFFFFFFF8
FFFFFFFFFFFFFFFFF8
FFFFC00000001FFFF8
FFFF0000000007FFF8
FFFE0000000003FFF8
FFFE0000000001FFFC
FFFC0000000001FFFC
FFFC0000000001FFFC
FFFC0000000001FFFC
FFFC0000000000FFFC
FFFC0000000000FFFC
FFFC0000000000FFFC
FFFC0000000000FFFC
FFFC0000000000FFFC
FFFC0000000000FFFC
FFFC000001FFFFFFFC
FFFC00001FFFFFFFFC
FFFC00007FFFFFFFFC
FFFC0001FFFFFFFFFC
FFFC0003FFFFFFFFFC
FFFC0003FFFFFFFFFC
FFFC0007FFFFFFFFFC
FFFC000FFFFFFFFFFC
FFFC000FFFFFFFFFFC
FFFC000FFFFFFFFFFC
FFFC001FFFFFFFFFFC
FFFC001FFFF000FFFC
FFFC001FFFC000FFFC
FFFC001FFF8000FFFC
FFFC001FFF8000FFFC
FFFC001FFF0000FFFC
FFFC001FFF0000FFFC
FFFC001FFF0000FFFC
FFFC001FFF0000FFFC
FFFC001FFF0000FFFC
FFFC001FFF0000FFFC
FFFC001FFF0000FFFC
FFFC001FFF0000FFFC
FFFC001FFF0000FFFC
FFFC001FFF0000FFFC
FFFC001FFF0000FFFC
FFFC001FFF0000FFFC
FFFC001FFF0000FFFC
FFFC001FFF0000FFFC
FFFC001FFF0000FFFC
FFFC001FFF0000FFFC
FFFC001FFF8000FFFC
FFFC001FFF8000FFFC
FFFC001FFFC000FFFC
FFFC001FFFF000FFFC
FFFC001FFFFFC0FFFC
FFFC000FFFFFC0FFFC
FFFC000FFFFFC0FFFC
FFFC000FFFFFC0FFFC
FFFC0007FFFFC0FFFC
FFFC0003FFFFC0FFFC
FFFC0003FFFFC0FFFC
FFFC0001FFFFC0FFFC
FFFC00007FFFC0FFFC
FFFC00001FFF80FFFC
FFFC000001FF003FFC
FFFC00000000000000
FFFC00000000000000
FFFC00000000000000
FFFC00000000000000
FFFC00000000000000
FFFC00000000000000
FFFC00000000000000
FFFC00000000000000
FFFC00000000000000
FFFE00000000000000
FFFE00000000000000
FFFF00000000000000
FFFFC0000000000000
FFFFFFFFFFFFFFFFF0
7FFFFFFFFFFFFFFFF0
7FFFFFFFFFFFFFFFF0
7FFFFFFFFFFFFFFFF0
3FFFFFFFFFFFFFFFF0
3FFFFFFFFFFFFFFFF0
1FFFFFFFFFFFFFFFF0
0FFFFFFFFFFFFFFFF0
03FFFFFFFFFFFFFFE0
00FFFFFFFFFFFFFFE0
001FFFFFFFFFFFFFC0
ENDCHAR
STARTCHAR 0041
ENCODING 65
SWIDTH 478 0
DWIDTH 91 0
BBX 63 133 14 0
BITMAP
000FFFFFFFFFE000
00FFFFFFFFFFFE00
03FFFFFFFFFFFF80
0FFFFFFFFFFFFFC0
1FFFFFFFFFFFFFE0
1FFFFFFFFFFFFFF0
3FFFFFFFFFFFFFF8
7FFFFFFFFFFFFFF8
7FFFFFFFFFFFFFFC
7FFFFFFFFFFFFFFC
FFFFFFFFFFFFFFFC
FFFFF000001FFFFE
FFFF80000007FFFE
FFFF00000003FFFE
FFFF00000001FFFE
FFFF00000001FFFE
FFFE00000001FFFE
FFFE00000000FFFE
FFFE00000000FFFE
FFFE00000000FFFE
FFFE00000000FFFE
FFFE00000000FFFE
FFFE00000000FFFE
FFFE00000000FFFE
FFFE00000000FFFE
FFFE00000000FFFE
FFFE00000000FFFE
FFFE00000000FFFE
FFFE00000000FFFE
FFFE00000000FFFE
FFFE00000000FFFE
FFFE00000000FFFE
FFFE00000000FFFE
FFFE00000000FFFE
FFFE00000000FFFE
FFFE00000000FFFE
FFFE00000000FFFE
FFFE00000000FFFE
FFFE00000000FFFE
FFFE00000000FFFE
FFFE00000000FFFE
FFFE00000000FFFE
FFFE00000000FFFE
FFFE00000000FFFE
FFFE00000000FFFE
FFFE00000000FFFE
FFFE00000000FFFE
FFFE00000000FFFE
FFFE00000000FFFE
FFFE00000000FFFE
FFFE00000000FFFE
FFFE00000000FFFE
FFFE00000000FFFE
FFFE00000000FFFE
FFFE00000000FFFE
FFFE00000000FFFE
FFFE00000000FFFE
FFFE00000000FFFE
FFFE00000000FFFE
FFFFFFFFFF00FFFE
FFFFFFFFFF00FFFE
FFFFFFFFFF00FFFE
FFFFFFFFFF00FFFE
FFFFFFFFFF00FFFE
FFFFFFFFFF00FFFE
FFFFFFFFFF00FFFE
FFFFFFFFFF00FFFE
FFFFFFFFFF00FFFE
FFFFFFFFFF00FFFE
FFFFFFFFFE00FFFE
FFFE00000000FFFE
FFFE00000000FFFE
FFFE00000000FFFE
FFFE00000000FFFE
FFFE00000000FFFE
FFFE00000000FFFE
FFFE00000000FFFE
FFFE00000000FFFE
FFFE00000000FFFE
FFFE00000000FFFE
FFFE00000000FFFE
FFFE00000000FFFE
FFFE00000000FFFE
FFFE00000000FFFE
FFFE00000000FFFE
FFFE00000000FFFE
FFFE00000000FFFE
FFFE00000000FFFE
FFFE00000000FFFE
FFFE00000000FFFE
FFFE00000000FFFE
FFFE00000000FFFE
FFFE00000000FFFE
FFFE00000000FFFE
FFFE00000000FFFE
FFFE00000000FFFE
FFFE00000000FFFE
FFFE00000000FFFE
FFFE00000000FFFE
FFFE00000000FFFE
FFFE00000000FFFE
FFFE00000000FFFE
FFFE00000000FFFE
FFFE00000000FFFE
FFFE00000000FFFE
FFFE00000000FFFE
FFFE00000000FFFE
FFFE00000000FFFE
FFFE00000000FFFE
FFFE00000000FFFE
FFFE00000000FFFE
FFFE00000000FFFE
FFFE00000000FFFE
FFFE00000000FFFE
FFFE00000000FFFE
FFFE00000000FFFE
FFFE00000000FFFE
FFFE00000000FFFE
FFFE00000000FFFE
FFFE00000000FFFE
FFFE00000000FFFE
FFFE00000000FFFE
FFFE00000000FFFE
FFFE00000000FFFE
FFFE00000000FFFE
FFFE00000000FFFE
FFFE00000000FFFE
FFFE00000000FFFE
FFFE00000000FFFE
FFFE00000000FFFE
FFFE00000000FFFE
FFFC00000000FFFC
FFF800000000FFF8
ENDCHAR
STARTCHAR 0042
ENCODING 66
SWIDTH 463 0
DWIDTH 88 0
BBX 61 133 14 0
BITMAP
3FFFFFFFFFFF8000
FFFFFFFFFFFFF800
FFFFFFFFFFFFFE00
FFFFFFFFFFFFFF00
FFFFFFFFFFFFFF80
FFFFFFFFFFFFFFC0
FFFFFFFFFFFFFFE0
FFFFFFFFFFFFFFE0
FFFFFFFFFFFFFFF0
FFFFFFFFFFFFFFF0
FFFFFFFFFFFFFFF0
FFFE0000007FFFF8
FFFE0000000FFFF8
FFFE00000007FFF8
FFFE00000007FFF8
FFFE00000007FFF8
FFFE00000003FFF8
FFFE00000003FFF8
FFFE00000003FFF8
FFFE00000003FFF8
FFFE00000003FFF8
FFFE00000003FFF8
FFFE00000003FFF8
FFFE00000003FFF8
FFFE00000003FFF8
FFFE00000003FFF8
FFFE00000003FFF8
FFFE00000003FFF8
FFFE00000003FFF8
FFFE00000003FFF8
FFFE00000003FFF8
FFFE00000003FFF8
FFFE00000003FFF8
FFFE00000003FFF8
FFFE00000003FFF8
FFFE00000003FFF8
FFFE00000003FFF8
FFFE00000003FFF8
FFFE00000003FFF8
FFFE00000003FFF8
FFFE00000003FFF8
FFFE00000003FFF8
FFFE00000003FFF8
FFFE00000003FFF8
FFFE00000003FFF8
FFFE00000003FFF8
FFFE00000003FFF8
FFFE00000003FFF8
FFFE00000003FFF8
FFFE00000003FFF8
FFFE00000003FFF8
FFFE00000003FFF8
FFFE00000003FFF8
FFFE00000003FFF0
FFFE00000007FFF0
FFFE00000007FFF0
FFFE0000000FFFE0
FFFE0000001FFFE0
FFFE0000003FFFC0
FFFFFFFFFFFFFF80
FFFFFFFFFFFFFF00
FFFFFFFFFFFFFC00
FFFFFFFFFFFFF000
FFFFFFFFFFFFF000
FFFFFFFFFFFFFC00
FFFFFFFFFFFFFF00
FFFFFFFFFFFFFF80
FFFFFFFFFFFFFFC0
FFFFFFFFFFFFFFE0
FFFFFFFFFFFFFFE0
FFFE0000007FFFF0
FFFE0000000FFFF0
FFFE00000007FFF0
FFFE00000007FFF8
FFFE00000007FFF8
FFFE00000003FFF8
FFFE00000003FFF8
FFFE00000003FFF8
FFFE00000003FFF8
FFFE00000003FFF8
FFFE00000003FFF8
FFFE00000003FFF8
FFFE00000003FFF8
FFFE00000003FFF8
FFFE00000003FFF8
FFFE00000003FFF8
FFFE00000003FFF8
FFFE00000003FFF8
FFFE00000003FFF8
FFFE00000003FFF8
FFFE00000003FFF8
FFFE00000003FFF8
FFFE00000003FFF8
FFFE00000003FFF8
FFFE00000003FFF8
FFFE00000003FFF8
FFFE00000003FFF8
FFFE00000003FFF8
FFFE00000003FFF8
FFFE00000003FFF8
FFFE00000003FFF8
FFFE00000003FFF8
FFFE00000003FFF8
FFFE00000003FFF8
FFFE00000003FFF8
FFFE00000003FFF8
FFFE00000003FFF8
FFFE00000003FFF8
FFFE00000003FFF8
FFFE00000003FFF8
FFFE00000003FFF8
FFFE00000003FFF8
FFFE00000003FFF8
FFFE00000003FFF8
FFFE00000003FFF8
FFFE00000003FFF8
FFFE00000003FFF8
FFFE00000007FFF8
FFFE00000007FFF8
FFFE00000007FFF8
FFFE0000000FFFF8
FFFE0000007FFFF8
FFFE03FFFFFFFFF0
FFFE03FFFFFFFFF0
FFFE03FFFFFFFFF0
FFFE03FFFFFFFFE0
FFFE03FFFFFFFFE0
FFFE03FFFFFFFFC0
FFFE03FFFFFFFFC0
FFFE01FFFFFFFF80
FFFE01FFFFFFFE00
FFFE01FFFFFFF800
FFFE00FFFFFF8000
ENDCHAR
STARTCHAR 0043
ENCODING 67
SWIDTH 389 0
DWIDTH 74 0
BBX 54 133 13 0
BITMAP
000FFFFFFFFE00
007FFFFFFFFF80
03FFFFFFFFFFE0
07FFFFFFFFFFE0
0FFFFFFFFFFFF0
1FFFFFFFFFFFF0
1FFFFFFFFFFFF8
3FFFFFFFFFFFF8
3FFFFFFFFFFFFC
7FFFFFFFFFFFFC
7FFFFFFFFFFFFC
7FFFF000000000
7FFFC000000000
7FFF8000000000
FFFF8000000000
FFFF0000000000
FFFF0000000000
FFFF0000000000
FFFF0000000000
FFFF0000000000
FFFF0000000000
FFFF0000000000
FFFF0000000000
FFFF0000000000
FFFF0000000000
FFFF0000000000
FFFF0000000000
FFFF0000000000
FFFF0000000000
FFFF0000000000
FFFF0000000000
FFFF0000000000
FFFF0000000000
FFFF0000000000
FFFF0000000000
FFFF0000000000
FFFF0000000000
FFFF0000000000
FFFF0000000000
FFFF0000000000
FFFF0000000000
FFFF0000000000
FFFF0000000000
FFFF0000000000
FFFF0000000000
FFFF0000000000
FFFF0000000000
FFFF0000000000
FFFF0000000000
FFFF0000000000
FFFF0000000000
FFFF0000000000
FFFF0000000000
FFFF0000000000
FFFF0000000000
FFFF0000000000
FFFF0000000000
FFFF0000000000
FFFF0000000000
FFFF0000000000
FFFF0000000000
FFFF0000000000
FFFF0000000000
FFFF0000000000
FFFF0000000000
FFFF0000000000
FFFF0000000000
FFFF0000000000
FFFF0000000000
FFFF0000000000
FFFF0000000000
FFFF0000000000
FFFF0000000000
FFFF0000000000
FFFF0000000000
FFFF0000000000
FFFF0000000000
FFFF0000000000
FFFF0000000000
FFFF0000000000
FFFF0000000000
FFFF0000000000
FFFF0000000000
FFFF0000000000
FFFF0000000000
FFFF0000000000
FFFF0000000000
FFFF0000000000
FFFF0000000000
FFFF0000000000
FFFF0000000000
FFFF0000000000
FFFF0000000000
FFFF0000000000
FFFF0000000000
FFFF0000000000
FFFF0000000000
FFFF0000000000
FFFF0000000000
FFFF0000000000
FFFF0000000000
FFFF0000000000
FFFF0000000000
FFFF0000000000
FFFF0000000000
FFFF0000000000
FFFF0000000000
FFFF0000000000
FFFF0000000000
FFFF0000000000
FFFF0000000000
FFFF0000000000
FFFF0000000000
FFFF0000000000
FFFF0000000000
FFFF0000000000
FFFF0000000000
FFFF0000000000
FFFF0000000000
7FFF8000000000
7FFFC000000000
7FFFF000000000
7FFFFFFFFFFFFC
7FFFFFFFFFFFFC
3FFFFFFFFFFFFC
3FFFFFFFFFFFFC
1FFFFFFFFFFFFC
1FFFFFFFFFFFFC
0FFFFFFFFFFFFC
07FFFFFFFFFFFC
03FFFFFFFFFFFC
00FFFFFFFFFFFC
000FFFFFFFFFF8
ENDCHAR
STARTCHAR 0044
ENCODING 68
SWIDTH 473 0
DWIDTH 90 0
BBX 63 133 14 0
BITMAP
3FFFFFFFFFFFE000
FFFFFFFFFFFFFE00
FFFFFFFFFFFFFF80
FFFFFFFFFFFFFFC0
FFFFFFFFFFFFFFE0
FFFFFFFFFFFFFFF0
FFFFFFFFFFFFFFF8
FFFFFFFFFFFFFFF8
FFFFFFFFFFFFFFFC
FFFFFFFFFFFFFFFC
FFFFFFFFFFFFFFFC
FFFE0000001FFFFE
FFFE00000007FFFE
FFFE00000003FFFE
FFFE00000001FFFE
FFFE00000001FFFE
FFFE00000001FFFE
FFFE00000000FFFE
FFFE00000000FFFE
FFFE00000000FFFE
FFFE00000000FFFE
FFFE00000000FFFE
FFFE00000000FFFE
FFFE00000000FFFE
FFFE00000000FFFE
FFFE00000000FFFE
FFFE00000000FFFE
FFFE00000000FFFE
FFFE00000000FFFE
FFFE00000000FFFE
FFFE00000000FFFE
FFFE00000000FFFE
FFFE00000000FFFE
FFFE00000000FFFE
FFFE00000000FFFE
FFFE00000000FFFE
FFFE00000000FFFE
FFFE00000000FFFE
FFFE00000000FFFE
FFFE00000000FFFE
FFFE00000000FFFE
FFFE00000000FFFE
FFFE00000000FFFE
FFFE00000000FFFE
FFFE00000000FFFE
FFFE00000000FFFE
FFFE00000000FFFE
FFFE00000000FFFE
FFFE00000000FFFE
FFFE00000000FFFE
FFFE00000000FFFE
FFFE00000000FFFE
FFFE00000000FFFE
FFFE00000000FFFE
FFFE00000000FFFE
FFFE00000000FFFE
FFFE00000000FFFE
FFFE00000000FFFE
FFFE00000000FFFE
FFFE00000000FFFE
FFFE00000000FFFE
FFFE00000000FFFE
FFFE00000000FFFE
FFFE00000000FFFE
FFFE00000000FFFE
FFFE00000000FFFE
FFFE00000000FFFE
FFFE00000000FFFE
FFFE00000000FFFE
FFFE00000000FFFE
FFFE00000000FFFE
FFFE00000000FFFE
FFFE00000000FFFE
FFFE00000000FFFE
FFFE00000000FFFE
FFFE00000000FFFE
FFFE00000000FFFE
FFFE00000000FFFE
FFFE00000000FFFE
FFFE00000000FFFE
FFFE00000000FFFE
FFFE00000000FFFE
FFFE00000000FFFE
FFFE00000000FFFE
FFFE00000000FFFE
FFFE00000000FFFE
FFFE00000000FFFE
FFFE00000000FFFE
FFFE00000000FFFE
FFFE00000000FFFE
FFFE00000000FFFE
FFFE00000000FFFE
FFFE00000000FFFE
FFFE00000000FFFE
FFFE00000000FFFE
FFFE00000000FFFE
FFFE00000000FFFE
FFFE00000000FFFE
FFFE00000000FFFE
FFFE00000000FFFE
FFFE00000000FFFE
FFFE00000000FFFE
FFFE00000000FFFE
FFFE00000000FFFE
FFFE00000000FFFE
FFFE00000000FFFE
FFFE00000000FFFE
FFFE00000000FFFE
FFFE00000000FFFE
FFFE00000000FFFE
FFFE00000000FFFE
FFFE00000000FFFE
FFFE00000000FFFE
FFFE00000000FFFE
FFFE00000000FFFE
FFFE00000000FFFE
FFFE00000001FFFE
FFFE00000001FFFE
FFFE00000001FFFE
FFFE00000003FFFE
FFFE00000003FFFE
FFFE0000001FFFFE
FFFE03FFFFFFFFFC
FFFE03FFFFFFFFFC
FFFE03FFFFFFFFFC
FFFE03FFFFFFFFF8
FFFE03FFFFFFFFF8
FFFE03FFFFFFFFF0
FFFE03FFFFFFFFE0
FFFE01FFFFFFFFC0
FFFE01FFFFFFFF80
FFFE01FFFFFFFE00
FFFE00FFFFFFE000
ENDCHAR
STARTCHAR 0045
ENCODING 69
SWIDTH 389 0
DWIDTH 74 0
BBX 51 133 14 0
BITMAP
3FFFFFFFFFFFE0
FFFFFFFFFFFFE0
FFFFFFFFFFFFE0
FFFFFFFFFFFFE0
FFFFFFFFFFFFE0
FFFFFFFFFFFFE0
FFFFFFFFFFFFE0
FFFFFFFFFFFFE0
FFFFFFFFFFFFE0
FFFFFFFFFFFFE0
FFFFFFFFFFFFC0
FFFE0000000000
FFFE0000000000
FFFE0000000000
FFFE0000000000
FFFE0000000000
FFFE0000000000
FFFE0000000000
FFFE0000000000
FFFE0000000000
FFFE0000000000
FFFE0000000000
FFFE0000000000
FFFE0000000000
FFFE0000000000
FFFE0000000000
FFFE0000000000
FFFE0000000000
FFFE0000000000
FFFE0000000000
FFFE0000000000
FFFE0000000000
FFFE0000000000
FFFE0000000000
FFFE0000000000
FFFE0000000000
FFFE0000000000
FFFE0000000000
FFFE0000000000
FFFE0000000000
FFFE0000000000
FFFE0000000000
FFFE0000000000
FFFE0000000000
FFFE0000000000
FFFE0000000000
FFFE0000000000
FFFE0000000000
FFFE0000000000
FFFE0000000000
FFFE0000000000
FFFE0000000000
FFFE0000000000
FFFE0000000000
FFFE0000000000
FFFE0000000000
FFFE0000000000
FFFE0000000000
FFFE0000000000
FFFFFFFFFFF800
FFFFFFFFFFF800
FFFFFFFFFFF800
FFFFFFFFFFF800
FFFFFFFFFFF800
FFFFFFFFFFF800
FFFFFFFFFFF800
FFFFFFFFFFF800
FFFFFFFFFFF800
FFFFFFFFFFF800
FFFFFFFFFFF000
FFFE0000000000
FFFE0000000000
FFFE0000000000
FFFE0000000000
FFFE0000000000
FFFE0000000000
FFFE0000000000
FFFE0000000000
FFFE0000000000
FFFE0000000000
FFFE0000000000
FFFE0000000000
FFFE0000000000
FFFE0000000000
FFFE0000000000
FFFE0000000000
FFFE0000000000
FFFE0000000000
FFFE0000000000
FFFE0000000000
FFFE0000000000
FFFE0000000000
FFFE0000000000
FFFE0000000000
FFFE0000000000
FFFE0000000000
FFFE0000000000
FFFE0000000000
FFFE0000000000
FFFE0000000000
FFFE0000000000
FFFE0000000000
FFFE0000000000
FFFE0000000000
FFFE0000000000
FFFE0000000000
FFFE0000000000
FFFE0000000000
FFFE0000000000
FFFE0000000000
FFFE0000000000
FFFE0000000000
FFFE0000000000
FFFE0000000000
FFFE0000000000
FFFE0000000000
FFFE0000000000
FFFE0000000000
FFFE0000000000
FFFE0000000000
FFFE0000000000
FFFE0000000000
FFFFFFFFFFFFE0
FFFFFFFFFFFFE0
FFFFFFFFFFFFE0
FFFFFFFFFFFFE0
FFFFFFFFFFFFE0
FFFFFFFFFFFFE0
FFFFFFFFFFFFE0
FFFFFFFFFFFFE0
FFFFFFFFFFFFE0
FFFFFFFFFFFFC0
FFFFFFFFFFFF80
ENDCHAR
STARTCHAR 0046
ENCODING 70
SWIDTH 373 0
DWIDTH 71 0
BBX 51 133 14 0
BITMAP
3FFFFFFFFFFFE0
FFFFFFFFFFFFE0
FFFFFFFFFFFFE0
FFFFFFFFFFFFE0
FFFFFFFFFFFFE0
FFFFFFFFFFFFE0
FFFFFFFFFFFFE0
FFFFFFFFFFFFE0
FFFFFFFFFFFFE0
FFFFFFFFFFFFE0
FFFFFFFFFFFFC0
FFFE0000000000
FFFE0000000000
FFFE0000000000
FFFE0000000000
FFFE0000000000
FFFE0000000000
FFFE0000000000
FFFE0000000000
FFFE0000000000
FFFE0000000000
FFFE0000000000
FFFE0000000000
FFFE0000000000
FFFE0000000000
FFFE0000000000
FFFE0000000000
FFFE0000000000
FFFE0000000000
FFFE0000000000
FFFE0000000000
FFFE0000000000
FFFE0000000000
FFFE0000000000
FFFE0000000000
FFFE0000000000
FFFE0000000000
FFFE0000000000
FFFE0000000000
FFFE0000000000
FFFE0000000000
FFFE0000000000
FFFE0000000000
FFFE0000000000
FFFE0000000000
FFFE0000000000
FFFE0000000000
FFFE0000000000
FFFE0000000000
FFFE0000000000
FFFE0000000000
FFFE0000000000
FFFE0000000000
FFFE0000000000
FFFE0000000000
FFFE0000000000
FFFE0000000000
FFFE0000000000
FFFE0000000000
FFFFFFFFFFF800
FFFFFFFFFFF800
FFFFFFFFFFF800
FFFFFFFFFFF800
FFFFFFFFFFF800
FFFFFFFFFFF800
FFFFFFFFFFF800
FFFFFFFFFFF800
FFFFFFFFFFF800
FFFFFFFFFFF800
FFFFFFFFFFF000
FFFE0000000000
FFFE0000000000
FFFE0000000000
FFFE0000000000
FFFE0000000000
FFFE0000000000
FFFE0000000000
FFFE0000000000
FFFE0000000000
FFFE0000000000
FFFE0000000000
FFFE0000000000
FFFE0000000000
FFFE0000000000
FFFE0000000000
FFFE0000000000
FFFE0000000000
FFFE0000000000
FFFE0000000000
FFFE0000000000
FFFE0000000000
FFFE0000000000
FFFE0000000000
FFFE0000000000
FFFE0000000000
FFFE0000000000
FFFE0000000000
FFFE0000000000
FFFE0000000000
FFFE0000000000
FFFE0000000000
FFFE0000000000
FFFE0000000000
FFFE0000000000
FFFE0000000000
FFFE0000000000
FFFE0000000000
FFFE0000000000
FFFE0000000000
FFFE0000000000
FFFE0000000000
FFFE0000000000
FFFE0000000000
FFFE0000000000
FFFE0000000000
FFFE0000000000
FFFE0000000000
FFFE0000000000
FFFE0000000000
FFFE0000000000
FFFE0000000000
FFFE0000000000
FFFE0000000000
FFFE0000000000
FFFE0000000000
FFFE0000000000
FFFE0000000000
FFFE0000000000
FFFE0000000000
FFFE0000000000
FFFE0000000000
FFFC0000000000
FFF80000000000
ENDCHAR
STARTCHAR 0047
ENCODING 71
SWIDTH 463 0
DWIDTH 88 0
BBX 64 133 13 0
BITMAP
000FFFFFFFFFFFC0
007FFFFFFFFFFFF0
03FFFFFFFFFFFFF0
07FFFFFFFFFFFFF0
0FFFFFFFFFFFFFF0
1FFFFFFFFFFFFFF0
1FFFFFFFFFFFFFF0
3FFFFFFFFFFFFFF0
3FFFFFFFFFFFFFF0
7FFFFFFFFFFFFFF0
7FFFFFFFFFFFFFF0
7FFFF00000000000
7FFFC00000000000
7FFF800000000000
FFFF800000000000
FFFF000000000000
FFFF000000000000
FFFF000000000000
FFFF000000000000
FFFF000000000000
FFFF000000000000
FFFF000000000000
FFFF000000000000
FFFF000000000000
FFFF000000000000
FFFF000000000000
FFFF000000000000
FFFF000000000000
FFFF000000000000
FFFF000000000000
FFFF000000000000
FFFF000000000000
FFFF000000000000
FFFF000000000000
FFFF000000000000
FFFF000000000000
FFFF000000000000
FFFF000000000000
FFFF000000000000
FFFF000000000000
FFFF000000000000
FFFF000000000000
FFFF000000000000
FFFF000000000000
FFFF000000000000
FFFF000000000000
FFFF000000000000
FFFF000000000000
FFFF000000000000
FFFF000000000000
FFFF000000000000
FFFF000000000000
FFFF000000000000
FFFF000000000000
FFFF000000000000
FFFF000000000000
FFFF000000000000
FFFF000000000000
FFFF000000000000
FFFF00003FFFFFFF
FFFF00007FFFFFFF
FFFF0000FFFFFFFF
FFFF0000FFFFFFFF
FFFF0000FFFFFFFF
FFFF0000FFFFFFFF
FFFF0000FFFFFFFF
FFFF0000FFFFFFFF
FFFF0000FFFFFFFF
FFFF0000FFFFFFFF
FFFF0000FFFFFFFF
FFFF000000007FFF
FFFF000000007FFF
FFFF000000007FFF
FFFF000000007FFF
FFFF000000007FFF
FFFF000000007FFF
FFFF000000007FFF
FFFF000000007FFF
FFFF000000007FFF
FFFF000000007FFF
FFFF000000007FFF
FFFF000000007FFF
FFFF000000007FFF
FFFF000000007FFF
FFFF000000007FFF
FFFF000000007FFF
FFFF000000007FFF
FFFF000000007FFF
FFFF000000007FFF
FFFF000000007FFF
FFFF000000007FFF
FFFF000000007FFF
FFFF000000007FFF
FFFF000000007FFF
FFFF000000007FFF
FFFF000000007FFF
FFFF000000007FFF
FFFF000000007FFF
FFFF000000007FFF
FFFF000000007FFF
FFFF000000007FFF
FFFF000000007FFF
FFFF000000007FFF
FFFF000000007FFF
FFFF000000007FFF
FFFF000000007FFF
FFFF000000007FFF
FFFF000000007FFF
FFFF000000007FFF
FFFF000000007FFF
FFFF000000007FFF
FFFF000000007FFF
FFFF000000007FFF
FFFF00000000FFFF
FFFF00000000FFFF
FFFF00000000FFFF
FFFF00000000FFFF
FFFF00000000FFFF
FFFF00000000FFFF
7FFF80000001FFFF
7FFFC0000003FFFE
7FFFF000000FFFFE
7FFFFFFFFFFFFFFE
7FFFFFFFFFFFFFFE
3FFFFFFFFFFFFFFC
3FFFFFFFFFFFFFFC
1FFFFFFFFFFFFFF8
1FFFFFFFFFFFFFF8
0FFFFFFFFFFFFFF0
07FFFFFFFFFFFFE0
03FFFFFFFFFFFFC0
00FFFFFFFFFFFE00
000FFFFFFFFFF000
ENDCHAR
STARTCHAR 0048
ENCODING 72
SWIDTH 500 0
DWIDTH 95 0
BBX 67 133 14 0
BITMAP
3FFE0000000003FFE0
FFFE000000000FFFE0
FFFE000000000FFFE0
FFFE000000000FFFE0
FFFE000000000FFFE0
FFFE000000000FFFE0
FFFE000000000FFFE0
FFFE000000000FFFE0
FFFE000000000FFFE0
FFFE000000000FFFE0
FFFE000000000FFFE0
FFFE000000000FFFE0
FFFE000000000FFFE0
FFFE000000000FFFE0
FFFE000000000FFFE0
FFFE000000000FFFE0
FFFE000000000FFFE0
FFFE000000000FFFE0
FFFE000000000FFFE0
FFFE000000000FFFE0
FFFE000000000FFFE0
FFFE000000000FFFE0
FFFE000000000FFFE0
FFFE000000000FFFE0
FFFE000000000FFFE0
FFFE000000000FFFE0
FFFE000000000FFFE0
FFFE000000000FFFE0
FFFE000000000FFFE0
FFFE000000000FFFE0
FFFE000000000FFFE0
FFFE000000000FFFE0
FFFE000000000FFFE0
FFFE000000000FFFE0
FFFE000000000FFFE0
FFFE000000000FFFE0
FFFE000000000FFFE0
FFFE000000000FFFE0
FFFE000000000FFFE0
FFFE000000000FFFE0
FFFE000000000FFFE0
FFFE000000000FFFE0
FFFE000000000FFFE0
FFFE000000000FFFE0
FFFE000000000FFFE0
FFFE000000000FFFE0
FFFE000000000FFFE0
FFFE000000000FFFE0
FFFE000000000FFFE0
FFFE000000000FFFE0
FFFE000000000FFFE0
FFFE000000000FFFE0
FFFE000000000FFFE0
FFFE000000000FFFE0
FFFE000000000FFFE0
FFFE000000000FFFE0
FFFE000000000FFFE0
FFFE000000000FFFE0
FFFE000000000FFFE0
FFFFFFFFFFF00FFFE0
FFFFFFFFFFF00FFFE0
FFFFFFFFFFF00FFFE0
FFFFFFFFFFF00FFFE0
FFFFFFFFFFF00FFFE0
FFFFFFFFFFF00FFFE0
FFFFFFFFFFF00FFFE0
FFFFFFFFFFF00FFFE0
FFFFFFFFFFF00FFFE0
FFFFFFFFFFF00FFFE0
FFFFFFFFFFE00FFFE0
FFFE000000000FFFE0
FFFE000000000FFFE0
FFFE000000000FFFE0
FFFE000000000FFFE0
FFFE000000000FFFE0
FFFE000000000FFFE0
FFFE000000000FFFE0
FFFE000000000FFFE0
FFFE000000000FFFE0
FFFE000000000FFFE0
FFFE000000000FFFE0
FFFE000000000FFFE0
FFFE000000000FFFE0
FFFE000000000FFFE0
FFFE000000000FFFE0
FFFE000000000FFFE0
FFFE000000000FFFE0
FFFE000000000FFFE0
FFFE000000000FFFE0
FFFE000000000FFFE0
FFFE000000000FFFE0
FFFE000000000FFFE0
FFFE000000000FFFE0
FFFE000000000FFFE0
FFFE000000000FFFE0
FFFE000000000FFFE0
FFFE000000000FFFE0
FFFE000000000FFFE0
FFFE000000000FFFE0
FFFE000000000FFFE0
FFFE000000000FFFE0
FFFE000000000FFFE0
FFFE000000000FFFE0
FFFE000000000FFFE0
FFFE000000000FFFE0
FFFE000000000FFFE0
FFFE000000000FFFE0
FFFE000000000FFFE0
FFFE000000000FFFE0
FFFE000000000FFFE0
FFFE000000000FFFE0
FFFE000000000FFFE0
FFFE000000000FFFE0
FFFE000000000FFFE0
FFFE000000000FFFE0
FFFE000000000FFFE0
FFFE000000000FFFE0
FFFE000000000FFFE0
FFFE000000000FFFE0
FFFE000000000FFFE0
FFFE000000000FFFE0
FFFE000000000FFFE0
FFFE000000000FFFE0
FFFE000000000FFFE0
FFFE000000000FFFE0
FFFE000000000FFFE0
FFFE000000000FFFE0
FFFE000000000FFFE0
FFFE000000000FFFE0
FFFE000000000FFFE0
FFFE000000000FFFE0
FFFC000000000FFFC0
FFF8000000000FFF80
ENDCHAR
STARTCHAR 0049
ENCODING 73
SWIDTH 226 0
DWIDTH 43 0
BBX 15 133 14 0
BITMAP
3FFE
FFFE
FFFE
FFFE
FFFE
FFFE
FFFE
FFFE
FFFE
FFFE
FFFE
FFFE
FFFE
FFFE
FFFE
FFFE
FFFE
FFFE
FFFE
FFFE
FFFE
FFFE
FFFE
FFFE
FFFE
FFFE
FFFE
FFFE
FFFE
FFFE
FFFE
FFFE
FFFE
FFFE
FFFE
FFFE
FFFE
FFFE
FFFE
FFFE
FFFE
FFFE
FFFE
FFFE
FFFE
FFFE
FFFE
FFFE
FFFE
FFFE
FFFE
FFFE
FFFE
FFFE
FFFE
FFFE
FFFE
FFFE
FFFE
FFFE
FFFE
FFFE
FFFE
FFFE
FFFE
FFFE
FFFE
FFFE
FFFE
FFFE
FFFE
FFFE
FFFE
FFFE
FFFE
FFFE
FFFE
FFFE
FFFE
FFFE
FFFE
FFFE
FFFE
FFFE
FFFE
FFFE
FFFE
FFFE
FFFE
FFFE
FFFE
FFFE
FFFE
FFFE
FFFE
FFFE
FFFE
FFFE
FFFE
FFFE
FFFE
FFFE
FFFE
FFFE
FFFE
FFFE
FFFE
FFFE
FFFE
FFFE
FFFE
FFFE
FFFE
FFFE
FFFE
FFFE
FFFE
FFFE
FFFE
FFFE
FFFE
FFFE
FFFE
FFFE
FFFE
FFFE
FFFE
FFFE
FFFE
FFFE
FFFE
FFFC
FFF8
ENDCHAR
STARTCHAR 004A
ENCODING 74
SWIDTH 226 0
DWIDTH 43 0
BBX 35 155 -6 -22
BITMAP
000003FFE0
00000FFFE0
00000FFFE0
00000FFFE0
00000FFFE0
00000FFFE0
00000FFFE0
00000FFFE0
00000FFFE0
00000FFFE0
00000FFFE0
00000FFFE0
00000FFFE0
00000FFFE0
00000FFFE0
00000FFFE0
00000FFFE0
00000FFFE0
00000FFFE0
00000FFFE0
00000FFFE0
00000FFFE0
00000FFFE0
00000FFFE0
00000FFFE0
00000FFFE0
00000FFFE0
00000FFFE0
00000FFFE0
00000FFFE0
00000FFFE0
00000FFFE0
00000FFFE0
00000FFFE0
00000FFFE0
00000FFFE0
00000FFFE0
00000FFFE0
00000FFFE0
00000FFFE0
00000FFFE0
00000FFFE0
00000FFFE0
00000FFFE0
00000FFFE0
00000FFFE0
00000FFFE0
00000FFFE0
00000FFFE0
00000FFFE0
00000FFFE0
00000FFFE0
00000FFFE0
00000FFFE0
00000FFFE0
00000FFFE0
00000FFFE0
00000FFFE0
00000FFFE0
00000FFFE0
00000FFFE0
00000FFFE0
00000FFFE0
00000FFFE0
00000FFFE0
00000FFFE0
00000FFFE0
00000FFFE0
00000FFFE0
00000FFFE0
00000FFFE0
00000FFFE0
00000FFFE0
00000FFFE0
00000FFFE0
00000FFFE0
00000FFFE0
00000FFFE0
00000FFFE0
00000FFFE0
00000FFFE0
00000FFFE0
00000FFFE0
00000FFFE0
00000FFFE0
00000FFFE0
00000FFFE0
00000FFFE0
00000FFFE0
00000FFFE0
00000FFFE0
00000FFFE0
00000FFFE0
00000FFFE0
00000FFFE0
00000FFFE0
00000FFFE0
00000FFFE0
00000FFFE0
00000FFFE0
00000FFFE0
00000FFFE0
00000FFFE0
00000FFFE0
00000FFFE0
00000FFFE0
00000FFFE0
00000FFFE0
00000FFFE0
00000FFFE0
00000FFFE0
00000FFFE0
00000FFFE0
00000FFFE0
00000FFFE0
00000FFFE0
00000FFFE0
00000FFFE0
00000FFFE0
00000FFFE0
00000FFFE0
00000FFFE0
00000FFFE0
00000FFFE0
00000FFFE0
00000FFFE0
00000FFFE0
00000FFFE0
00000FFFE0
00000FFFE0
00000FFFE0
00000FFFE0
00000FFFE0
00000FFFE0
00000FFFE0
00000FFFE0
00000FFFE0
00001FFFE0
00001FFFE0
00001FFFE0
00001FFFE0
00003FFFE0
00007FFFC0
0001FFFFC0
3FFFFFFFC0
FFFFFFFFC0
FFFFFFFF80
FFFFFFFF80
FFFFFFFF80
FFFFFFFF00
FFFFFFFE00
FFFFFFFC00
FFFFFFF800
FFFFFFE000
FFFFFE0000
ENDCHAR
STARTCHAR 004B
ENCODING 75
SWIDTH 457 0
DWIDTH 87 0
BBX 70 133 14 0
BITMAP
3FFE0000000001FFE0
FFFE0000000007FFC0
FFFE000000001FFFC0
FFFE000000003FFF80
FFFE000000003FFF80
FFFE000000007FFF00
FFFE000000007FFF00
FFFE00000000FFFE00
FFFE00000000FFFC00
FFFE00000001FFFC00
FFFE00000003FFF800
FFFE00000003FFF800
FFFE00000007FFF000
FFFE00000007FFF000
FFFE0000000FFFE000
FFFE0000000FFFE000
FFFE0000001FFFC000
FFFE0000001FFFC000
FFFE0000003FFF8000
FFFE0000003FFF8000
FFFE0000007FFF0000
FFFE0000007FFF0000
FFFE000000FFFE0000
FFFE000000FFFE0000
FFFE000001FFFC0000
FFFE000001FFFC0000
FFFE000003FFF80000
FFFE000003FFF00000
FFFE000007FFF00000
FFFE000007FFE00000
FFFE00000FFFE00000
FFFE00000FFFC00000
FFFE00001FFFC00000
FFFE00001FFF800000
FFFE00003FFF800000
FFFE00003FFF000000
FFFE00007FFF000000
FFFE00007FFE000000
FFFE0000FFFE000000
FFFE0000FFFC000000
FFFE0001FFFC000000
FFFE0001FFF8000000
FFFE0003FFF8000000
FFFE0007FFF0000000
FFFE0007FFF0000000
FFFE000FFFE0000000
FFFE000FFFE0000000
FFFE001FFFC0000000
FFFE001FFF80000000
FFFE003FFF80000000
FFFE003FFF00000000
FFFE007FFF00000000
FFFE007FFE00000000
FFFE00FFFE00000000
FFFE00FFFC00000000
FFFE01FFFC00000000
FFFE01FFF800000000
FFFE03FFF800000000
FFFE03FFF000000000
FFFE03FFF000000000
FFFE03FFE000000000
FFFE03FFE000000000
FFFE03FFC000000000
FFFE03FFC000000000
FFFE03FFE000000000
FFFE03FFE000000000
FFFE03FFF000000000
FFFE03FFF000000000
FFFE03FFF800000000
FFFE03FFF800000000
FFFE03FFFC00000000
FFFE01FFFC00000000
FFFE01FFFE00000000
FFFE00FFFE00000000
FFFE00FFFF00000000
FFFE007FFF00000000
FFFE007FFF80000000
FFFE003FFF80000000
FFFE003FFFC0000000
FFFE001FFFC0000000
FFFE001FFFE0000000
FFFE000FFFE0000000
FFFE000FFFF0000000
FFFE0007FFF0000000
FFFE0007FFF8000000
FFFE0003FFFC000000
FFFE0003FFFC000000
FFFE0001FFFE000000
FFFE0001FFFE000000
FFFE0000FFFF000000
FFFE0000FFFF000000
FFFE00007FFF800000
FFFE00007FFF800000
FFFE00003FFFC00000
FFFE00003FFFC00000
FFFE00001FFFE00000
FFFE00001FFFE00000
FFFE00000FFFF00000
FFFE00000FFFF00000
FFFE000007FFF80000
FFFE000007FFF80000
FFFE000003FFFC0000
FFFE000003FFFC0000
FFFE000001FFFE0000
FFFE000001FFFE0000
FFFE000000FFFF0000
FFFE000000FFFF0000
FFFE0000007FFF8000
FFFE0000007FFF8000
FFFE0000003FFFC000
FFFE0000003FFFC000
FFFE0000001FFFE000
FFFE0000001FFFE000
FFFE0000000FFFF000
FFFE0000000FFFF000
FFFE00000007FFF800
FFFE00000007FFF800
FFFE00000003FFFC00
FFFE00000003FFFE00
FFFE00000001FFFE00
FFFE00000001FFFF00
FFFE00000000FFFF00
FFFE00000000FFFF80
FFFE000000007FFF80
FFFE000000007FFFC0
FFFE000000003FFFC0
FFFE000000003FFFE0
FFFE000000001FFFE0
FFFE000000001FFFF0
FFFE000000000FFFF0
FFFE0000000007FFF8
FFFC0000000003FFF8
FFF800000000007FFC
ENDCHAR
STARTCHAR 004C
ENCODING 76
SWIDTH 389 0
DWIDTH 74 0
BBX 55 133 14 0
BITMAP
3FFE0000000000
FFFE0000000000
FFFE0000000000
FFFE0000000000
FFFE0000000000
FFFE0000000000
FFFE0000000000
FFFE0000000000
FFFE0000000000
FFFE0000000000
FFFE0000000000
FFFE0000000000
FFFE0000000000
FFFE0000000000
FFFE0000000000
FFFE0000000000
FFFE0000000000
FFFE0000000000
FFFE0000000000
FFFE0000000000
FFFE0000000000
FFFE0000000000
FFFE0000000000
FFFE0000000000
FFFE0000000000
FFFE0000000000
FFFE0000000000
FFFE0000000000
FFFE0000000000
FFFE0000000000
FFFE0000000000
FFFE0000000000
FFFE0000000000
FFFE0000000000
FFFE0000000000
FFFE0000000000
FFFE0000000000
FFFE0000000000
FFFE0000000000
FFFE0000000000
FFFE0000000000
FFFE0000000000
FFFE0000000000
FFFE0000000000
FFFE0000000000
FFFE0000000000
FFFE0000000000
FFFE0000000000
FFFE0000000000
FFFE0000000000
FFFE0000000000
FFFE0000000000
FFFE0000000000
FFFE0000000000
FFFE0000000000
FFFE0000000000
FFFE0000000000
FFFE0000000000
FFFE0000000000
FFFE0000000000
FFFE0000000000
FFFE0000000000
FFFE0000000000
FFFE0000000000
FFFE0000000000
FFFE0000000000
FFFE0000000000
FFFE0000000000
FFFE0000000000
FFFE0000000000
FFFE0000000000
FFFE0000000000
FFFE0000000000
FFFE0000000000
FFFE0000000000
FFFE0000000000
FFFE0000000000
FFFE0000000000
FFFE0000000000
FFFE0000000000
FFFE0000000000
FFFE0000000000
FFFE0000000000
FFFE0000000000
FFFE0000000000
FFFE0000000000
FFFE0000000000
FFFE0000000000
FFFE0000000000
FFFE0000000000
FFFE0000000000
FFFE0000000000
FFFE0000000000
FFFE0000000000
FFFE0000000000
FFFE0000000000
FFFE0000000000
FFFE0000000000
FFFE0000000000
FFFE0000000000
FFFE0000000000
FFFE0000000000
FFFE0000000000
FFFE0000000000
FFFE0000000000
FFFE0000000000
FFFE0000000000
FFFE0000000000
FFFE0000000000
FFFE0000000000
FFFE0000000000
FFFE0000000000
FFFE0000000000
FFFE0000000000
FFFE0000000000
FFFE0000000000
FFFE0000000000
FFFE0000000000
FFFE0000000000
FFFE0000000000
FFFE0000000000
FFFE0000000000
FFFFFFFFFFFFFE
FFFFFFFFFFFFFE
FFFFFFFFFFFFFE
FFFFFFFFFFFFFE
FFFFFFFFFFFFFE
FFFFFFFFFFFFFE
FFFFFFFFFFFFFE
FFFFFFFFFFFFFE
FFFFFFFFFFFFFE
FFFFFFFFFFFFFC
FFFFFFFFFFFFF8
ENDCHAR
STARTCHAR 004D
ENCODING 77
SWIDTH 642 0
DWIDTH 122 0
BBX 94 133 14 0
BITMAP
3FFFC000000000000001FFFC
FFFFC000000000000003FFFC
FFFFE000000000000007FFFC
FFFFE00000000000000FFFFC
FFFFE00000000000000FFFFC
FFFFF00000000000001FFFFC
FFFFF00000000000001FFFFC
FFFFF00000000000003FFFFC
FFFFF80000000000003FFFFC
FFFFF80000000000003FFFFC
FFFFFC0000000000007FFFFC
FFFFFC0000000000007FFFFC
FFFFFC000000000000FFFFFC
FFFFFE000000000000FFFFFC
FFFFFE000000000000FFFFFC
FFFFFF000000000001FFFFFC
FFFFFF000000000001FFFFFC
FFFFFF000000000003FFFFFC
FFFFFF800000000003FFFFFC
FFFFFF800000000007FFFFFC
FFFFFFC00000000007FFFFFC
FFFFFFC00000000007FFFFFC
FFFBFFC0000000000FFEFFFC
FFFBFFE0000000000FFEFFFC
FFF9FFE0000000001FFCFFFC
FFF9FFF0000000001FFCFFFC
FFF9FFF0000000003FFCFFFC
FFF8FFF0000000003FF8FFFC
FFF8FFF8000000003FF8FFFC
FFF87FF8000000007FF0FFFC
FFF87FFC000000007FF0FFFC
FFF87FFC00000000FFF0FFFC
FFF83FFC00000000FFE0FFFC
FFFC3FFE00000000FFE0FFFC
FFFC1FFE00000001FFC0FFFC
FFFC1FFE00000001FFC1FFFC
FFFC1FFF00000003FFC1FFFC
FFFC0FFF00000003FF81FFFC
FFFC0FFF80000007FF81FFFC
FFFC0FFF80000007FF01FFFC
FFFC07FF80000007FF01FFFC
FFFC07FFC000000FFE01FFFC
FFFC03FFC000000FFE01FFFC
FFFC03FFE000001FFE01FFFC
FFFC03FFE000001FFC01FFFC
FFFC01FFE000003FFC01FFFC
FFFC01FFF000003FF801FFFC
FFFC01FFF000003FF801FFFC
FFFC00FFF800007FF801FFFC
FFFC00FFF800007FF001FFFC
FFFC007FF80000FFF001FFFC
FFFC007FFC0000FFE001FFFC
FFFC007FFC0000FFE001FFFC
FFFC003FFE0001FFC001FFFC
FFFC003FFE0001FFC001FFFC
FFFC003FFE0003FFC001FFFC
FFFC001FFF0003FF8001FFFC
FFFC001FFF0007FF8001FFFC
FFFC000FFF8007FF0001FFFC
FFFC000FFF8007FF0001FFFC
FFFC000FFF800FFF0001FFFC
FFFC0007FFC00FFE0001FFFC
FFFE0007FFC01FFE0001FFFC
FFFE0003FFC01FFC0001FFFC
FFFE0003FFE01FFC0001FFFC
FFFE0003FFE01FFC0001FFFC
FFFE0001FFE03FF80001FFFC
FFFE0001FFE03FF80001FFFC
FFFE0001FFF03FF00001FFFC
FFFE0000FFF07FF00001FFFC
FFFE0000FFF07FE00001FFFC
FFFE00007FF07FE00001FFFC
FFFE00007FF87FE00001FFFC
FFFE00007FF8FFC00001FFFC
FFFE00003FF8FFC00001FFFC
FFFE00003FF8FF800001FFFC
FFFE00003FFCFF800001FFFC
FFFE00001FFDFF800001FFFC
FFFE00001FFFFF000001FFFC
FFFE00000FFFFF000001FFFC
FFFE00000FFFFE000001FFFC
FFFE00000FFFFE000001FFFC
FFFE000007FFFE000001FFFC
FFFE000007FFFC000001FFFC
FFFE000007FFFC000001FFFC
FFFE000003FFF8000001FFFC
FFFE000003FFF8000001FFFC
FFFE000001FFF0000001FFFC
FFFE000001FFF0000001FFFC
FFFE000001FFE0000001FFFC
FFFE000000FFE0000001FFFC
FFFE000000FF80000001FFFC
FFFE0000000000000001FFFC
FFFE0000000000000001FFFC
FFFE0000000000000001FFFC
FFFE0000000000000001FFFC
FFFE0000000000000001FFFC
FFFE0000000000000001FFFC
FFFE0000000000000001FFFC
FFFE0000000000000001FFFC
FFFE0000000000000001FFFC
FFFE0000000000000001FFFC
FFFE0000000000000001FFFC
FFFE0000000000000001FFFC
FFFE0000000000000001FFFC
FFFE0000000000000001FFFC
FFFE0000000000000001FFFC
FFFE0000000000000001FFFC
FFFE0000000000000001FFFC
FFFE0000000000000001FFFC
FFFE0000000000000001FFFC
FFFE0000000000000001FFFC
FFFE0000000000000001FFFC
FFFE0000000000000001FFFC
FFFE0000000000000001FFFC
FFFE0000000000000001FFFC
FFFE0000000000000001FFFC
FFFE0000000000000001FFFC
FFFE0000000000000001FFFC
FFFE0000000000000001FFFC
FFFE0000000000000001FFFC
FFFE0000000000000001FFFC
FFFE0000000000000001FFFC
FFFE0000000000000001FFFC
FFFE0000000000000001FFFC
FFFE0000000000000001FFFC
FFFE0000000000000001FFFC
FFFE0000000000000001FFFC
FFFE0000000000000001FFFC
FFFE0000000000000001FFFC
FFFE0000000000000001FFFC
FFFE0000000000000001FFF8
FFF80000000000000001FFF0
ENDCHAR
STARTCHAR 004E
ENCODING 78
SWIDTH 536 0
DWIDTH 102 0
BBX 74 133 14 0
BITMAP
3FFE000000000007FFC0
FFFF00000000001FFFC0
FFFF00000000001FFFC0
FFFF80000000001FFFC0
FFFF80000000001FFFC0
FFFF80000000001FFFC0
FFFFC0000000001FFFC0
FFFFC0000000001FFFC0
FFFFE0000000001FFFC0
FFFFE0000000001FFFC0
FFFFF0000000001FFFC0
FFFFF0000000001FFFC0
FFFFF0000000001FFFC0
FFFFF8000000001FFFC0
FFFFF8000000001FFFC0
FFFFFC000000001FFFC0
FFFFFC000000001FFFC0
FFFFFE000000001FFFC0
FFFFFE000000001FFFC0
FFFFFE000000001FFFC0
FFFFFF000000001FFFC0
FFFFFF000000001FFFC0
FFFFFF800000001FFFC0
FFF7FF800000001FFFC0
FFF3FFC00000001FFFC0
FFF3FFC00000001FFFC0
FFF1FFE00000001FFFC0
FFF9FFE00000001FFFC0
FFF9FFE00000001FFFC0
FFF8FFF00000001FFFC0
FFF8FFF00000001FFFC0
FFF8FFF80000001FFFC0
FFF87FF80000001FFFC0
FFF87FFC0000001FFFC0
FFF87FFC0000001FFFC0
FFF83FFC0000001FFFC0
FFFC3FFE0000001FFFC0
FFFC3FFE0000001FFFC0
FFFC1FFF0000001FFFC0
FFFC1FFF0000001FFFC0
FFFC1FFF8000001FFFC0
FFFC0FFF8000001FFFC0
FFFC0FFF8000001FFFC0
FFFC0FFFC000001FFFC0
FFFC07FFC000001FFFC0
FFFC07FFE000001FFFC0
FFFE07FFE000001FFFC0
FFFE03FFF000001FFFC0
FFFE03FFF000001FFFC0
FFFE01FFF000001FFFC0
FFFE01FFF800001FFFC0
FFFE01FFF800001FFFC0
FFFE00FFFC00001FFFC0
FFFE00FFFC00001FFFC0
FFFE00FFFE00001FFFC0
FFFE007FFE00001FFFC0
FFFE007FFE00001FFFC0
FFFE003FFF00001FFFC0
FFFE003FFF00001FFFC0
FFFE001FFF80001FFFC0
FFFE001FFF80001FFFC0
FFFE001FFFC0001FFFC0
FFFE000FFFC0001FFFC0
FFFE000FFFE0001FFFC0
FFFE0007FFE0001FFFC0
FFFE0007FFE0001FFFC0
FFFE0003FFF0001FFFC0
FFFE0003FFF0001FFFC0
FFFE0001FFF8001FFFC0
FFFE0001FFF8001FFFC0
FFFE0001FFFC001FFFC0
FFFE0000FFFC001FFFC0
FFFE0000FFFC001FFFC0
FFFE00007FFE001FFFC0
FFFE00007FFE001FFFC0
FFFE00003FFF001FFFC0
FFFE00003FFF001FFFC0
FFFE00001FFF801FFFC0
FFFE00001FFF801FFFC0
FFFE00001FFF801FFFC0
FFFE00000FFFC01FFFC0
FFFE00000FFFC01FFFC0
FFFE000007FFE01FFFC0
FFFE000007FFE01FFFC0
FFFE000003FFE01FFFC0
FFFE000003FFF01FFFC0
FFFE000003FFF01FFFC0
FFFE000001FFF01FFFC0
FFFE000001FFF80FFFC0
FFFE000000FFF80FFFC0
FFFE000000FFFC0FFFC0
FFFE0000007FFC0FFFC0
FFFE0000007FFC0FFFC0
FFFE0000003FFE0FFFC0
FFFE0000003FFE0FFFC0
FFFE0000003FFE0FFFC0
FFFE0000001FFF0FFFC0
FFFE0000001FFF07FFC0
FFFE0000000FFF87FFC0
FFFE0000000FFF87FFC0
FFFE00000007FF87FFC0
FFFE00000007FFC7FFC0
FFFE00000003FFC7FFC0
FFFE00000003FFC7FFC0
FFFE00000003FFE7FFC0
FFFE00000001FFE7FFC0
FFFE00000001FFF7FFC0
FFFE00000000FFF3FFC0
FFFE00000000FFF3FFC0
FFFE000000007FFBFFC0
FFFE000000007FFFFFC0
FFFE000000007FFFFFC0
FFFE000000003FFFFFC0
FFFE000000003FFFFFC0
FFFE000000001FFFFFC0
FFFE000000001FFFFFC0
FFFE000000000FFFFFC0
FFFE000000000FFFFFC0
FFFE0000000007FFFFC0
FFFE0000000007FFFFC0
FFFE0000000007FFFFC0
FFFE0000000003FFFFC0
FFFE0000000003FFFFC0
FFFE0000000001FFFFC0
FFFE0000000001FFFFC0
FFFE0000000000FFFFC0
FFFE0000000000FFFFC0
FFFE00000000007FFFC0
FFFE00000000007FFFC0
FFFE00000000007FFFC0
FFFE00000000003FFFC0
FFFC00000000003FFF80
FFF800000000001FFF00
ENDCHAR
STARTCHAR 004F
ENCODING 79
SWIDTH 484 0
DWIDTH 92 0
BBX 66 133 13 0
BITMAP
000FFFFFFFFFFC0000
007FFFFFFFFFFF8000
03FFFFFFFFFFFFE000
07FFFFFFFFFFFFF800
0FFFFFFFFFFFFFFC00
1FFFFFFFFFFFFFFE00
1FFFFFFFFFFFFFFE00
3FFFFFFFFFFFFFFF00
3FFFFFFFFFFFFFFF00
7FFFFFFFFFFFFFFF80
7FFFFFFFFFFFFFFF80
7FFFF0000003FFFF80
7FFFC0000000FFFF80
7FFF800000007FFF80
FFFF800000007FFF80
FFFF000000003FFFC0
FFFF000000003FFFC0
FFFF000000003FFFC0
FFFF000000003FFFC0
FFFF000000003FFFC0
FFFF000000003FFFC0
FFFF000000003FFFC0
FFFF000000003FFFC0
FFFF000000003FFFC0
FFFF000000003FFFC0
FFFF000000003FFFC0
FFFF000000003FFFC0
FFFF000000003FFFC0
FFFF000000003FFFC0
FFFF000000003FFFC0
FFFF000000003FFFC0
FFFF000000003FFFC0
FFFF000000003FFFC0
FFFF000000003FFFC0
FFFF000000003FFFC0
FFFF000000003FFFC0
FFFF000000003FFFC0
FFFF000000003FFFC0
FFFF000000003FFFC0
FFFF000000003FFFC0
FFFF000000003FFFC0
FFFF000000003FFFC0
FFFF000000003FFFC0
FFFF000000003FFFC0
FFFF000000003FFFC0
FFFF000000003FFFC0
FFFF000000003FFFC0
FFFF000000003FFFC0
FFFF000000003FFFC0
FFFF000000003FFFC0
FFFF000000003FFFC0
FFFF000000003FFFC0
FFFF000000003FFFC0
FFFF000000003FFFC0
FFFF000000003FFFC0
FFFF000000003FFFC0
FFFF000000003FFFC0
FFFF000000003FFFC0
FFFF000000003FFFC0
FFFF000000003FFFC0
FFFF000000003FFFC0
FFFF000000003FFFC0
FFFF000000003FFFC0
FFFF000000003FFFC0
FFFF000000003FFFC0
FFFF000000003FFFC0
FFFF000000003FFFC0
FFFF000000003FFFC0
FFFF000000003FFFC0
FFFF000000003FFFC0
FFFF000000003FFFC0
FFFF000000003FFFC0
FFFF000000003FFFC0
FFFF000000003FFFC0
FFFF000000003FFFC0
FFFF000000003FFFC0
FFFF000000003FFFC0
FFFF000000003FFFC0
FFFF000000003FFFC0
FFFF000000003FFFC0
FFFF000000003FFFC0
FFFF000000003FFFC0
FFFF000000003FFFC0
FFFF000000003FFFC0
FFFF000000003FFFC0
FFFF000000003FFFC0
FFFF000000003FFFC0
FFFF000000003FFFC0
FFFF000000003FFFC0
FFFF000000003FFFC0
FFFF000000003FFFC0
FFFF000000003FFFC0
FFFF000000003FFFC0
FFFF000000003FFFC0
FFFF000000003FFFC0
FFFF000000003FFFC0
FFFF000000003FFFC0
FFFF000000003FFFC0
FFFF000000003FFFC0
FFFF000000003FFFC0
FFFF000000003FFFC0
FFFF000000003FFFC0
FFFF000000003FFFC0
FFFF000000003FFFC0
FFFF000000003FFFC0
FFFF000000003FFFC0
FFFF000000003FFFC0
FFFF000000003FFFC0
FFFF000000003FFFC0
FFFF000000003FFFC0
FFFF000000003FFFC0
FFFF000000003FFFC0
FFFF000000003FFFC0
FFFF000000003FFFC0
FFFF000000003FFFC0
FFFF000000003FFFC0
FFFF000000003FFFC0
FFFF000000003FFFC0
FFFF000000007FFFC0
7FFF800000007FFF80
7FFFC0000000FFFF80
7FFFF0000003FFFF80
7FFFFFFFFFFFFFFF80
7FFFFFFFFFFFFFFF80
3FFFFFFFFFFFFFFF00
3FFFFFFFFFFFFFFF00
1FFFFFFFFFFFFFFE00
1FFFFFFFFFFFFFFE00
0FFFFFFFFFFFFFFC00
07FFFFFFFFFFFFF800
03FFFFFFFFFFFFF000
00FFFFFFFFFFFF8000
000FFFFFFFFFFC0000
ENDCHAR
STARTCHAR 0050
ENCODING 80
SWIDTH 447 0
DWIDTH 85 0
BBX 61 133 14 0
BITMAP
3FFFFFFFFFFF8000
FFFFFFFFFFFFF800
FFFFFFFFFFFFFE00
FFFFFFFFFFFFFF00
FFFFFFFFFFFFFFC0
FFFFFFFFFFFFFFC0
FFFFFFFFFFFFFFE0
FFFFFFFFFFFFFFE0
FFFFFFFFFFFFFFF0
FFFFFFFFFFFFFFF0
FFFFFFFFFFFFFFF0
FFFE0000007FFFF8
FFFE0000000FFFF8
FFFE00000007FFF8
FFFE00000007FFF8
FFFE00000007FFF8
FFFE00000003FFF8
FFFE00000003FFF8
FFFE00000003FFF8
FFFE00000003FFF8
FFFE00000003FFF8
FFFE00000003FFF8
FFFE00000003FFF8
FFFE00000003FFF8
FFFE00000003FFF8
FFFE00000003FFF8
FFFE00000003FFF8
FFFE00000003FFF8
FFFE00000003FFF8
FFFE00000003FFF8
FFFE00000003FFF8
FFFE00000003FFF8
FFFE00000003FFF8
FFFE00000003FFF8
FFFE00000003FFF8
FFFE00000003FFF8
FFFE00000003FFF8
FFFE00000003FFF8
FFFE00000003FFF8
FFFE00000003FFF8
FFFE00000003FFF8
FFFE00000003FFF8
FFFE00000003FFF8
FFFE00000003FFF8
FFFE00000003FFF8
FFFE00000003FFF8
FFFE00000003FFF8
FFFE00000003FFF8
FFFE00000003FFF8
FFFE00000003FFF8
FFFE00000003FFF8
FFFE00000003FFF8
FFFE00000003FFF8
FFFE00000003FFF8
FFFE00000003FFF8
FFFE00000003FFF8
FFFE00000003FFF8
FFFE00000003FFF8
FFFE00000003FFF8
FFFE00000003FFF8
FFFE00000003FFF8
FFFE00000007FFF8
FFFE00000007FFF8
FFFE00000007FFF8
FFFE0000000FFFF8
FFFE0000007FFFF8
FFFE03FFFFFFFFF0
FFFE03FFFFFFFFF0
FFFE03FFFFFFFFF0
FFFE03FFFFFFFFE0
FFFE03FFFFFFFFE0
FFFE03FFFFFFFFC0
FFFE03FFFFFFFFC0
FFFE01FFFFFFFF80
FFFE01FFFFFFFE00
FFFE01FFFFFFF800
FFFE00FFFFFF8000
FFFE000000000000
FFFE000000000000
FFFE000000000000
FFFE000000000000
FFFE000000000000
FFFE000000000000
FFFE000000000000
FFFE000000000000
FFFE000000000000
FFFE000000000000
FFFE000000000000
FFFE000000000000
FFFE000000000000
FFFE000000000000
FFFE000000000000
FFFE000000000000
FFFE000000000000
FFFE000000000000
FFFE000000000000
FFFE000000000000
FFFE000000000000
FFFE000000000000
FFFE000000000000
FFFE000000000000
FFFE000000000000
FFFE000000000000
FFFE000000000000
FFFE000000000000
FFFE000000000000
FFFE000000000000
FFFE000000000000
FFFE000000000000
FFFE000000000000
FFFE000000000000
FFFE000000000000
FFFE000000000000
FFFE000000000000
FFFE000000000000
FFFE000000000000
FFFE000000000000
FFFE000000000000
FFFE000000000000
FFFE000000000000
FFFE000000000000
FFFE000000000000
FFFE000000000000
FFFE000000000000
FFFE000000000000
FFFE000000000000
FFFE000000000000
FFFE000000000000
FFFE000000000000
FFFE000000000000
FFFE000000000000
FFFC000000000000
FFF8000000000000
ENDCHAR
STARTCHAR 0051
ENCODING 81
SWIDTH 484 0
DWIDTH 92 0
BBX 66 156 13 -23
BITMAP
000FFFFFFFFFFC0000
007FFFFFFFFFFF8000
03FFFFFFFFFFFFE000
07FFFFFFFFFFFFF800
0FFFFFFFFFFFFFFC00
1FFFFFFFFFFFFFFE00
1FFFFFFFFFFFFFFE00
3FFFFFFFFFFFFFFF00
3FFFFFFFFFFFFFFF00
7FFFFFFFFFFFFFFF80
7FFFFFFFFFFFFFFF80
7FFFF0000003FFFF80
7FFFC0000000FFFF80
7FFF800000007FFF80
FFFF800000007FFF80
FFFF000000003FFFC0
FFFF000000003FFFC0
FFFF000000003FFFC0
FFFF000000003FFFC0
FFFF000000003FFFC0
FFFF000000003FFFC0
FFFF000000003FFFC0
FFFF000000003FFFC0
FFFF000000003FFFC0
FFFF000000003FFFC0
FFFF000000003FFFC0
FFFF000000003FFFC0
FFFF000000003FFFC0
FFFF000000003FFFC0
FFFF000000003FFFC0
FFFF000000003FFFC0
FFFF000000003FFFC0
FFFF000000003FFFC0
FFFF000000003FFFC0
FFFF000000003FFFC0
FFFF000000003FFFC0
FFFF000000003FFFC0
FFFF000000003FFFC0
FFFF000000003FFFC0
FFFF000000003FFFC0
FFFF000000003FFFC0
FFFF000000003FFFC0
FFFF000000003FFFC0
FFFF000000003FFFC0
FFFF000000003FFFC0
FFFF000000003FFFC0
FFFF000000003FFFC0
FFFF000000003FFFC0
FFFF000000003FFFC0
FFFF000000003FFFC0
FFFF000000003FFFC0
FFFF000000003FFFC0
FFFF000000003FFFC0
FFFF000000003FFFC0
FFFF000000003FFFC0
FFFF000000003FFFC0
FFFF000000003FFFC0
FFFF000000003FFFC0
FFFF000000003FFFC0
FFFF000000003FFFC0
FFFF000000003FFFC0
FFFF000000003FFFC0
FFFF000000003FFFC0
FFFF000000003FFFC0
FFFF000000003FFFC0
FFFF000000003FFFC0
FFFF000000003FFFC0
FFFF000000003FFFC0
FFFF000000003FFFC0
FFFF000000003FFFC0
FFFF000000003FFFC0
FFFF000000003FFFC0
FFFF000000003FFFC0
FFFF000000003FFFC0
FFFF000000003FFFC0
FFFF000000003FFFC0
FFFF000000003FFFC0
FFFF000000003FFFC0
FFFF000000003FFFC0
FFFF000000003FFFC0
FFFF000000003FFFC0
FFFF000000003FFFC0
FFFF000000003FFFC0
FFFF000000003FFFC0
FFFF000000003FFFC0
FFFF000000003FFFC0
FFFF000000003FFFC0
FFFF000000003FFFC0
FFFF000000003FFFC0
FFFF000000003FFFC0
FFFF000000003FFFC0
FFFF000000003FFFC0
FFFF000000003FFFC0
FFFF000000003FFFC0
FFFF000000003FFFC0
FFFF000000003FFFC0
FFFF000000003FFFC0
FFFF000000003FFFC0
FFFF000000003FFFC0
FFFF000000003FFFC0
FFFF000000003FFFC0
FFFF000000003FFFC0
FFFF000000003FFFC0
FFFF000000003FFFC0
FFFF000000003FFFC0
FFFF000000003FFFC0
FFFF000000003FFFC0
FFFF000000003FFFC0
FFFF000000003FFFC0
FFFF000000003FFFC0
FFFF000000003FFFC0
FFFF000000003FFFC0
FFFF000000003FFFC0
FFFF000000003FFFC0
FFFF000000003FFFC0
FFFF000000003FFFC0
FFFF000000003FFFC0
FFFF000000003FFFC0
FFFF000000007FFFC0
7FFF800000007FFF80
7FFFC0000000FFFF80
7FFFF0000003FFFF80
7FFFFFFFFFFFFFFF80
7FFFFFFFFFFFFFFF80
3FFFFFFFFFFFFFFF00
3FFFFFFFFFFFFFFF00
1FFFFFFFFFFFFFFE00
1FFFFFFFFFFFFFFE00
0FFFFFFFFFFFFFFC00
07FFFFFFFFFFFFF800
03FFFFFFFFFFFFF000
00FFFFFFFFFFFF8000
000FFFFFFFFFFC0000
0000003FF800000000
0000003FF800000000
0000003FF800000000
0000003FF800000000
0000003FF800000000
0000003FF800000000
0000003FF800000000
0000003FFC00000000
0000003FFC00000000
0000003FFC00000000
0000003FFE00000000
0000003FFF80000000
0000001FFFFFFC0000
0000001FFFFFFC0000
0000001FFFFFFC0000
0000000FFFFFFC0000
0000000FFFFFFC0000
00000007FFFFFC0000
00000003FFFFFC0000
00000001FFFFFC0000
00000000FFFFFC0000
000000003FFFF80000
0000000007FFF00000
ENDCHAR
STARTCHAR 0052
ENCODING 82
SWIDTH 468 0
DWIDTH 89 0
BBX 67 133 14 0
BITMAP
3FFFFFFFFFFFC00000
FFFFFFFFFFFFFC0000
FFFFFFFFFFFFFF0000
FFFFFFFFFFFFFF8000
FFFFFFFFFFFFFFC000
FFFFFFFFFFFFFFE000
FFFFFFFFFFFFFFF000
FFFFFFFFFFFFFFF000
FFFFFFFFFFFFFFF800
FFFFFFFFFFFFFFF800
FFFFFFFFFFFFFFF800
FFFE0000003FFFFC00
FFFE00000007FFFC00
FFFE00000007FFFC00
FFFE00000003FFFC00
FFFE00000003FFFC00
FFFE00000001FFFC00
FFFE00000001FFFC00
FFFE00000001FFFC00
FFFE00000001FFFC00
FFFE00000001FFFC00
FFFE00000001FFFC00
FFFE00000001FFFC00
FFFE00000001FFFC00
FFFE00000001FFFC00
FFFE00000001FFFC00
FFFE00000001FFFC00
FFFE00000001FFFC00
FFFE00000001FFFC00
FFFE00000001FFFC00
FFFE00000001FFFC00
FFFE00000001FFFC00
FFFE00000001FFFC00
FFFE00000001FFFC00
FFFE00000001FFFC00
FFFE00000001FFFC00
FFFE00000001FFFC00
FFFE00000001FFFC00
FFFE00000001FFFC00
FFFE00000001FFFC00
FFFE00000001FFFC00
FFFE00000001FFFC00
FFFE00000001FFFC00
FFFE00000001FFFC00
FFFE00000001FFFC00
FFFE00000001FFFC00
FFFE00000001FFFC00
FFFE00000001FFFC00
FFFE00000001FFFC00
FFFE00000001FFFC00
FFFE00000001FFFC00
FFFE00000001FFFC00
FFFE00000001FFFC00
FFFE00000001FFFC00
FFFE00000003FFFC00
FFFE00000003FFFC00
FFFE00000007FFFC00
FFFE00000007FFFC00
FFFE0000003FFFFC00
FFFE03FFFFFFFFF800
FFFE03FFFFFFFFF800
FFFE03FFFFFFFFF800
FFFE03FFFFFFFFF000
FFFE03FFFFFFFFF000
FFFE03FFFFFFFFE000
FFFE03FFFFFFFFC000
FFFE01FFFFFFFF8000
FFFE01FFFFFFFF0000
FFFE01FFFFFFFC0000
FFFE00FFFFFFC00000
FFFE00007FFF000000
FFFE00007FFF000000
FFFE00003FFF800000
FFFE00003FFF800000
FFFE00003FFF800000
FFFE00001FFFC00000
FFFE00001FFFC00000
FFFE00001FFFC00000
FFFE00000FFFE00000
FFFE00000FFFE00000
FFFE00000FFFE00000
FFFE00000FFFE00000
FFFE000007FFF00000
FFFE000007FFF00000
FFFE000007FFF00000
FFFE000003FFF80000
FFFE000003FFF80000
FFFE000003FFF80000
FFFE000001FFFC0000
FFFE000001FFFC0000
FFFE000001FFFC0000
FFFE000000FFFE0000
FFFE000000FFFE0000
FFFE000000FFFE0000
FFFE000000FFFE0000
FFFE0000007FFF0000
FFFE0000007FFF0000
FFFE0000007FFF0000
FFFE0000003FFF8000
FFFE0000003FFF8000
FFFE0000003FFF8000
FFFE0000001FFFC000
FFFE0000001FFFC000
FFFE0000001FFFC000
FFFE0000001FFFC000
FFFE0000000FFFE000
FFFE0000000FFFE000
FFFE0000000FFFE000
FFFE00000007FFF000
FFFE00000007FFF000
FFFE00000007FFF000
FFFE00000003FFF800
FFFE00000003FFF800
FFFE00000003FFF800
FFFE00000001FFF800
FFFE00000001FFFC00
FFFE00000001FFFC00
FFFE00000001FFFC00
FFFE00000000FFFE00
FFFE00000000FFFE00
FFFE00000000FFFE00
FFFE000000007FFF00
FFFE000000007FFF00
FFFE000000007FFF00
FFFE000000003FFF80
FFFE000000003FFF80
FFFE000000003FFF80
FFFE000000003FFF80
FFFE000000001FFFC0
FFFE000000001FFFC0
FFFE000000000FFFC0
FFFC000000000FFFE0
FFF80000000003FFE0
ENDCHAR
STARTCHAR 0053
ENCODING 83
SWIDTH 394 0
DWIDTH 75 0
BBX 53 133 11 0
BITMAP
000FFFFFFFF800
00FFFFFFFFFE00
03FFFFFFFFFF80
07FFFFFFFFFF80
0FFFFFFFFFFFC0
1FFFFFFFFFFFC0
3FFFFFFFFFFFE0
3FFFFFFFFFFFE0
3FFFFFFFFFFFF0
7FFFFFFFFFFFF0
7FFFFFFFFFFFF0
7FFFF000000000
7FFFC000000000
FFFF8000000000
FFFF0000000000
FFFF0000000000
FFFF0000000000
FFFF0000000000
FFFF0000000000
FFFE0000000000
FFFE0000000000
FFFE0000000000
FFFE0000000000
FFFE0000000000
FFFE0000000000
FFFE0000000000
FFFE0000000000
FFFE0000000000
FFFE0000000000
FFFE0000000000
FFFE0000000000
FFFE0000000000
FFFE0000000000
FFFE0000000000
FFFE0000000000
FFFE0000000000
FFFE0000000000
FFFE0000000000
FFFE0000000000
FFFE0000000000
FFFE0000000000
FFFE0000000000
FFFE0000000000
FFFE0000000000
FFFE0000000000
FFFE0000000000
FFFE0000000000
FFFE0000000000
FFFE0000000000
FFFE0000000000
FFFE0000000000
FFFF0000000000
FFFF0000000000
FFFF0000000000
FFFF0000000000
FFFF0000000000
FFFF8000000000
7FFFC000000000
7FFFF000000000
7FFFFFFFFF8000
7FFFFFFFFFF800
3FFFFFFFFFFE00
3FFFFFFFFFFF00
3FFFFFFFFFFF80
1FFFFFFFFFFFC0
0FFFFFFFFFFFE0
07FFFFFFFFFFE0
03FFFFFFFFFFE0
00FFFFFFFFFFF0
000FFFFFFFFFF0
000000007FFFF0
000000001FFFF0
000000000FFFF8
0000000007FFF8
0000000007FFF8
0000000007FFF8
0000000007FFF8
0000000007FFF8
0000000003FFF8
0000000003FFF8
0000000003FFF8
0000000003FFF8
0000000003FFF8
0000000003FFF8
0000000003FFF8
0000000003FFF8
0000000003FFF8
0000000003FFF8
0000000003FFF8
0000000003FFF8
0000000003FFF8
0000000003FFF8
0000000003FFF8
0000000003FFF8
0000000003FFF8
0000000003FFF8
0000000003FFF8
0000000003FFF8
0000000003FFF8
0000000003FFF8
0000000003FFF8
0000000003FFF8
0000000003FFF8
0000000003FFF8
0000000003FFF8
0000000003FFF8
0000000003FFF8
0000000003FFF8
0000000003FFF8
0000000003FFF8
0000000003FFF8
0000000003FFF8
0000000003FFF8
0000000003FFF8
0000000007FFF8
0000000007FFF8
0000000007FFF8
0000000007FFF8
0000000007FFF8
000000000FFFF8
000000001FFFF0
000000007FFFF0
FFFFFFFFFFFFF0
7FFFFFFFFFFFF0
7FFFFFFFFFFFE0
7FFFFFFFFFFFE0
7FFFFFFFFFFFE0
3FFFFFFFFFFFC0
3FFFFFFFFFFF80
1FFFFFFFFFFF00
0FFFFFFFFFFE00
07FFFFFFFFF800
00FFFFFFFF8000
ENDCHAR
STARTCHAR 0054
ENCODING 84
SWIDTH 421 0
DWIDTH 80 0
BBX 71 133 5 0
BITMAP
3FFFFFFFFFFFFFFFFE
7FFFFFFFFFFFFFFFFE
FFFFFFFFFFFFFFFFFE
FFFFFFFFFFFFFFFFFE
FFFFFFFFFFFFFFFFFE
FFFFFFFFFFFFFFFFFE
FFFFFFFFFFFFFFFFFE
FFFFFFFFFFFFFFFFFE
FFFFFFFFFFFFFFFFFC
FFFFFFFFFFFFFFFFFC
FFFFFFFFFFFFFFFFF8
0000001FFFE0000000
0000001FFFE0000000
0000001FFFE0000000
0000001FFFE0000000
0000001FFFE0000000
0000001FFFE0000000
0000001FFFE0000000
0000001FFFE0000000
0000001FFFE0000000
0000001FFFE0000000
0000001FFFE0000000
0000001FFFE0000000
0000001FFFE0000000
0000001FFFE0000000
0000001FFFE0000000
0000001FFFE0000000
0000001FFFE0000000
0000001FFFE0000000
0000001FFFE0000000
0000001FFFE0000000
0000001FFFE0000000
0000001FFFE0000000
0000001FFFE0000000
0000001FFFE0000000
0000001FFFE0000000
0000001FFFE0000000
0000001FFFE0000000
0000001FFFE0000000
0000001FFFE0000000
0000001FFFE0000000
0000001FFFE0000000
0000001FFFE0000000
0000001FFFE0000000
0000001FFFE0000000
0000001FFFE0000000
0000001FFFE0000000
0000001FFFE0000000
0000001FFFE0000000
0000001FFFE0000000
0000001FFFE0000000
0000001FFFE0000000
0000001FFFE0000000
0000001FFFE0000000
0000001FFFE0000000
0000001FFFE0000000
0000001FFFE0000000
0000001FFFE0000000
0000001FFFE0000000
0000001FFFE0000000
0000001FFFE0000000
0000001FFFE0000000
0000001FFFE0000000
0000001FFFE0000000
0000001FFFE0000000
0000001FFFE0000000
0000001FFFE0000000
0000001FFFE0000000
0000001FFFE0000000
0000001FFFE0000000
0000001FFFE0000000
0000001FFFE0000000
0000001FFFE0000000
0000001FFFE0000000
0000001FFFE0000000
0000001FFFE0000000
0000001FFFE0000000
0000001FFFE0000000
0000001FFFE0000000
0000001FFFE0000000
0000001FFFE0000000
0000001FFFE0000000
0000001FFFE0000000
0000001FFFE0000000
0000001FFFE0000000
0000001FFFE0000000
0000001FFFE0000000
0000001FFFE0000000
0000001FFFE0000000
0000001FFFE0000000
0000001FFFE0000000
0000001FFFE0000000
0000001FFFE0000000
0000001FFFE0000000
0000001FFFE0000000
0000001FFFE0000000
0000001FFFE0000000
0000001FFFE0000000
0000001FFFE0000000
0000001FFFE0000000
0000001FFFE0000000
0000001FFFE0000000
0000001FFFE0000000
0000001FFFE0000000
0000001FFFE0000000
0000001FFFE0000000
0000001FFFE0000000
0000001FFFE0000000
0000001FFFE0000000
0000001FFFE0000000
0000001FFFE0000000
0000001FFFE0000000
0000001FFFE0000000
0000001FFFE0000000
0000001FFFE0000000
0000001FFFE0000000
0000001FFFE0000000
0000001FFFE0000000
0000001FFFE0000000
0000001FFFE0000000
0000001FFFE0000000
0000001FFFE0000000
0000001FFFE0000000
0000001FFFE0000000
0000001FFFE0000000
0000001FFFE0000000
0000001FFFE0000000
0000001FFFE0000000
0000001FFFE0000000
0000001FFFE0000000
0000001FFFC0000000
0000001FFFC0000000
0000001FFF80000000
ENDCHAR
STARTCHAR 0055
ENCODING 85
SWIDTH 489 0
DWIDTH 93 0
BBX 67 133 13 0
BITMAP
3FFF0000000003FFE0
7FFF000000000FFFE0
7FFF000000000FFFE0
7FFF000000000FFFE0
FFFF000000000FFFE0
FFFF000000000FFFE0
FFFF000000000FFFE0
FFFF000000000FFFE0
FFFF000000000FFFE0
FFFF000000000FFFE0
FFFF000000000FFFE0
FFFF000000000FFFE0
FFFF000000000FFFE0
FFFF000000000FFFE0
FFFF000000000FFFE0
FFFF000000000FFFE0
FFFF000000000FFFE0
FFFF000000000FFFE0
FFFF000000000FFFE0
FFFF000000000FFFE0
FFFF000000000FFFE0
FFFF000000000FFFE0
FFFF000000000FFFE0
FFFF000000000FFFE0
FFFF000000000FFFE0
FFFF000000000FFFE0
FFFF000000000FFFE0
FFFF000000000FFFE0
FFFF000000000FFFE0
FFFF000000000FFFE0
FFFF000000000FFFE0
FFFF000000000FFFE0
FFFF000000000FFFE0
FFFF000000000FFFE0
FFFF000000000FFFE0
FFFF000000000FFFE0
FFFF000000000FFFE0
FFFF000000000FFFE0
FFFF000000000FFFE0
FFFF000000000FFFE0
FFFF000000000FFFE0
FFFF000000000FFFE0
FFFF000000000FFFE0
FFFF000000000FFFE0
FFFF000000000FFFE0
FFFF000000000FFFE0
FFFF000000000FFFE0
FFFF000000000FFFE0
FFFF000000000FFFE0
FFFF000000000FFFE0
FFFF000000000FFFE0
FFFF000000000FFFE0
FFFF000000000FFFE0
FFFF000000000FFFE0
FFFF000000000FFFE0
FFFF000000000FFFE0
FFFF000000000FFFE0
FFFF000000000FFFE0
FFFF000000000FFFE0
FFFF000000000FFFE0
FFFF000000000FFFE0
FFFF000000000FFFE0
FFFF000000000FFFE0
FFFF000000000FFFE0
FFFF000000000FFFE0
FFFF000000000FFFE0
FFFF000000000FFFE0
FFFF000000000FFFE0
FFFF000000000FFFE0
FFFF000000000FFFE0
FFFF000000000FFFE0
FFFF000000000FFFE0
FFFF000000000FFFE0
FFFF000000000FFFE0
FFFF000000000FFFE0
FFFF000000000FFFE0
FFFF000000000FFFE0
FFFF000000000FFFE0
FFFF000000000FFFE0
FFFF000000000FFFE0
FFFF000000000FFFE0
FFFF000000000FFFE0
FFFF000000000FFFE0
FFFF000000000FFFE0
FFFF000000000FFFE0
FFFF000000000FFFE0
FFFF000000000FFFE0
FFFF000000000FFFE0
FFFF000000000FFFE0
FFFF000000000FFFE0
FFFF000000000FFFE0
FFFF000000000FFFE0
FFFF000000000FFFE0
FFFF000000000FFFE0
FFFF000000000FFFE0
FFFF000000000FFFE0
FFFF000000000FFFE0
FFFF000000000FFFE0
FFFF000000000FFFE0
FFFF000000000FFFE0
FFFF000000000FFFE0
FFFF000000000FFFE0
FFFF000000000FFFE0
FFFF000000000FFFE0
FFFF000000000FFFE0
FFFF000000000FFFE0
FFFF000000000FFFE0
FFFF000000000FFFE0
FFFF000000000FFFE0
FFFF000000000FFFE0
FFFF000000000FFFE0
FFFF000000000FFFE0
FFFF000000000FFFE0
FFFF000000001FFFE0
FFFF000000001FFFE0
FFFF000000001FFFE0
7FFF000000001FFFE0
7FFF000000001FFFE0
7FFF800000001FFFE0
7FFF800000003FFFE0
7FFFC00000007FFFC0
7FFFF0000001FFFFC0
7FFFFFFFFFFFFFFFC0
3FFFFFFFFFFFFFFFC0
3FFFFFFFFFFFFFFF80
3FFFFFFFFFFFFFFF80
1FFFFFFFFFFFFFFF80
1FFFFFFFFFFFFFFF00
0FFFFFFFFFFFFFFE00
07FFFFFFFFFFFFFC00
01FFFFFFFFFFFFF800
007FFFFFFFFFFFE000
000FFFFFFFFFFE0000
ENDCHAR
STARTCHAR 0056
ENCODING 86
SWIDTH 452 0
DWIDTH 86 0
BBX 75 133 6 0
BITMAP
7FFC000000000003FFE0
FFFC000000000007FFE0
FFFE00000000000FFFC0
FFFE00000000001FFFC0
FFFE00000000001FFFC0
FFFE00000000001FFFC0
FFFF00000000001FFFC0
FFFF00000000003FFF80
7FFF00000000003FFF80
7FFF00000000003FFF80
7FFF00000000003FFF80
7FFF80000000003FFF00
7FFF80000000007FFF00
3FFF80000000007FFF00
3FFF80000000007FFF00
3FFF80000000007FFF00
3FFFC0000000007FFE00
1FFFC000000000FFFE00
1FFFC000000000FFFE00
1FFFC000000000FFFE00
1FFFE000000000FFFE00
1FFFE000000000FFFC00
0FFFE000000001FFFC00
0FFFE000000001FFFC00
0FFFE000000001FFFC00
0FFFF000000001FFF800
0FFFF000000001FFF800
07FFF000000003FFF800
07FFF000000003FFF800
07FFF000000003FFF800
07FFF800000003FFF000
03FFF800000003FFF000
03FFF800000007FFF000
03FFF800000007FFF000
03FFFC00000007FFF000
03FFFC00000007FFE000
01FFFC00000007FFE000
01FFFC0000000FFFE000
01FFFC0000000FFFE000
01FFFE0000000FFFC000
01FFFE0000000FFFC000
00FFFE0000000FFFC000
00FFFE0000001FFFC000
00FFFF0000001FFFC000
00FFFF0000001FFF8000
007FFF0000001FFF8000
007FFF0000001FFF8000
007FFF0000003FFF8000
007FFF8000003FFF8000
007FFF8000003FFF0000
003FFF8000003FFF0000
003FFF8000003FFF0000
003FFF8000007FFF0000
003FFFC000007FFF0000
003FFFC000007FFE0000
001FFFC000007FFE0000
001FFFC000007FFE0000
001FFFE00000FFFE0000
001FFFE00000FFFC0000
000FFFE00000FFFC0000
000FFFE00000FFFC0000
000FFFE00000FFFC0000
000FFFF00001FFFC0000
000FFFF00001FFF80000
0007FFF00001FFF80000
0007FFF00001FFF80000
0007FFF00001FFF80000
0007FFF80003FFF80000
0007FFF80003FFF00000
0003FFF80003FFF00000
0003FFF80003FFF00000
0003FFFC0003FFF00000
0003FFFC0007FFE00000
0001FFFC0007FFE00000
0001FFFC0007FFE00000
0001FFFC0007FFE00000
0001FFFE0007FFE00000
0001FFFE000FFFC00000
0000FFFE000FFFC00000
0000FFFE000FFFC00000
0000FFFE000FFFC00000
0000FFFF000FFFC00000
0000FFFF001FFF800000
00007FFF001FFF800000
00007FFF001FFF800000
00007FFF801FFF800000
00007FFF801FFF000000
00003FFF803FFF000000
00003FFF803FFF000000
00003FFF803FFF000000
00003FFFC03FFF000000
00003FFFC03FFE000000
00001FFFC07FFE000000
00001FFFC07FFE000000
00001FFFC07FFE000000
00001FFFE07FFE000000
00001FFFE07FFC000000
00000FFFE07FFC000000
00000FFFE0FFFC000000
00000FFFE0FFFC000000
00000FFFE0FFF8000000
000007FFE0FFF8000000
000007FFE0FFF8000000
000007FFF0FFF8000000
000007FFF0FFF8000000
000007FFF0FFF0000000
000003FFF1FFF0000000
000003FFF1FFF0000000
000003FFF1FFF0000000
000003FFF1FFF0000000
000003FFF1FFE0000000
000001FFF9FFE0000000
000001FFF9FFE0000000
000001FFF9FFE0000000
000001FFFBFFC0000000
000000FFFBFFC0000000
000000FFFFFFC0000000
000000FFFFFFC0000000
000000FFFFFFC0000000
000000FFFFFF80000000
0000007FFFFF80000000
0000007FFFFF80000000
0000007FFFFF80000000
0000007FFFFF80000000
0000007FFFFF00000000
0000003FFFFF00000000
0000003FFFFF00000000
0000003FFFFF00000000
0000003FFFFE00000000
0000003FFFFE00000000
0000001FFFFE00000000
0000001FFFFC00000000
0000001FFFF800000000
ENDCHAR
STARTCHAR 0057
ENCODING 87
SWIDTH 710 0
DWIDTH 135 0
BBX 122 133 7 -1
BITMAP
3FFC000000000000000000000007FFC0
FFFE00000000000000000000000FFFC0
FFFE00000000000000000000001FFFC0
FFFE00000000000000000000001FFF80
FFFE00000000000000000000003FFF80
FFFE00000000000000000000003FFF80
FFFE00000000000000000000003FFF80
7FFF00000000000000000000003FFF80
7FFF00000000000000000000003FFF80
7FFF00000000000000000000007FFF00
7FFF00000000000000000000007FFF00
7FFF00000000000000000000007FFF00
3FFF00000000000000000000007FFF00
3FFF80000000000000000000007FFF00
3FFF80000000000000000000007FFE00
3FFF80000000000000000000007FFE00
3FFF8000000000000000000000FFFE00
3FFF8000000000000000000000FFFE00
1FFF8000000000000000000000FFFE00
1FFFC000000000000000000000FFFE00
1FFFC000000000000000000000FFFC00
1FFFC000000000000000000000FFFC00
1FFFC000000000000000000001FFFC00
0FFFC000000000000000000001FFFC00
0FFFE000000000000000000001FFFC00
0FFFE000000000000000000001FFF800
0FFFE000000000000000000001FFF800
0FFFE000000000000000000001FFF800
0FFFE000000000000000000003FFF800
07FFE000000000000000000003FFF800
07FFF000000000000000000003FFF800
07FFF000000000000000000003FFF000
07FFF000000000000000000003FFF000
07FFF000000000000000000003FFF000
03FFF000000000000000000007FFF000
03FFF000000000000000000007FFF000
03FFF8000000007FF800000007FFF000
03FFF800000001FFF800000007FFE000
03FFF800000001FFF800000007FFE000
03FFF800000003FFFC00000007FFE000
01FFF800000003FFFC0000000FFFE000
01FFF800000003FFFC0000000FFFE000
01FFFC00000003FFFC0000000FFFC000
01FFFC00000007FFFE0000000FFFC000
01FFFC00000007FFFE0000000FFFC000
00FFFC00000007FFFE0000000FFFC000
00FFFC0000000FFFFE0000001FFFC000
00FFFC0000000FFFFF0000001FFFC000
00FFFE0000000FFFFF0000001FFF8000
00FFFE0000000FFFFF0000001FFF8000
00FFFE0000001FFFFF0000001FFF8000
007FFE0000001FFFFF0000001FFF8000
007FFE0000001FFFFF8000003FFF8000
007FFE0000001FFFFF8000003FFF0000
007FFF0000003FFFFF8000003FFF0000
007FFF0000003FF3FF8000003FFF0000
003FFF0000003FF3FFC000003FFF0000
003FFF0000007FF3FFC000003FFF0000
003FFF0000007FF3FFC000007FFF0000
003FFF8000007FF3FFC000007FFE0000
003FFF8000007FF1FFE000007FFE0000
003FFF800000FFE1FFE000007FFE0000
001FFF800000FFE1FFE000007FFE0000
001FFF800000FFE1FFE000007FFE0000
001FFF800001FFE1FFF00000FFFE0000
001FFFC00001FFE1FFF00000FFFC0000
001FFFC00001FFE0FFF00000FFFC0000
000FFFC00001FFC0FFF00000FFFC0000
000FFFC00003FFC0FFF80000FFFC0000
000FFFC00003FFC0FFF80000FFFC0000
000FFFC00003FFC0FFF80001FFF80000
000FFFE00003FFC0FFF80001FFF80000
000FFFE00007FFC07FF80001FFF80000
0007FFE00007FF807FFC0001FFF80000
0007FFE00007FF807FFC0001FFF80000
0007FFE0000FFF807FFC0001FFF80000
0007FFE0000FFF807FFC0003FFF00000
0007FFF0000FFF003FFE0003FFF00000
0003FFF0000FFF003FFE0003FFF00000
0003FFF0001FFF003FFE0003FFF00000
0003FFF0001FFF003FFE0003FFF00000
0003FFF0001FFE001FFF0003FFE00000
0003FFF0001FFE001FFF0007FFE00000
0003FFF8003FFE001FFF0007FFE00000
0001FFF8003FFC001FFF0007FFE00000
0001FFF8003FFC000FFF8007FFE00000
0001FFF8007FFC000FFF8007FFE00000
0001FFF8007FFC000FFF8007FFC00000
0001FFFC007FF8000FFF800FFFC00000
0000FFFC007FF80007FF800FFFC00000
0000FFFC00FFF80007FFC00FFFC00000
0000FFFC00FFF80007FFC00FFFC00000
0000FFFC00FFF00007FFC00FFFC00000
0000FFFC00FFF00003FFC00FFF800000
0000FFFE01FFF00003FFE01FFF800000
00007FFE01FFE00003FFE01FFF800000
00007FFE01FFE00003FFE01FFF800000
00007FFE01FFE00001FFE01FFF800000
00007FFE01FFE00001FFE01FFF000000
00007FFE03FFC00001FFF01FFF000000
00003FFF03FFC00001FFF01FFF000000
00003FFF03FFC00000FFF03FFF000000
00003FFF03FF800000FFF03FFF000000
00003FFF03FF800000FFF83FFF000000
00003FFF07FF800000FFF83FFE000000
00003FFF07FF8000007FF83FFE000000
00001FFF87FF0000007FF83FFE000000
00001FFF87FF0000007FF87FFE000000
00001FFF87FF0000007FFC7FFE000000
00001FFF8FFF0000003FFC7FFC000000
00001FFF8FFE0000003FFC7FFC000000
00000FFF8FFE0000003FFC7FFC000000
00000FFFCFFE0000003FFC7FFC000000
00000FFFCFFC0000001FFEFFFC000000
00000FFFDFFC0000001FFEFFFC000000
00000FFFDFFC0000001FFEFFF8000000
00000FFFFFFC0000001FFFFFF8000000
000007FFFFF80000000FFFFFF8000000
000007FFFFF80000000FFFFFF8000000
000007FFFFF80000000FFFFFF8000000
000007FFFFF00000000FFFFFF8000000
000007FFFFF000000007FFFFF0000000
000003FFFFF000000007FFFFF0000000
000003FFFFF000000007FFFFF0000000
000003FFFFE000000007FFFFF0000000
000003FFFFE000000003FFFFF0000000
000003FFFFE000000003FFFFE0000000
000003FFFFE000000003FFFFE0000000
000001FFFFC000000003FFFFE0000000
000001FFFFC000000001FFFFE0000000
000001FFFF8000000001FFFFC0000000
000001FFFF8000000001FFFFC0000000
000001FFFE0000000001FFFF80000000
ENDCHAR
STARTCHAR 0058
ENCODING 88
SWIDTH 436 0
DWIDTH 83 0
BBX 71 133 6 0
BITMAP
3FFC00000000007FF8
7FFC00000000007FFC
7FFC00000000007FFC
FFFE0000000000FFFC
FFFE0000000000FFFE
7FFF0000000001FFFC
7FFF0000000001FFFC
7FFF8000000003FFFC
3FFF8000000003FFF8
3FFF8000000003FFF8
1FFFC000000007FFF0
1FFFC000000007FFF0
0FFFE00000000FFFE0
0FFFE00000000FFFE0
0FFFF00000001FFFE0
07FFF00000001FFFC0
07FFF00000001FFFC0
03FFF80000003FFF80
03FFF80000003FFF80
01FFFC0000007FFF00
01FFFC0000007FFF00
01FFFE0000007FFF00
00FFFE000000FFFE00
00FFFE000000FFFE00
007FFF000001FFFC00
007FFF000001FFFC00
003FFF800003FFF800
003FFF800003FFF800
003FFF800003FFF800
001FFFC00007FFF000
001FFFC00007FFF000
000FFFE0000FFFE000
000FFFE0000FFFE000
0007FFF0001FFFC000
0007FFF0001FFFC000
0007FFF0001FFFC000
0003FFF8003FFF8000
0003FFF8003FFF8000
0001FFFC007FFF0000
0001FFFC007FFF0000
0000FFFE00FFFE0000
0000FFFE00FFFE0000
0000FFFE00FFFE0000
00007FFF01FFFC0000
00007FFF01FFFC0000
00003FFF01FFF80000
00003FFF01FFF80000
00001FFF83FFF00000
00001FFF83FFF00000
00001FFF83FFF00000
00000FFF83FFE00000
00000FFFC7FFE00000
000007FFC7FFC00000
000007FFC7FFC00000
000003FFC7FF800000
000003FFEFFF800000
000003FFEFFF800000
000001FFFFFF000000
000001FFFFFF000000
000000FFFFFE000000
000000FFFFFE000000
0000007FFFFC000000
0000007FFFFC000000
0000007FFFFC000000
0000003FFFF8000000
0000003FFFF8000000
0000001FFFF0000000
0000001FFFF0000000
0000003FFFF8000000
0000003FFFF8000000
0000007FFFFC000000
0000007FFFFC000000
000000FFFFFE000000
000000FFFFFE000000
000000FFFFFE000000
000001FFFFFF000000
000001FFFFFF000000
000003FFEFFF800000
000003FFEFFF800000
000007FFC7FFC00000
000007FFC7FFC00000
000007FFC7FFC00000
00000FFF83FFE00000
00000FFF83FFE00000
00001FFF83FFF00000
00001FFF03FFF00000
00003FFF01FFF80000
00003FFF01FFF80000
00003FFF01FFF80000
00007FFE00FFFC0000
00007FFE00FFFC0000
0000FFFE00FFFE0000
0000FFFC007FFE0000
0001FFFC007FFF0000
0001FFF8003FFF0000
0001FFF8003FFF0000
0003FFF8003FFF8000
0003FFF0001FFF8000
0007FFF0001FFFC000
0007FFE0000FFFC000
000FFFE0000FFFE000
000FFFE00007FFE000
000FFFC00007FFE000
001FFFC00007FFF000
001FFF800003FFF000
003FFF800003FFF800
003FFF000001FFF800
007FFF000001FFFC00
007FFF000001FFFC00
007FFE000000FFFC00
00FFFE000000FFFE00
00FFFC0000007FFE00
01FFFC0000007FFF00
01FFFC0000007FFF00
03FFF80000003FFF80
03FFF80000003FFF80
03FFF00000001FFF80
07FFF00000001FFFC0
07FFF00000000FFFC0
0FFFE00000000FFFE0
0FFFE00000000FFFE0
1FFFC000000007FFF0
1FFFC000000007FFF0
1FFF8000000003FFF0
3FFF8000000003FFF8
3FFF8000000003FFF8
7FFF0000000001FFFC
7FFF0000000001FFFC
7FFE0000000000FFFC
7FFE0000000000FFFC
7FFE0000000000FFFC
7FFC00000000007FFC
3FFC00000000007FF8
ENDCHAR
STARTCHAR 0059
ENCODING 89
SWIDTH 421 0
DWIDTH 80 0
BBX 75 133 3 0
BITMAP
3FFC000000000001FFE0
FFFC000000000007FFC0
FFFC00000000000FFFC0
FFFE00000000000FFF80
FFFE00000000000FFF80
7FFE00000000001FFF80
7FFF00000000001FFF00
7FFF00000000003FFF00
3FFF80000000003FFE00
3FFF80000000003FFE00
1FFF80000000007FFE00
1FFFC0000000007FFC00
1FFFC0000000007FFC00
0FFFE000000000FFF800
0FFFE000000000FFF800
07FFE000000001FFF800
07FFF000000001FFF000
07FFF000000001FFF000
03FFF800000003FFE000
03FFF800000003FFE000
01FFF800000007FFE000
01FFFC00000007FFC000
01FFFC00000007FFC000
00FFFE0000000FFF8000
00FFFE0000000FFF8000
007FFE0000000FFF8000
007FFF0000001FFF0000
007FFF0000001FFF0000
003FFF0000003FFE0000
003FFF8000003FFE0000
001FFF8000003FFE0000
001FFFC000007FFC0000
001FFFC000007FFC0000
000FFFC000007FFC0000
000FFFE00000FFF80000
0007FFE00000FFF80000
0007FFF00001FFF00000
0007FFF00001FFF00000
0003FFF00001FFF00000
0003FFF80003FFE00000
0001FFF80003FFE00000
0001FFFC0003FFC00000
0001FFFC0007FFC00000
0000FFFC0007FFC00000
0000FFFE0007FF800000
00007FFE000FFF800000
00007FFE000FFF000000
00007FFF000FFF000000
00003FFF001FFF000000
00003FFF001FFE000000
00001FFF001FFE000000
00001FFF803FFC000000
00001FFF803FFC000000
00000FFF803FFC000000
00000FFFC07FF8000000
00000FFFC07FF8000000
000007FFC07FF0000000
000007FFE0FFF0000000
000003FFE0FFF0000000
000003FFE0FFE0000000
000003FFF0FFE0000000
000001FFF1FFC0000000
000001FFF1FFC0000000
000000FFF9FFC0000000
000000FFFBFF80000000
000000FFFFFF80000000
0000007FFFFF80000000
0000007FFFFF00000000
0000003FFFFF00000000
0000003FFFFE00000000
0000003FFFFE00000000
0000001FFFFE00000000
0000001FFFFC00000000
0000000FFFFC00000000
0000000FFFF800000000
0000000FFFF800000000
00000007FFF800000000
00000007FFF000000000
00000007FFF000000000
00000007FFF000000000
00000007FFF000000000
00000007FFF000000000
00000007FFF000000000
00000007FFF000000000
00000007FFF000000000
00000007FFF000000000
00000007FFF000000000
00000007FFF000000000
00000007FFF000000000
00000007FFF000000000
00000007FFF000000000
00000007FFF000000000
00000007FFF000000000
00000007FFF000000000
00000007FFF000000000
00000007FFF000000000
00000007FFF000000000
00000007FFF000000000
00000007FFF000000000
00000007FFF000000000
00000007FFF000000000
00000007FFF000000000
00000007FFF000000000
00000007FFF000000000
00000007FFF000000000
00000007FFF000000000
00000007FFF000000000
00000007FFF000000000
00000007FFF000000000
00000007FFF000000000
00000007FFF000000000
00000007FFF000000000
00000007FFF000000000
00000007FFF000000000
00000007FFF000000000
00000007FFF000000000
00000007FFF000000000
00000007FFF000000000
00000007FFF000000000
00000007FFF000000000
00000007FFF000000000
00000007FFF000000000
00000007FFF000000000
00000007FFF000000000
00000007FFF000000000
00000007FFF000000000
00000007FFF000000000
00000007FFF000000000
00000007FFF000000000
00000007FFF000000000
00000007FFF000000000
00000007FFF000000000
00000007FFC000000000
ENDCHAR
STARTCHAR 005A
ENCODING 90
SWIDTH 410 0
DWIDTH 78 0
BBX 63 133 7 0
BITMAP
07FFFFFFFFFFFFF8
1FFFFFFFFFFFFFFC
1FFFFFFFFFFFFFFC
1FFFFFFFFFFFFFFC
1FFFFFFFFFFFFFFE
1FFFFFFFFFFFFFFE
1FFFFFFFFFFFFFFE
1FFFFFFFFFFFFFFE
1FFFFFFFFFFFFFFE
1FFFFFFFFFFFFFFE
1FFFFFFFFFFFFFFE
000000000001FFFC
000000000001FFFC
000000000003FFFC
000000000003FFF8
000000000007FFF8
000000000007FFF0
000000000007FFF0
00000000000FFFE0
00000000000FFFE0
00000000001FFFE0
00000000001FFFC0
00000000003FFFC0
00000000003FFF80
00000000003FFF80
00000000007FFF00
00000000007FFF00
0000000000FFFF00
0000000000FFFE00
0000000001FFFE00
0000000001FFFC00
0000000001FFFC00
0000000003FFF800
0000000003FFF800
0000000007FFF800
0000000007FFF000
000000000FFFF000
000000000FFFE000
000000000FFFE000
000000001FFFC000
000000001FFFC000
000000003FFFC000
000000003FFF8000
000000003FFF8000
000000007FFF0000
000000007FFF0000
00000000FFFE0000
00000000FFFE0000
00000001FFFE0000
00000001FFFC0000
00000001FFFC0000
00000003FFF80000
00000003FFF80000
00000007FFF00000
00000007FFF00000
0000000FFFF00000
0000000FFFE00000
0000000FFFE00000
0000001FFFC00000
0000001FFFC00000
0000003FFF800000
0000003FFF800000
0000007FFF800000
0000007FFF000000
0000007FFF000000
000000FFFE000000
000000FFFE000000
000001FFFC000000
000001FFFC000000
000003FFFC000000
000003FFF8000000
000003FFF8000000
000007FFF0000000
000007FFF0000000
00000FFFF0000000
00000FFFE0000000
00000FFFE0000000
00001FFFC0000000
00001FFFC0000000
00003FFF80000000
00003FFF80000000
00007FFF80000000
00007FFF00000000
00007FFF00000000
0000FFFE00000000
0000FFFE00000000
0001FFFC00000000
0001FFFC00000000
0003FFFC00000000
0003FFF800000000
0003FFF800000000
0007FFF000000000
0007FFF000000000
000FFFE000000000
000FFFE000000000
001FFFE000000000
001FFFC000000000
001FFFC000000000
003FFF8000000000
003FFF8000000000
007FFF0000000000
007FFF0000000000
00FFFF0000000000
00FFFE0000000000
00FFFE0000000000
01FFFC0000000000
01FFFC0000000000
03FFF80000000000
03FFF80000000000
03FFF80000000000
07FFF00000000000
07FFF00000000000
0FFFE00000000000
0FFFE00000000000
1FFFC00000000000
1FFFC00000000000
1FFFC00000000000
3FFF800000000000
3FFF800000000000
7FFF000000000000
7FFF000000000000
FFFE000000000000
FFFFFFFFFFFFFFFC
FFFFFFFFFFFFFFFC
FFFFFFFFFFFFFFFC
FFFFFFFFFFFFFFFC
FFFFFFFFFFFFFFFC
FFFFFFFFFFFFFFFC
FFFFFFFFFFFFFFFC
FFFFFFFFFFFFFFFC
FFFFFFFFFFFFFFFC
7FFFFFFFFFFFFFF8
3FFFFFFFFFFFFFF0
ENDCHAR
STARTCHAR 005B
ENCODING 91
SWIDTH 315 0
DWIDTH 60 0
BBX 39 169 14 -25
BITMAP
3FFFFFFFFE
7FFFFFFFFE
FFFFFFFFFE
FFFFFFFFFE
FFFFFFFFFE
FFFFFFFFFE
FFFFFFFFFE
FFFFFFFFFE
FFFFFFFFFE
FFFFFFFFFE
FFFFFFFFF8
FFFE000000
FFFE000000
FFFE000000
FFFE000000
FFFE000000
FFFE000000
FFFE000000
FFFE000000
FFFE000000
FFFE000000
FFFE000000
FFFE000000
FFFE000000
FFFE000000
FFFE000000
FFFE000000
FFFE000000
FFFE000000
FFFE000000
FFFE000000
FFFE000000
FFFE000000
FFFE000000
FFFE000000
FFFE000000
FFFE000000
FFFE000000
FFFE000000
FFFE000000
FFFE000000
FFFE000000
FFFE000000
FFFE000000
FFFE000000
FFFE000000
FFFE000000
FFFE000000
FFFE000000
FFFE000000
FFFE000000
FFFE000000
FFFE000000
FFFE000000
FFFE000000
FFFE000000
FFFE000000
FFFE000000
FFFE000000
FFFE000000
FFFE000000
FFFE000000
FFFE000000
FFFE000000
FFFE000000
FFFE000000
FFFE000000
FFFE000000
FFFE000000
FFFE000000
FFFE000000
FFFE000000
FFFE000000
FFFE000000
FFFE000000
FFFE000000
FFFE000000
FFFE000000
FFFE000000
FFFE000000
FFFE000000
FFFE000000
FFFE000000
FFFE000000
FFFE000000
FFFE000000
FFFE000000
FFFE000000
FFFE000000
FFFE000000
FFFE000000
FFFE000000
FFFE000000
FFFE000000
FFFE000000
FFFE000000
FFFE000000
FFFE000000
FFFE000000
FFFE000000
FFFE000000
FFFE000000
FFFE000000
FFFE000000
FFFE000000
FFFE000000
FFFE000000
FFFE000000
FFFE000000
FFFE000000
FFFE000000
FFFE000000
FFFE000000
FFFE000000
FFFE000000
FFFE000000
FFFE000000
FFFE000000
FFFE000000
FFFE000000
FFFE000000
FFFE000000
FFFE000000
FFFE000000
FFFE000000
FFFE000000
FFFE000000
FFFE000000
FFFE000000
FFFE000000
FFFE000000
FFFE000000
FFFE000000
FFFE000000
FFFE000000
FFFE000000
FFFE000000
FFFE000000
FFFE000000
FFFE000000
FFFE000000
FFFE000000
FFFE000000
FFFE000000
FFFE000000
FFFE000000
FFFE000000
FFFE000000
FFFE000000
FFFE000000
FFFE000000
FFFE000000
FFFE000000
FFFE000000
FFFE000000
FFFE000000
FFFE000000
FFFE000000
FFFFFFFFFE
FFFFFFFFFE
FFFFFFFFFE
FFFFFFFFFE
FFFFFFFFFE
FFFFFFFFFE
FFFFFFFFFE
FFFFFFFFFE
FFFFFFFFFE
FFFFFFFFFE
FFFFFFFFF8
ENDCHAR
STARTCHAR 005C
ENCODING 92
SWIDTH 384 0
DWIDTH 73 0
BBX 57 167 8 -23
BITMAP
7FFC000000000000
FFFC000000000000
FFFC000000000000
FFFE000000000000
FFFE000000000000
7FFE000000000000
7FFE000000000000
7FFF000000000000
7FFF000000000000
3FFF000000000000
3FFF000000000000
3FFF800000000000
1FFF800000000000
1FFF800000000000
1FFFC00000000000
1FFFC00000000000
0FFFC00000000000
0FFFC00000000000
0FFFE00000000000
0FFFE00000000000
07FFE00000000000
07FFE00000000000
07FFF00000000000
07FFF00000000000
03FFF00000000000
03FFF00000000000
03FFF80000000000
01FFF80000000000
01FFF80000000000
01FFFC0000000000
01FFFC0000000000
00FFFC0000000000
00FFFC0000000000
00FFFE0000000000
00FFFE0000000000
007FFE0000000000
007FFE0000000000
007FFF0000000000
007FFF0000000000
003FFF0000000000
003FFF8000000000
003FFF8000000000
001FFF8000000000
001FFF8000000000
001FFFC000000000
001FFFC000000000
000FFFC000000000
000FFFC000000000
000FFFE000000000
000FFFE000000000
0007FFE000000000
0007FFE000000000
0007FFF000000000
0007FFF000000000
0003FFF000000000
0003FFF800000000
0003FFF800000000
0001FFF800000000
0001FFF800000000
0001FFFC00000000
0001FFFC00000000
0000FFFC00000000
0000FFFC00000000
0000FFFE00000000
0000FFFE00000000
00007FFE00000000
00007FFE00000000
00007FFF00000000
00003FFF00000000
00003FFF00000000
00003FFF80000000
00003FFF80000000
00001FFF80000000
00001FFF80000000
00001FFFC0000000
00001FFFC0000000
00000FFFC0000000
00000FFFC0000000
00000FFFE0000000
00000FFFE0000000
000007FFE0000000
000007FFE0000000
000007FFF0000000
000003FFF0000000
000003FFF0000000
000003FFF8000000
000003FFF8000000
000001FFF8000000
000001FFF8000000
000001FFFC000000
000001FFFC000000
000000FFFC000000
000000FFFC000000
000000FFFE000000
000000FFFE000000
0000007FFE000000
0000007FFE000000
0000007FFF000000
0000003FFF000000
0000003FFF000000
0000003FFF800000
0000003FFF800000
0000001FFF800000
0000001FFF800000
0000001FFFC00000
0000001FFFC00000
0000000FFFC00000
0000000FFFC00000
0000000FFFE00000
0000000FFFE00000
00000007FFE00000
00000007FFF00000
00000007FFF00000
00000003FFF00000
00000003FFF00000
00000003FFF80000
00000003FFF80000
00000001FFF80000
00000001FFF80000
00000001FFFC0000
00000001FFFC0000
00000000FFFC0000
00000000FFFC0000
00000000FFFE0000
00000000FFFE0000
000000007FFE0000
000000007FFF0000
000000007FFF0000
000000003FFF0000
000000003FFF0000
000000003FFF8000
000000003FFF8000
000000001FFF8000
000000001FFF8000
000000001FFFC000
000000001FFFC000
000000000FFFC000
000000000FFFC000
000000000FFFE000
0000000007FFE000
0000000007FFE000
0000000007FFF000
0000000007FFF000
0000000003FFF000
0000000003FFF000
0000000003FFF800
0000000003FFF800
0000000001FFF800
0000000001FFF800
0000000001FFFC00
0000000001FFFC00
0000000000FFFC00
0000000000FFFC00
0000000000FFFE00
00000000007FFE00
00000000007FFE00
00000000007FFF00
00000000007FFF00
00000000003FFF00
00000000003FFF00
00000000003FFF80
00000000003FFF80
00000000001FFF80
00000000001FFF80
00000000001FFF80
00000000001FFF80
00000000000FFF00
ENDCHAR
STARTCHAR 005D
ENCODING 93
SWIDTH 315 0
DWIDTH 60 0
BBX 39 169 7 -25
BITMAP
FFFFFFFFF8
FFFFFFFFFE
FFFFFFFFFE
FFFFFFFFFE
FFFFFFFFFE
FFFFFFFFFE
FFFFFFFFFE
FFFFFFFFFE
7FFFFFFFFE
7FFFFFFFFE
3FFFFFFFFE
000000FFFE
000000FFFE
000000FFFE
000000FFFE
000000FFFE
000000FFFE
000000FFFE
000000FFFE
000000FFFE
000000FFFE
000000FFFE
000000FFFE
000000FFFE
000000FFFE
000000FFFE
000000FFFE
000000FFFE
000000FFFE
000000FFFE
000000FFFE
000000FFFE
000000FFFE
000000FFFE
000000FFFE
000000FFFE
000000FFFE
000000FFFE
000000FFFE
000000FFFE
000000FFFE
000000FFFE
000000FFFE
000000FFFE
000000FFFE
000000FFFE
000000FFFE
000000FFFE
000000FFFE
000000FFFE
000000FFFE
000000FFFE
000000FFFE
000000FFFE
000000FFFE
000000FFFE
000000FFFE
000000FFFE
000000FFFE
000000FFFE
000000FFFE
000000FFFE
000000FFFE
000000FFFE
000000FFFE
000000FFFE
000000FFFE
000000FFFE
000000FFFE
000000FFFE
000000FFFE
000000FFFE
000000FFFE
000000FFFE
000000FFFE
000000FFFE
000000FFFE
000000FFFE
000000FFFE
000000FFFE
000000FFFE
000000FFFE
000000FFFE
000000FFFE
000000FFFE
000000FFFE
000000FFFE
000000FFFE
000000FFFE
000000FFFE
000000FFFE
000000FFFE
000000FFFE
000000FFFE
000000FFFE
000000FFFE
000000FFFE
000000FFFE
000000FFFE
000000FFFE
000000FFFE
000000FFFE
000000FFFE
000000FFFE
000000FFFE
000000FFFE
000000FFFE
000000FFFE
000000FFFE
000000FFFE
000000FFFE
000000FFFE
000000FFFE
000000FFFE
000000FFFE
000000FFFE
000000FFFE
000000FFFE
000000FFFE
000000FFFE
000000FFFE
000000FFFE
000000FFFE
000000FFFE
000000FFFE
000000FFFE
000000FFFE
000000FFFE
000000FFFE
000000FFFE
000000FFFE
000000FFFE
000000FFFE
000000FFFE
000000FFFE
000000FFFE
000000FFFE
000000FFFE
000000FFFE
000000FFFE
000000FFFE
000000FFFE
000000FFFE
000000FFFE
000000FFFE
000000FFFE
000000FFFE
000000FFFE
000000FFFE
000000FFFE
000000FFFE
000000FFFE
000000FFFE
000000FFFE
000000FFFE
000000FFFE
000000FFFE
000000FFFE
FFFFFFFFFE
FFFFFFFFFE
FFFFFFFFFE
FFFFFFFFFE
FFFFFFFFFE
FFFFFFFFFE
FFFFFFFFFE
FFFFFFFFFE
7FFFFFFFFE
7FFFFFFFFE
3FFFFFFFFE
ENDCHAR
STARTCHAR 005E
ENCODING 94
SWIDTH 310 0
DWIDTH 59 0
BBX 49 25 6 108
BITMAP
00003FFF000000
0000FFFF800000
0001FFFFC00000
0003FFFFE00000
0007FFFFE00000
0007FFFFF00000
000FFFFFF80000
001FFFFFFC0000
003FFFFFFE0000
007FFFFFFE0000
00FFFE7FFF0000
00FFFC3FFF8000
01FFF81FFFC000
03FFF00FFFE000
07FFE007FFE000
0FFF8003FFF000
1FFF0001FFF800
1FFE0000FFFC00
3FFC00007FFE00
7FF800001FFE00
FFF000000FFF00
FFE0000007FF80
FFC0000003FF80
FF80000001FF80
7F00000000FF00
ENDCHAR
STARTCHAR 005F
ENCODING 95
SWIDTH 452 0
DWIDTH 86 0
BBX 86 11 0 -11
BITMAP
FFFFFFFFFFFFFFFFFFFFF0
FFFFFFFFFFFFFFFFFFFFF8
FFFFFFFFFFFFFFFFFFFFF8
FFFFFFFFFFFFFFFFFFFFF8
FFFFFFFFFFFFFFFFFFFFF8
FFFFFFFFFFFFFFFFFFFFFC
FFFFFFFFFFFFFFFFFFFFFC
FFFFFFFFFFFFFFFFFFFFFC
FFFFFFFFFFFFFFFFFFFFFC
7FFFFFFFFFFFFFFFFFFFFC
3FFFFFFFFFFFFFFFFFFFFC
ENDCHAR
STARTCHAR 0060
ENCODING 96
SWIDTH 252 0
DWIDTH 48 0
BBX 25 27 14 106
BITMAP
7FFC0000
FFFC0000
FFFE0000
FFFE0000
FFFF0000
FFFF0000
7FFF8000
3FFF8000
1FFFC000
1FFFC000
0FFFE000
07FFE000
03FFF000
03FFF000
01FFF800
00FFF800
007FFC00
007FFC00
003FFE00
001FFE00
000FFF00
000FFF00
0007FF80
0003FF80
0001FF80
0001FF80
0000FF00
ENDCHAR
STARTCHAR 0061
ENCODING 97
SWIDTH 436 0
DWIDTH 83 0
BBX 60 97 10 0
BITMAP
001FFFFFFFFF0000
00FFFFFFFFFFF000
01FFFFFFFFFFFC00
03FFFFFFFFFFFF00
03FFFFFFFFFFFF80
07FFFFFFFFFFFF80
07FFFFFFFFFFFFC0
0FFFFFFFFFFFFFE0
0FFFFFFFFFFFFFE0
0FFFFFFFFFFFFFE0
0FFFFFFFFFFFFFF0
00000000007FFFF0
00000000001FFFF0
00000000000FFFF0
00000000000FFFF0
000000000007FFF0
000000000007FFF0
000000000007FFF0
000000000007FFF0
000000000007FFF0
000000000007FFF0
000000000007FFF0
000000000007FFF0
000000000007FFF0
000000000007FFF0
000000000007FFF0
000000000007FFF0
000000000007FFF0
000000000007FFF0
000000000007FFF0
000000000007FFF0
000000000007FFF0
000000000007FFF0
000000000007FFF0
000000000007FFF0
000000000007FFF0
000000000007FFF0
000000000007FFF0
000000000007FFF0
000000000007FFF0
000FFFFFFC07FFF0
00FFFFFFFF07FFF0
03FFFFFFFFC7FFF0
0FFFFFFFFFC7FFF0
1FFFFFFFFFE7FFF0
1FFFFFFFFFF7FFF0
3FFFFFFFFFF7FFF0
7FFFFFFFFFF7FFF0
7FFFFFFFFFFFFFF0
7FFFFFFFFFFFFFF0
FFFFFFFFFFFFFFF0
FFFFF0000007FFF0
FFFF80000007FFF0
FFFF00000007FFF0
FFFF00000007FFF0
FFFF00000007FFF0
FFFE00000007FFF0
FFFE00000007FFF0
FFFE00000007FFF0
FFFE00000007FFF0
FFFE00000007FFF0
FFFE00000007FFF0
FFFE00000007FFF0
FFFE00000007FFF0
FFFE00000007FFF0
FFFE00000007FFF0
FFFE00000007FFF0
FFFE00000007FFF0
FFFE00000007FFF0
FFFE00000007FFF0
FFFE00000007FFF0
FFFE00000007FFF0
FFFE00000007FFF0
FFFE00000007FFF0
FFFE00000007FFF0
FFFE00000007FFF0
FFFE00000007FFF0
FFFE00000007FFF0
FFFE00000007FFF0
FFFE00000007FFF0
FFFE00000007FFF0
FFFE00000007FFF0
FFFF00000007FFF0
FFFF00000007FFF0
FFFF80000007FFF0
FFFFF0000007FFF0
FFFFFFFFFC07FFF0
7FFFFFFFFC07FFF0
7FFFFFFFFC07FFF0
7FFFFFFFFC07FFF0
3FFFFFFFFC07FFF0
1FFFFFFFFC07FFF0
1FFFFFFFFC07FFF0
0FFFFFFFFC07FFF0
03FFFFFFF803FFF0
00FFFFFFF803FFF0
000FFFFFF001FFF0
ENDCHAR
STARTCHAR 0062
ENCODING 98
SWIDTH 457 0
DWIDTH 87 0
BBX 62 133 13 0
BITMAP
7FFE000000000000
FFFE000000000000
FFFE000000000000
FFFE000000000000
FFFE000000000000
FFFE000000000000
FFFE000000000000
FFFE000000000000
FFFE000000000000
FFFE000000000000
FFFE000000000000
FFFE000000000000
FFFE000000000000
FFFE000000000000
FFFE000000000000
FFFE000000000000
FFFE000000000000
FFFE000000000000
FFFE000000000000
FFFE000000000000
FFFE000000000000
FFFE000000000000
FFFE000000000000
FFFE000000000000
FFFE000000000000
FFFE000000000000
FFFE000000000000
FFFE000000000000
FFFE000000000000
FFFE000000000000
FFFE000000000000
FFFE000000000000
FFFE000000000000
FFFE000000000000
FFFE000000000000
FFFE000000000000
FFFE00FFFFFFC000
FFFE01FFFFFFFC00
FFFE01FFFFFFFF00
FFFE03FFFFFFFF80
FFFE03FFFFFFFFC0
FFFE03FFFFFFFFE0
FFFE03FFFFFFFFF0
FFFE03FFFFFFFFF0
FFFE03FFFFFFFFF8
FFFE03FFFFFFFFF8
FFFE03FFFFFFFFF8
FFFE0000003FFFFC
FFFE00000007FFFC
FFFE00000003FFFC
FFFE00000003FFFC
FFFE00000003FFFC
FFFE00000001FFFC
FFFE00000001FFFC
FFFE00000001FFFC
FFFE00000001FFFC
FFFE00000001FFFC
FFFE00000001FFFC
FFFE00000001FFFC
FFFE00000001FFFC
FFFE00000001FFFC
FFFE00000001FFFC
FFFE00000001FFFC
FFFE00000001FFFC
FFFE00000001FFFC
FFFE00000001FFFC
FFFE00000001FFFC
FFFE00000001FFFC
FFFE00000001FFFC
FFFE00000001FFFC
FFFE00000001FFFC
FFFE00000001FFFC
FFFE00000001FFFC
FFFE00000001FFFC
FFFE00000001FFFC
FFFE00000001FFFC
FFFE00000001FFFC
FFFE00000001FFFC
FFFE00000001FFFC
FFFE00000001FFFC
FFFE00000001FFFC
FFFE00000001FFFC
FFFE00000001FFFC
FFFE00000001FFFC
FFFE00000001FFFC
FFFE00000001FFFC
FFFE00000001FFFC
FFFE00000001FFFC
FFFE00000001FFFC
FFFE00000001FFFC
FFFE00000001FFFC
FFFE00000001FFFC
FFFE00000001FFFC
FFFE00000001FFFC
FFFE00000001FFFC
FFFE00000001FFFC
FFFE00000001FFFC
FFFE00000001FFFC
FFFE00000001FFFC
FFFE00000001FFFC
FFFE00000001FFFC
FFFE00000001FFFC
FFFE00000001FFFC
FFFE00000001FFFC
FFFE00000001FFFC
FFFE00000001FFFC
FFFE00000001FFFC
FFFE00000001FFFC
FFFE00000001FFFC
FFFE00000001FFFC
FFFE00000001FFFC
FFFE00000001FFFC
FFFE00000001FFFC
FFFE00000001FFFC
FFFE00000001FFFC
FFFE00000001FFFC
FFFE00000001FFFC
FFFE00000003FFFC
FFFE00000003FFFC
FFFE00000003FFFC
FFFE00000007FFFC
FFFE0000003FFFFC
FFFFFFFFFFFFFFF8
FFFFFFFFFFFFFFF8
FFFFFFFFFFFFFFF8
FFFEFFFFFFFFFFF0
FFFEFFFFFFFFFFF0
FFFEFFFFFFFFFFE0
FFFE7FFFFFFFFFE0
FFFE3FFFFFFFFF80
FFFC3FFFFFFFFF00
FFFC0FFFFFFFFC00
FFF803FFFFFFC000
ENDCHAR
STARTCHAR 0063
ENCODING 99
SWIDTH 352 0
DWIDTH 67 0
BBX 47 97 12 0
BITMAP
000FFFFFFFFC
00FFFFFFFFFE
03FFFFFFFFFE
07FFFFFFFFFE
0FFFFFFFFFFE
1FFFFFFFFFFE
3FFFFFFFFFFE
3FFFFFFFFFFE
7FFFFFFFFFFE
7FFFFFFFFFFE
7FFFFFFFFFFE
7FFFF0000000
FFFFC0000000
FFFF80000000
FFFF00000000
FFFF00000000
FFFF00000000
FFFE00000000
FFFE00000000
FFFE00000000
FFFE00000000
FFFE00000000
FFFE00000000
FFFE00000000
FFFE00000000
FFFE00000000
FFFE00000000
FFFE00000000
FFFE00000000
FFFE00000000
FFFE00000000
FFFE00000000
FFFE00000000
FFFE00000000
FFFE00000000
FFFE00000000
FFFE00000000
FFFE00000000
FFFE00000000
FFFE00000000
FFFE00000000
FFFE00000000
FFFE00000000
FFFE00000000
FFFE00000000
FFFE00000000
FFFE00000000
FFFE00000000
FFFE00000000
FFFE00000000
FFFE00000000
FFFE00000000
FFFE00000000
FFFE00000000
FFFE00000000
FFFE00000000
FFFE00000000
FFFE00000000
FFFE00000000
FFFE00000000
FFFE00000000
FFFE00000000
FFFE00000000
FFFE00000000
FFFE00000000
FFFE00000000
FFFE00000000
FFFE00000000
FFFE00000000
FFFE00000000
FFFE00000000
FFFE00000000
FFFE00000000
FFFE00000000
FFFE00000000
FFFE00000000
FFFE00000000
FFFE00000000
FFFE00000000
FFFE00000000
FFFF00000000
FFFF00000000
FFFF00000000
FFFF80000000
FFFFC0000000
7FFFF0000000
7FFFFFFFFFFE
7FFFFFFFFFFE
7FFFFFFFFFFE
3FFFFFFFFFFE
3FFFFFFFFFFE
1FFFFFFFFFFE
0FFFFFFFFFFE
07FFFFFFFFFE
03FFFFFFFFFE
00FFFFFFFFFE
000FFFFFFFFC
ENDCHAR
STARTCHAR 0064
ENCODING 100
SWIDTH 457 0
DWIDTH 87 0
BBX 63 133 12 0
BITMAP
0000000000007FFE
000000000000FFFE
000000000000FFFE
000000000000FFFE
000000000001FFFE
000000000001FFFE
000000000001FFFE
000000000001FFFE
000000000001FFFE
000000000001FFFE
000000000001FFFE
000000000001FFFE
000000000001FFFE
000000000001FFFE
000000000001FFFE
000000000001FFFE
000000000001FFFE
000000000001FFFE
000000000001FFFE
000000000001FFFE
000000000001FFFE
000000000001FFFE
000000000001FFFE
000000000001FFFE
000000000001FFFE
000000000001FFFE
000000000001FFFE
000000000001FFFE
000000000001FFFE
000000000001FFFE
000000000001FFFE
000000000001FFFE
000000000001FFFE
000000000001FFFE
000000000001FFFE
000000000001FFFE
000FFFFFFF01FFFE
00FFFFFFFFC1FFFE
03FFFFFFFFF1FFFE
07FFFFFFFFF9FFFE
0FFFFFFFFFF9FFFE
1FFFFFFFFFFDFFFE
3FFFFFFFFFFDFFFE
3FFFFFFFFFFDFFFE
7FFFFFFFFFFFFFFE
7FFFFFFFFFFFFFFE
7FFFFFFFFFFFFFFE
7FFFF0000001FFFE
FFFFC0000001FFFE
FFFF80000001FFFE
FFFF00000001FFFE
FFFF00000001FFFE
FFFF00000001FFFE
FFFE00000001FFFE
FFFE00000001FFFE
FFFE00000001FFFE
FFFE00000001FFFE
FFFE00000001FFFE
FFFE00000001FFFE
FFFE00000001FFFE
FFFE00000001FFFE
FFFE00000001FFFE
FFFE00000001FFFE
FFFE00000001FFFE
FFFE00000001FFFE
FFFE00000001FFFE
FFFE00000001FFFE
FFFE00000001FFFE
FFFE00000001FFFE
FFFE00000001FFFE
FFFE00000001FFFE
FFFE00000001FFFE
FFFE00000001FFFE
FFFE00000001FFFE
FFFE00000001FFFE
FFFE00000001FFFE
FFFE00000001FFFE
FFFE00000001FFFE
FFFE00000001FFFE
FFFE00000001FFFE
FFFE00000001FFFE
FFFE00000001FFFE
FFFE00000001FFFE
FFFE00000001FFFE
FFFE00000001FFFE
FFFE00000001FFFE
FFFE00000001FFFE
FFFE00000001FFFE
FFFE00000001FFFE
FFFE00000001FFFE
FFFE00000001FFFE
FFFE00000001FFFE
FFFE00000001FFFE
FFFE00000001FFFE
FFFE00000001FFFE
FFFE00000001FFFE
FFFE00000001FFFE
FFFE00000001FFFE
FFFE00000001FFFE
FFFE00000001FFFE
FFFE00000001FFFE
FFFE00000001FFFE
FFFE00000001FFFE
FFFE00000001FFFE
FFFE00000001FFFE
FFFE00000001FFFE
FFFE00000001FFFE
FFFE00000001FFFE
FFFE00000001FFFE
FFFE00000001FFFE
FFFE00000001FFFE
FFFE00000001FFFE
FFFE00000001FFFE
FFFE00000001FFFE
FFFE00000001FFFE
FFFE00000001FFFE
FFFF00000001FFFE
FFFF00000001FFFE
FFFF00000001FFFE
FFFF80000001FFFE
FFFFC0000001FFFE
7FFFF0000001FFFE
7FFFFFFFFF01FFFE
7FFFFFFFFF01FFFE
7FFFFFFFFF01FFFE
3FFFFFFFFF01FFFE
3FFFFFFFFF01FFFE
1FFFFFFFFF01FFFE
0FFFFFFFFF01FFFE
07FFFFFFFF01FFFE
03FFFFFFFF01FFFC
00FFFFFFFE01FFFC
000FFFFFFC01FFF8
ENDCHAR
STARTCHAR 0065
ENCODING 101
SWIDTH 410 0
DWIDTH 78 0
BBX 57 97 12 0
BITMAP
000FFFFFFFF80000
00FFFFFFFFFF8000
03FFFFFFFFFFE000
07FFFFFFFFFFF000
0FFFFFFFFFFFF800
1FFFFFFFFFFFFC00
3FFFFFFFFFFFFE00
3FFFFFFFFFFFFE00
7FFFFFFFFFFFFE00
7FFFFFFFFFFFFF00
7FFFFFFFFFFFFF00
7FFFF00003FFFF00
FFFFC00000FFFF80
FFFF8000007FFF80
FFFF0000003FFF80
FFFF0000003FFF80
FFFF0000003FFF80
FFFE0000003FFF80
FFFE0000001FFF80
FFFE0000001FFF80
FFFE0000001FFF80
FFFE0000001FFF80
FFFE0000001FFF80
FFFE0000001FFF80
FFFE0000001FFF80
FFFE0000001FFF80
FFFE0000001FFF80
FFFE0000001FFF80
FFFE0000001FFF80
FFFE0000001FFF80
FFFE0000001FFF80
FFFE0000001FFF80
FFFE0000001FFF80
FFFE0000001FFF80
FFFE0000001FFF80
FFFE0000001FFF80
FFFE0000001FFF80
FFFE0000001FFF80
FFFE0000001FFF80
FFFE0000001FFF80
FFFE0000003FFF80
FFFE0000003FFF80
FFFE0000003FFF80
FFFE0000003FFF80
FFFE0000007FFF80
FFFE000000FFFF80
FFFE000003FFFF00
FFFE01FFFFFFFF00
FFFE01FFFFFFFF00
FFFE01FFFFFFFF00
FFFE01FFFFFFFE00
FFFE01FFFFFFFE00
FFFE01FFFFFFFC00
FFFE01FFFFFFF800
FFFE01FFFFFFF000
FFFE01FFFFFFE000
FFFE01FFFFFF8000
FFFE00FFFFF80000
FFFE000000000000
FFFE000000000000
FFFE000000000000
FFFE000000000000
FFFE000000000000
FFFE000000000000
FFFE000000000000
FFFE000000000000
FFFE000000000000
FFFE000000000000
FFFE000000000000
FFFE000000000000
FFFE000000000000
FFFE000000000000
FFFE000000000000
FFFE000000000000
FFFE000000000000
FFFE000000000000
FFFE000000000000
FFFE000000000000
FFFE000000000000
FFFE000000000000
FFFF000000000000
FFFF000000000000
FFFF000000000000
FFFF800000000000
FFFFC00000000000
7FFFF00000000000
7FFFFFFFFFFFE000
7FFFFFFFFFFFE000
7FFFFFFFFFFFE000
3FFFFFFFFFFFE000
3FFFFFFFFFFFE000
1FFFFFFFFFFFE000
0FFFFFFFFFFFE000
07FFFFFFFFFFE000
03FFFFFFFFFFE000
00FFFFFFFFFFE000
000FFFFFFFFFC000
ENDCHAR
STARTCHAR 0066
ENCODING 102
SWIDTH 300 0
DWIDTH 57 0
BBX 45 133 13 0
BITMAP
000FFFFFFFE0
00FFFFFFFFF8
03FFFFFFFFF8
0FFFFFFFFFF8
1FFFFFFFFFF8
3FFFFFFFFFF8
3FFFFFFFFFF8
7FFFFFFFFFF8
7FFFFFFFFFF8
7FFFFFFFFFF8
FFFFFFFFFFF8
FFFFE0000000
FFFF80000000
FFFF00000000
FFFE00000000
FFFE00000000
FFFE00000000
FFFE00000000
FFFE00000000
FFFE00000000
FFFE00000000
FFFE00000000
FFFE00000000
FFFE00000000
FFFE00000000
FFFE00000000
FFFE00000000
FFFE00000000
FFFE00000000
FFFE00000000
FFFE00000000
FFFE00000000
FFFE00000000
FFFE00000000
FFFE00000000
FFFE00000000
FFFFFFFFF000
FFFFFFFFFC00
FFFFFFFFFC00
FFFFFFFFFC00
FFFFFFFFFC00
FFFFFFFFFC00
FFFFFFFFFC00
FFFFFFFFFC00
FFFFFFFFFC00
FFFFFFFFFC00
FFFFFFFFFC00
FFFE00000000
FFFE00000000
FFFE00000000
FFFE00000000
FFFE00000000
FFFE00000000
FFFE00000000
FFFE00000000
FFFE00000000
FFFE00000000
FFFE00000000
FFFE00000000
FFFE00000000
FFFE00000000
FFFE00000000
FFFE00000000
FFFE00000000
FFFE00000000
FFFE00000000
FFFE00000000
FFFE00000000
FFFE00000000
FFFE00000000
FFFE00000000
FFFE00000000
FFFE00000000
FFFE00000000
FFFE00000000
FFFE00000000
FFFE00000000
FFFE00000000
FFFE00000000
FFFE00000000
FFFE00000000
FFFE00000000
FFFE00000000
FFFE00000000
FFFE00000000
FFFE00000000
FFFE00000000
FFFE00000000
FFFE00000000
FFFE00000000
FFFE00000000
FFFE00000000
FFFE00000000
FFFE00000000
FFFE00000000
FFFE00000000
FFFE00000000
FFFE00000000
FFFE00000000
FFFE00000000
FFFE00000000
FFFE00000000
FFFE00000000
FFFE00000000
FFFE00000000
FFFE00000000
FFFE00000000
FFFE00000000
FFFE00000000
FFFE00000000
FFFE00000000
FFFE00000000
FFFE00000000
FFFE00000000
FFFE00000000
FFFE00000000
FFFE00000000
FFFE00000000
FFFE00000000
FFFE00000000
FFFE00000000
FFFE00000000
FFFE00000000
FFFE00000000
FFFE00000000
FFFE00000000
FFFE00000000
FFFE00000000
FFFE00000000
FFFE00000000
FFFC00000000
FFFC00000000
FFF800000000
ENDCHAR
STARTCHAR 0067
ENCODING 103
SWIDTH 473 0
DWIDTH 90 0
BBX 63 135 12 -38
BITMAP
000FFFFFFF007FFE
00FFFFFFFFC0FFFE
03FFFFFFFFF0FFFE
07FFFFFFFFF8FFFE
0FFFFFFFFFF9FFFE
1FFFFFFFFFFDFFFE
3FFFFFFFFFFDFFFE
3FFFFFFFFFFDFFFE
7FFFFFFFFFFFFFFE
7FFFFFFFFFFFFFFE
7FFFFFFFFFFFFFFE
7FFFF0000001FFFE
FFFFC0000001FFFE
FFFF80000001FFFE
FFFF00000001FFFE
FFFF00000001FFFE
FFFF00000001FFFE
FFFE00000001FFFE
FFFE00000001FFFE
FFFE00000001FFFE
FFFE00000001FFFE
FFFE00000001FFFE
FFFE00000001FFFE
FFFE00000001FFFE
FFFE00000001FFFE
FFFE00000001FFFE
FFFE00000001FFFE
FFFE00000001FFFE
FFFE00000001FFFE
FFFE00000001FFFE
FFFE00000001FFFE
FFFE00000001FFFE
FFFE00000001FFFE
FFFE00000001FFFE
FFFE00000001FFFE
FFFE00000001FFFE
FFFE00000001FFFE
FFFE00000001FFFE
FFFE00000001FFFE
FFFE00000001FFFE
FFFE00000001FFFE
FFFE00000001FFFE
FFFE00000001FFFE
FFFE00000001FFFE
FFFE00000001FFFE
FFFE00000001FFFE
FFFE00000001FFFE
FFFE00000001FFFE
FFFE00000001FFFE
FFFE00000001FFFE
FFFE00000001FFFE
FFFE00000001FFFE
FFFE00000001FFFE
FFFE00000001FFFE
FFFE00000001FFFE
FFFE00000001FFFE
FFFE00000001FFFE
FFFE00000001FFFE
FFFE00000001FFFE
FFFE00000001FFFE
FFFE00000001FFFE
FFFE00000001FFFE
FFFE00000001FFFE
FFFE00000001FFFE
FFFE00000001FFFE
FFFE00000001FFFE
FFFE00000001FFFE
FFFE00000001FFFE
FFFE00000001FFFE
FFFE00000001FFFE
FFFE00000001FFFE
FFFE00000001FFFE
FFFE00000001FFFE
FFFE00000001FFFE
FFFE00000001FFFE
FFFE00000001FFFE
FFFE00000001FFFE
FFFE00000001FFFE
FFFE00000001FFFE
FFFE00000001FFFE
FFFF00000001FFFE
FFFF00000001FFFE
FFFF00000001FFFE
FFFF80000001FFFE
FFFFC0000001FFFE
7FFFF0000001FFFE
7FFFFFFFFF01FFFE
7FFFFFFFFF01FFFE
7FFFFFFFFF01FFFE
3FFFFFFFFF01FFFE
3FFFFFFFFF01FFFE
1FFFFFFFFF01FFFE
0FFFFFFFFF01FFFE
07FFFFFFFF01FFFE
03FFFFFFFF01FFFE
00FFFFFFFE01FFFE
000FFFFFFC01FFFE
000000000001FFFE
000000000001FFFE
000000000001FFFE
000000000001FFFE
000000000001FFFE
000000000001FFFE
000000000001FFFE
000000000001FFFE
000000000001FFFE
000000000001FFFE
000000000001FFFE
000000000001FFFE
000000000001FFFE
000000000001FFFE
000000000001FFFE
000000000001FFFE
000000000001FFFE
000000000001FFFE
000000000001FFFE
000000000001FFFE
000000000001FFFE
000000000001FFFE
000000000001FFFE
000000000001FFFE
000000000003FFFC
000000000003FFFC
00000000000FFFFC
FFFFFFFFFFFFFFFC
FFFFFFFFFFFFFFFC
FFFFFFFFFFFFFFF8
FFFFFFFFFFFFFFF8
FFFFFFFFFFFFFFF0
FFFFFFFFFFFFFFF0
FFFFFFFFFFFFFFE0
FFFFFFFFFFFFFFC0
FFFFFFFFFFFFFF80
7FFFFFFFFFFFFC00
3FFFFFFFFFFFE000
ENDCHAR
STARTCHAR 0068
ENCODING 104
SWIDTH 457 0
DWIDTH 87 0
BBX 62 133 13 0
BITMAP
7FFE000000000000
FFFE000000000000
FFFE000000000000
FFFE000000000000
FFFE000000000000
FFFE000000000000
FFFE000000000000
FFFE000000000000
FFFE000000000000
FFFE000000000000
FFFE000000000000
FFFE000000000000
FFFE000000000000
FFFE000000000000
FFFE000000000000
FFFE000000000000
FFFE000000000000
FFFE000000000000
FFFE000000000000
FFFE000000000000
FFFE000000000000
FFFE000000000000
FFFE000000000000
FFFE000000000000
FFFE000000000000
FFFE000000000000
FFFE000000000000
FFFE000000000000
FFFE000000000000
FFFE000000000000
FFFE000000000000
FFFE000000000000
FFFE000000000000
FFFE000000000000
FFFE000000000000
FFFE000000000000
FFFE03FFFFFFC000
FFFE0FFFFFFFFC00
FFFE3FFFFFFFFF00
FFFE3FFFFFFFFF80
FFFE7FFFFFFFFFC0
FFFEFFFFFFFFFFE0
FFFEFFFFFFFFFFF0
FFFEFFFFFFFFFFF0
FFFFFFFFFFFFFFF8
FFFFFFFFFFFFFFF8
FFFFFFFFFFFFFFF8
FFFE0000003FFFFC
FFFE00000007FFFC
FFFE00000003FFFC
FFFE00000003FFFC
FFFE00000003FFFC
FFFE00000001FFFC
FFFE00000001FFFC
FFFE00000001FFFC
FFFE00000001FFFC
FFFE00000001FFFC
FFFE00000001FFFC
FFFE00000001FFFC
FFFE00000001FFFC
FFFE00000001FFFC
FFFE00000001FFFC
FFFE00000001FFFC
FFFE00000001FFFC
FFFE00000001FFFC
FFFE00000001FFFC
FFFE00000001FFFC
FFFE00000001FFFC
FFFE00000001FFFC
FFFE00000001FFFC
FFFE00000001FFFC
FFFE00000001FFFC
FFFE00000001FFFC
FFFE00000001FFFC
FFFE00000001FFFC
FFFE00000001FFFC
FFFE00000001FFFC
FFFE00000001FFFC
FFFE00000001FFFC
FFFE00000001FFFC
FFFE00000001FFFC
FFFE00000001FFFC
FFFE00000001FFFC
FFFE00000001FFFC
FFFE00000001FFFC
FFFE00000001FFFC
FFFE00000001FFFC
FFFE00000001FFFC
FFFE00000001FFFC
FFFE00000001FFFC
FFFE00000001FFFC
FFFE00000001FFFC
FFFE00000001FFFC
FFFE00000001FFFC
FFFE00000001FFFC
FFFE00000001FFFC
FFFE00000001FFFC
FFFE00000001FFFC
FFFE00000001FFFC
FFFE00000001FFFC
FFFE00000001FFFC
FFFE00000001FFFC
FFFE00000001FFFC
FFFE00000001FFFC
FFFE00000001FFFC
FFFE00000001FFFC
FFFE00000001FFFC
FFFE00000001FFFC
FFFE00000001FFFC
FFFE00000001FFFC
FFFE00000001FFFC
FFFE00000001FFFC
FFFE00000001FFFC
FFFE00000001FFFC
FFFE00000001FFFC
FFFE00000001FFFC
FFFE00000001FFFC
FFFE00000001FFFC
FFFE00000001FFFC
FFFE00000001FFFC
FFFE00000001FFFC
FFFE00000001FFFC
FFFE00000001FFFC
FFFE00000001FFFC
FFFE00000001FFFC
FFFE00000001FFFC
FFFE00000001FFFC
FFFE00000001FFFC
FFFE00000001FFFC
FFFE00000001FFFC
FFFC00000001FFFC
FFFC00000001FFFC
FFF800000001FFF0
ENDCHAR
STARTCHAR 0069
ENCODING 105
SWIDTH 210 0
DWIDTH 40 0
BBX 16 122 12 0
BITMAP
3FFF
FFFF
FFFF
FFFF
FFFF
FFFF
FFFF
FFFF
FFFF
FFFF
FFFF
FFFF
FFFF
FFFF
FFFC
0000
0000
0000
0000
0000
0000
0000
0000
0000
0000
3FFF
7FFF
7FFF
FFFF
FFFF
FFFF
FFFF
FFFF
FFFF
FFFF
FFFF
FFFF
FFFF
FFFF
FFFF
FFFF
FFFF
FFFF
FFFF
FFFF
FFFF
FFFF
FFFF
FFFF
FFFF
FFFF
FFFF
FFFF
FFFF
FFFF
FFFF
FFFF
FFFF
FFFF
FFFF
FFFF
FFFF
FFFF
FFFF
FFFF
FFFF
FFFF
FFFF
FFFF
FFFF
FFFF
FFFF
FFFF
FFFF
FFFF
FFFF
FFFF
FFFF
FFFF
FFFF
FFFF
FFFF
FFFF
FFFF
FFFF
FFFF
FFFF
FFFF
FFFF
FFFF
FFFF
FFFF
FFFF
FFFF
FFFF
FFFF
FFFF
FFFF
FFFF
FFFF
FFFF
FFFF
FFFF
FFFF
FFFF
FFFF
FFFF
FFFF
FFFF
FFFF
FFFF
FFFF
FFFF
FFFF
FFFF
FFFF
FFFF
FFFF
FFFE
FFFE
FFFE
FFFC
ENDCHAR
STARTCHAR 006A
ENCODING 106
SWIDTH 210 0
DWIDTH 40 0
BBX 16 160 12 -38
BITMAP
3FFF
FFFF
FFFF
FFFF
FFFF
FFFF
FFFF
FFFF
FFFF
FFFF
FFFF
FFFF
FFFF
FFFF
FFFC
0000
0000
0000
0000
0000
0000
0000
0000
0000
0000
3FFF
7FFF
7FFF
FFFF
FFFF
FFFF
FFFF
FFFF
FFFF
FFFF
FFFF
FFFF
FFFF
FFFF
FFFF
FFFF
FFFF
FFFF
FFFF
FFFF
FFFF
FFFF
FFFF
FFFF
FFFF
FFFF
FFFF
FFFF
FFFF
FFFF
FFFF
FFFF
FFFF
FFFF
FFFF
FFFF
FFFF
FFFF
FFFF
FFFF
FFFF
FFFF
FFFF
FFFF
FFFF
FFFF
FFFF
FFFF
FFFF
FFFF
FFFF
FFFF
FFFF
FFFF
FFFF
FFFF
FFFF
FFFF
FFFF
FFFF
FFFF
FFFF
FFFF
FFFF
FFFF
FFFF
FFFF
FFFF
FFFF
FFFF
FFFF
FFFF
FFFF
FFFF
FFFF
FFFF
FFFF
FFFF
FFFF
FFFF
FFFF
FFFF
FFFF
FFFF
FFFF
FFFF
FFFF
FFFF
FFFF
FFFF
FFFF
FFFF
FFFF
FFFF
FFFF
FFFF
FFFF
FFFF
FFFF
FFFF
FFFF
FFFF
FFFF
FFFF
FFFF
FFFF
FFFF
FFFF
FFFF
FFFF
FFFF
FFFF
FFFF
FFFF
FFFF
FFFF
FFFF
FFFF
FFFF
FFFF
FFFF
FFFE
FFFE
FFFE
FFFE
FFFE
FFFC
FFFC
FFF8
FFF8
FFE0
FFC0
FF00
FC00
E000
ENDCHAR
STARTCHAR 006B
ENCODING 107
SWIDTH 415 0
DWIDTH 79 0
BBX 62 133 13 0
BITMAP
7FFE000000000000
FFFE000000000000
FFFE000000000000
FFFE000000000000
FFFE000000000000
FFFE000000000000
FFFE000000000000
FFFE000000000000
FFFE000000000000
FFFE000000000000
FFFE000000000000
FFFE000000000000
FFFE000000000000
FFFE000000000000
FFFE000000000000
FFFE000000000000
FFFE000000000000
FFFE000000000000
FFFE000000000000
FFFE000000000000
FFFE000000000000
FFFE000000000000
FFFE000000000000
FFFE000000000000
FFFE000000000000
FFFE000000000000
FFFE000000000000
FFFE000000000000
FFFE000000000000
FFFE000000000000
FFFE000000000000
FFFE000000000000
FFFE000000000000
FFFE000000000000
FFFE000000000000
FFFE000000000000
FFFE00000007FFF0
FFFE0000000FFFF0
FFFE0000001FFFE0
FFFE0000003FFFC0
FFFE0000003FFFC0
FFFE0000007FFF80
FFFE000000FFFF00
FFFE000000FFFF00
FFFE000001FFFE00
FFFE000001FFFC00
FFFE000003FFFC00
FFFE000007FFF800
FFFE000007FFF000
FFFE00000FFFF000
FFFE00001FFFE000
FFFE00001FFFC000
FFFE00003FFFC000
FFFE00003FFF8000
FFFE00007FFF0000
FFFE0000FFFF0000
FFFE0000FFFE0000
FFFE0001FFFC0000
FFFE0003FFF80000
FFFE0003FFF80000
FFFE0007FFF00000
FFFE0007FFE00000
FFFE000FFFE00000
FFFE001FFFC00000
FFFE001FFF800000
FFFE003FFF800000
FFFE007FFF000000
FFFE007FFE000000
FFFE00FFFE000000
FFFE01FFFC000000
FFFE01FFF8000000
FFFE03FFF8000000
FFFE03FFF0000000
FFFE07FFE0000000
FFFE0FFFE0000000
FFFE0FFFC0000000
FFFE0FFF80000000
FFFE0FFF80000000
FFFE0FFF00000000
FFFE0FFF00000000
FFFE0FFF00000000
FFFE0FFF80000000
FFFE0FFFC0000000
FFFE0FFFC0000000
FFFE0FFFE0000000
FFFE0FFFE0000000
FFFE0FFFF0000000
FFFE07FFF0000000
FFFE07FFF8000000
FFFE03FFFC000000
FFFE03FFFC000000
FFFE01FFFE000000
FFFE00FFFE000000
FFFE00FFFF000000
FFFE007FFF000000
FFFE007FFF800000
FFFE003FFFC00000
FFFE003FFFC00000
FFFE001FFFE00000
FFFE001FFFE00000
FFFE000FFFF00000
FFFE000FFFF00000
FFFE0007FFF80000
FFFE0007FFFC0000
FFFE0003FFFC0000
FFFE0003FFFE0000
FFFE0001FFFE0000
FFFE0001FFFF0000
FFFE0000FFFF0000
FFFE0000FFFF8000
FFFE00007FFFC000
FFFE00003FFFC000
FFFE00003FFFE000
FFFE00001FFFE000
FFFE00001FFFF000
FFFE00000FFFF000
FFFE00000FFFF800
FFFE000007FFFC00
FFFE000007FFFC00
FFFE000003FFFE00
FFFE000003FFFE00
FFFE000001FFFF00
FFFE000001FFFF00
FFFE000000FFFF80
FFFE000000FFFFC0
FFFE0000007FFFC0
FFFE0000007FFFE0
FFFE0000003FFFE0
FFFE0000003FFFF0
FFFE0000001FFFF0
FFFC0000000FFFF8
FFFC00000007FFFC
FFF800000003FFFC
ENDCHAR
STARTCHAR 006C
ENCODING 108
SWIDTH 221 0
DWIDTH 42 0
BBX 16 133 13 0
BITMAP
3FFF
7FFF
7FFF
7FFF
FFFF
FFFF
FFFF
FFFF
FFFF
FFFF
FFFF
FFFF
FFFF
FFFF
FFFF
FFFF
FFFF
FFFF
FFFF
FFFF
FFFF
FFFF
FFFF
FFFF
FFFF
FFFF
FFFF
FFFF
FFFF
FFFF
FFFF
FFFF
FFFF
FFFF
FFFF
FFFF
FFFF
FFFF
FFFF
FFFF
FFFF
FFFF
FFFF
FFFF
FFFF
FFFF
FFFF
FFFF
FFFF
FFFF
FFFF
FFFF
FFFF
FFFF
FFFF
FFFF
FFFF
FFFF
FFFF
FFFF
FFFF
FFFF
FFFF
FFFF
FFFF
FFFF
FFFF
FFFF
FFFF
FFFF
FFFF
FFFF
FFFF
FFFF
FFFF
FFFF
FFFF
FFFF
FFFF
FFFF
FFFF
FFFF
FFFF
FFFF
FFFF
FFFF
FFFF
FFFF
FFFF
FFFF
FFFF
FFFF
FFFF
FFFF
FFFF
FFFF
FFFF
FFFF
FFFF
FFFF
FFFF
FFFF
FFFF
FFFF
FFFF
FFFF
FFFF
FFFF
FFFF
FFFF
FFFF
FFFF
FFFF
FFFF
FFFF
FFFF
FFFF
FFFF
FFFF
FFFF
FFFF
FFFF
FFFF
FFFF
FFFF
FFFF
FFFF
FFFF
FFFF
FFFF
FFFE
FFFE
FFFC
ENDCHAR
STARTCHAR 006D
ENCODING 109
SWIDTH 694 0
DWIDTH 132 0
BBX 108 97 12 0
BITMAP
3FFF01FFFFFFC00007FFFFFF0000
7FFF07FFFFFFFC003FFFFFFFF000
7FFF1FFFFFFFFF007FFFFFFFFC00
FFFF3FFFFFFFFF80FFFFFFFFFE00
FFFF3FFFFFFFFFC0FFFFFFFFFF80
FFFF7FFFFFFFFFE1FFFFFFFFFF80
FFFF7FFFFFFFFFF1FFFFFFFFFFC0
FFFFFFFFFFFFFFF3FFFFFFFFFFC0
FFFFFFFFFFFFFFF3FFFFFFFFFFE0
FFFFFFFFFFFFFFFBFFFFFFFFFFE0
FFFFFFFFFFFFFFFFFFFFFFFFFFE0
FFFF0000003FFFF8000000FFFFF0
FFFF0000000FFFF80000001FFFF0
FFFF00000007FFFC0000000FFFF0
FFFF00000003FFFC0000000FFFF0
FFFF00000003FFFC0000000FFFF0
FFFF00000003FFFC00000007FFF0
FFFF00000003FFFC00000007FFF0
FFFF00000001FFFC00000007FFF0
FFFF00000001FFFC00000007FFF0
FFFF00000001FFFC00000007FFF0
FFFF00000001FFFC00000007FFF0
FFFF00000001FFFC00000007FFF0
FFFF00000001FFFC00000007FFF0
FFFF00000001FFFC00000007FFF0
FFFF00000001FFFC00000007FFF0
FFFF00000001FFFC00000007FFF0
FFFF00000001FFFC00000007FFF0
FFFF00000001FFFC00000007FFF0
FFFF00000001FFFC00000007FFF0
FFFF00000001FFFC00000007FFF0
FFFF00000001FFFC00000007FFF0
FFFF00000001FFFC00000007FFF0
FFFF00000001FFFC00000007FFF0
FFFF00000001FFFC00000007FFF0
FFFF00000001FFFC00000007FFF0
FFFF00000001FFFC00000007FFF0
FFFF00000001FFFC00000007FFF0
FFFF00000001FFFC00000007FFF0
FFFF00000001FFFC00000007FFF0
FFFF00000001FFFC00000007FFF0
FFFF00000001FFFC00000007FFF0
FFFF00000001FFFC00000007FFF0
FFFF00000001FFFC00000007FFF0
FFFF00000001FFFC00000007FFF0
FFFF00000001FFFC00000007FFF0
FFFF00000001FFFC00000007FFF0
FFFF00000001FFFC00000007FFF0
FFFF00000001FFFC00000007FFF0
FFFF00000001FFFC00000007FFF0
FFFF00000001FFFC00000007FFF0
FFFF00000001FFFC00000007FFF0
FFFF00000001FFFC00000007FFF0
FFFF00000001FFFC00000007FFF0
FFFF00000001FFFC00000007FFF0
FFFF00000001FFFC00000007FFF0
FFFF00000001FFFC00000007FFF0
FFFF00000001FFFC00000007FFF0
FFFF00000001FFFC00000007FFF0
FFFF00000001FFFC00000007FFF0
FFFF00000001FFFC00000007FFF0
FFFF00000001FFFC00000007FFF0
FFFF00000001FFFC00000007FFF0
FFFF00000001FFFC00000007FFF0
FFFF00000001FFFC00000007FFF0
FFFF00000001FFFC00000007FFF0
FFFF00000001FFFC00000007FFF0
FFFF00000001FFFC00000007FFF0
FFFF00000001FFFC00000007FFF0
FFFF00000001FFFC00000007FFF0
FFFF00000001FFFC00000007FFF0
FFFF00000001FFFC00000007FFF0
FFFF00000001FFFC00000007FFF0
FFFF00000001FFFC00000007FFF0
FFFF00000001FFFC00000007FFF0
FFFF00000001FFFC00000007FFF0
FFFF00000001FFFC00000007FFF0
FFFF00000001FFFC00000007FFF0
FFFF00000001FFFC00000007FFF0
FFFF00000001FFFC00000007FFF0
FFFF00000001FFFC00000007FFF0
FFFF00000001FFFC00000007FFF0
FFFF00000001FFFC00000007FFF0
FFFF00000001FFFC00000007FFF0
FFFF00000001FFFC00000007FFF0
FFFF00000001FFFC00000007FFF0
FFFF00000001FFFC00000007FFF0
FFFF00000001FFFC00000007FFF0
FFFF00000001FFFC00000007FFF0
FFFF00000001FFFC00000007FFF0
FFFF00000001FFFC00000007FFF0
FFFF00000001FFFC00000007FFF0
FFFF00000001FFFC00000007FFF0
FFFE00000001FFFC00000007FFF0
FFFE00000001FFFC00000007FFF0
FFFE00000001FFF800000007FFF0
FFFC00000001FFF000000007FFC0
ENDCHAR
STARTCHAR 006E
ENCODING 110
SWIDTH 457 0
DWIDTH 87 0
BBX 63 97 12 0
BITMAP
3FFF01FFFFFFE000
7FFF07FFFFFFFE00
7FFF1FFFFFFFFF80
FFFF3FFFFFFFFFC0
FFFF3FFFFFFFFFE0
FFFF7FFFFFFFFFF0
FFFF7FFFFFFFFFF8
FFFFFFFFFFFFFFF8
FFFFFFFFFFFFFFFC
FFFFFFFFFFFFFFFC
FFFFFFFFFFFFFFFC
FFFF0000001FFFFC
FFFF00000007FFFE
FFFF00000003FFFE
FFFF00000001FFFE
FFFF00000001FFFE
FFFF00000001FFFE
FFFF00000000FFFE
FFFF00000000FFFE
FFFF00000000FFFE
FFFF00000000FFFE
FFFF00000000FFFE
FFFF00000000FFFE
FFFF00000000FFFE
FFFF00000000FFFE
FFFF00000000FFFE
FFFF00000000FFFE
FFFF00000000FFFE
FFFF00000000FFFE
FFFF00000000FFFE
FFFF00000000FFFE
FFFF00000000FFFE
FFFF00000000FFFE
FFFF00000000FFFE
FFFF00000000FFFE
FFFF00000000FFFE
FFFF00000000FFFE
FFFF00000000FFFE
FFFF00000000FFFE
FFFF00000000FFFE
FFFF00000000FFFE
FFFF00000000FFFE
FFFF00000000FFFE
FFFF00000000FFFE
FFFF00000000FFFE
FFFF00000000FFFE
FFFF00000000FFFE
FFFF00000000FFFE
FFFF00000000FFFE
FFFF00000000FFFE
FFFF00000000FFFE
FFFF00000000FFFE
FFFF00000000FFFE
FFFF00000000FFFE
FFFF00000000FFFE
FFFF00000000FFFE
FFFF00000000FFFE
FFFF00000000FFFE
FFFF00000000FFFE
FFFF00000000FFFE
FFFF00000000FFFE
FFFF00000000FFFE
FFFF00000000FFFE
FFFF00000000FFFE
FFFF00000000FFFE
FFFF00000000FFFE
FFFF00000000FFFE
FFFF00000000FFFE
FFFF00000000FFFE
FFFF00000000FFFE
FFFF00000000FFFE
FFFF00000000FFFE
FFFF00000000FFFE
FFFF00000000FFFE
FFFF00000000FFFE
FFFF00000000FFFE
FFFF00000000FFFE
FFFF00000000FFFE
FFFF00000000FFFE
FFFF00000000FFFE
FFFF00000000FFFE
FFFF00000000FFFE
FFFF00000000FFFE
FFFF00000000FFFE
FFFF00000000FFFE
FFFF00000000FFFE
FFFF00000000FFFE
FFFF00000000FFFE
FFFF00000000FFFE
FFFF00000000FFFE
FFFF00000000FFFE
FFFF00000000FFFE
FFFF00000000FFFE
FFFE00000000FFFE
FFFE00000000FFFE
FFFE00000000FFFC
FFFC00000000FFF8
ENDCHAR
STARTCHAR 006F
ENCODING 111
SWIDTH 457 0
DWIDTH 87 0
BBX 63 97 12 0
BITMAP
000FFFFFFFFFE000
00FFFFFFFFFFFC00
03FFFFFFFFFFFF00
07FFFFFFFFFFFFC0
0FFFFFFFFFFFFFE0
1FFFFFFFFFFFFFF0
3FFFFFFFFFFFFFF0
3FFFFFFFFFFFFFF8
7FFFFFFFFFFFFFF8
7FFFFFFFFFFFFFFC
7FFFFFFFFFFFFFFC
7FFFF000001FFFFC
FFFFC0000007FFFC
FFFF80000003FFFC
FFFF00000003FFFC
FFFF00000001FFFE
FFFF00000001FFFE
FFFE00000001FFFE
FFFE00000001FFFE
FFFE00000001FFFE
FFFE00000001FFFE
FFFE00000001FFFE
FFFE00000001FFFE
FFFE00000001FFFE
FFFE00000001FFFE
FFFE00000001FFFE
FFFE00000001FFFE
FFFE00000001FFFE
FFFE00000001FFFE
FFFE00000001FFFE
FFFE00000001FFFE
FFFE00000001FFFE
FFFE00000001FFFE
FFFE00000001FFFE
FFFE00000001FFFE
FFFE00000001FFFE
FFFE00000001FFFE
FFFE00000001FFFE
FFFE00000001FFFE
FFFE00000001FFFE
FFFE00000001FFFE
FFFE00000001FFFE
FFFE00000001FFFE
FFFE00000001FFFE
FFFE00000001FFFE
FFFE00000001FFFE
FFFE00000001FFFE
FFFE00000001FFFE
FFFE00000001FFFE
FFFE00000001FFFE
FFFE00000001FFFE
FFFE00000001FFFE
FFFE00000001FFFE
FFFE00000001FFFE
FFFE00000001FFFE
FFFE00000001FFFE
FFFE00000001FFFE
FFFE00000001FFFE
FFFE00000001FFFE
FFFE00000001FFFE
FFFE00000001FFFE
FFFE00000001FFFE
FFFE00000001FFFE
FFFE00000001FFFE
FFFE00000001FFFE
FFFE00000001FFFE
FFFE00000001FFFE
FFFE00000001FFFE
FFFE00000001FFFE
FFFE00000001FFFE
FFFE00000001FFFE
FFFE00000001FFFE
FFFE00000001FFFE
FFFE00000001FFFE
FFFE00000001FFFE
FFFE00000001FFFE
FFFE00000001FFFE
FFFE00000001FFFE
FFFE00000001FFFE
FFFE00000001FFFE
FFFF00000001FFFE
FFFF00000001FFFE
FFFF00000003FFFE
FFFF80000003FFFC
FFFFC0000007FFFC
7FFFF000001FFFFC
7FFFFFFFFFFFFFFC
7FFFFFFFFFFFFFFC
7FFFFFFFFFFFFFF8
3FFFFFFFFFFFFFF8
3FFFFFFFFFFFFFF0
1FFFFFFFFFFFFFF0
0FFFFFFFFFFFFFE0
07FFFFFFFFFFFFC0
03FFFFFFFFFFFF80
00FFFFFFFFFFFC00
000FFFFFFFFFE000
ENDCHAR
STARTCHAR 0070
ENCODING 112
SWIDTH 457 0
DWIDTH 87 0
BBX 63 135 12 -38
BITMAP
3FFF007FFFFFE000
7FFF00FFFFFFFE00
7FFF01FFFFFFFF80
FFFF01FFFFFFFFC0
FFFF01FFFFFFFFE0
FFFF01FFFFFFFFF0
FFFF01FFFFFFFFF8
FFFF01FFFFFFFFF8
FFFF01FFFFFFFFFC
FFFF01FFFFFFFFFC
FFFF01FFFFFFFFFC
FFFF0000001FFFFC
FFFF00000007FFFE
FFFF00000003FFFE
FFFF00000001FFFE
FFFF00000001FFFE
FFFF00000001FFFE
FFFF00000000FFFE
FFFF00000000FFFE
FFFF00000000FFFE
FFFF00000000FFFE
FFFF00000000FFFE
FFFF00000000FFFE
FFFF00000000FFFE
FFFF00000000FFFE
FFFF00000000FFFE
FFFF00000000FFFE
FFFF00000000FFFE
FFFF00000000FFFE
FFFF00000000FFFE
FFFF00000000FFFE
FFFF00000000FFFE
FFFF00000000FFFE
FFFF00000000FFFE
FFFF00000000FFFE
FFFF00000000FFFE
FFFF00000000FFFE
FFFF00000000FFFE
FFFF00000000FFFE
FFFF00000000FFFE
FFFF00000000FFFE
FFFF00000000FFFE
FFFF00000000FFFE
FFFF00000000FFFE
FFFF00000000FFFE
FFFF00000000FFFE
FFFF00000000FFFE
FFFF00000000FFFE
FFFF00000000FFFE
FFFF00000000FFFE
FFFF00000000FFFE
FFFF00000000FFFE
FFFF00000000FFFE
FFFF00000000FFFE
FFFF00000000FFFE
FFFF00000000FFFE
FFFF00000000FFFE
FFFF00000000FFFE
FFFF00000000FFFE
FFFF00000000FFFE
FFFF00000000FFFE
FFFF00000000FFFE
FFFF00000000FFFE
FFFF00000000FFFE
FFFF00000000FFFE
FFFF00000000FFFE
FFFF00000000FFFE
FFFF00000000FFFE
FFFF00000000FFFE
FFFF00000000FFFE
FFFF00000000FFFE
FFFF00000000FFFE
FFFF00000000FFFE
FFFF00000000FFFE
FFFF00000000FFFE
FFFF00000000FFFE
FFFF00000000FFFE
FFFF00000000FFFE
FFFF00000000FFFE
FFFF00000000FFFE
FFFF00000001FFFE
FFFF00000001FFFE
FFFF00000001FFFE
FFFF00000003FFFE
FFFF00000007FFFE
FFFF0000001FFFFC
FFFFFFFFFFFFFFFC
FFFFFFFFFFFFFFFC
FFFFFFFFFFFFFFFC
FFFFFFFFFFFFFFF8
FFFF7FFFFFFFFFF8
FFFF7FFFFFFFFFF0
FFFF3FFFFFFFFFE0
FFFF3FFFFFFFFFC0
FFFF1FFFFFFFFF80
FFFF07FFFFFFFE00
FFFF01FFFFFFE000
FFFF000000000000
FFFF000000000000
FFFF000000000000
FFFF000000000000
FFFF000000000000
FFFF000000000000
FFFF000000000000
FFFF000000000000
FFFF000000000000
FFFF000000000000
FFFF000000000000
FFFF000000000000
FFFF000000000000
FFFF000000000000
FFFF000000000000
FFFF000000000000
FFFF000000000000
FFFF000000000000
FFFF000000000000
FFFF000000000000
FFFF000000000000
FFFF000000000000
FFFF000000000000
FFFF000000000000
FFFF000000000000
FFFF000000000000
FFFF000000000000
FFFF000000000000
FFFF000000000000
FFFF000000000000
FFFF000000000000
FFFF000000000000
FFFF000000000000
FFFF000000000000
FFFE000000000000
FFFE000000000000
FFFE000000000000
FFFC000000000000
ENDCHAR
STARTCHAR 0071
ENCODING 113
SWIDTH 457 0
DWIDTH 87 0
BBX 63 135 12 -38
BITMAP
000FFFFFFF007FFE
00FFFFFFFFC0FFFE
03FFFFFFFFF0FFFE
07FFFFFFFFF8FFFE
0FFFFFFFFFF9FFFE
1FFFFFFFFFFDFFFE
3FFFFFFFFFFDFFFE
3FFFFFFFFFFDFFFE
7FFFFFFFFFFFFFFE
7FFFFFFFFFFFFFFE
7FFFFFFFFFFFFFFE
7FFFF0000001FFFE
FFFFC0000001FFFE
FFFF80000001FFFE
FFFF00000001FFFE
FFFF00000001FFFE
FFFF00000001FFFE
FFFE00000001FFFE
FFFE00000001FFFE
FFFE00000001FFFE
FFFE00000001FFFE
FFFE00000001FFFE
FFFE00000001FFFE
FFFE00000001FFFE
FFFE00000001FFFE
FFFE00000001FFFE
FFFE00000001FFFE
FFFE00000001FFFE
FFFE00000001FFFE
FFFE00000001FFFE
FFFE00000001FFFE
FFFE00000001FFFE
FFFE00000001FFFE
FFFE00000001FFFE
FFFE00000001FFFE
FFFE00000001FFFE
FFFE00000001FFFE
FFFE00000001FFFE
FFFE00000001FFFE
FFFE00000001FFFE
FFFE00000001FFFE
FFFE00000001FFFE
FFFE00000001FFFE
FFFE00000001FFFE
FFFE00000001FFFE
FFFE00000001FFFE
FFFE00000001FFFE
FFFE00000001FFFE
FFFE00000001FFFE
FFFE00000001FFFE
FFFE00000001FFFE
FFFE00000001FFFE
FFFE00000001FFFE
FFFE00000001FFFE
FFFE00000001FFFE
FFFE00000001FFFE
FFFE00000001FFFE
FFFE00000001FFFE
FFFE00000001FFFE
FFFE00000001FFFE
FFFE00000001FFFE
FFFE00000001FFFE
FFFE00000001FFFE
FFFE00000001FFFE
FFFE00000001FFFE
FFFE00000001FFFE
FFFE00000001FFFE
FFFE00000001FFFE
FFFE00000001FFFE
FFFE00000001FFFE
FFFE00000001FFFE
FFFE00000001FFFE
FFFE00000001FFFE
FFFE00000001FFFE
FFFE00000001FFFE
FFFE00000001FFFE
FFFE00000001FFFE
FFFE00000001FFFE
FFFE00000001FFFE
FFFE00000001FFFE
FFFF00000001FFFE
FFFF00000001FFFE
FFFF00000001FFFE
FFFF80000001FFFE
FFFFC0000001FFFE
7FFFF0000001FFFE
7FFFFFFFFF01FFFE
7FFFFFFFFF01FFFE
7FFFFFFFFF01FFFE
3FFFFFFFFF01FFFE
3FFFFFFFFF01FFFE
1FFFFFFFFF01FFFE
0FFFFFFFFF01FFFE
07FFFFFFFF01FFFE
03FFFFFFFF01FFFE
00FFFFFFFE01FFFE
000FFFFFFC01FFFE
000000000001FFFE
000000000001FFFE
000000000001FFFE
000000000001FFFE
000000000001FFFE
000000000001FFFE
000000000001FFFE
000000000001FFFE
000000000001FFFE
000000000001FFFE
000000000001FFFE
000000000001FFFE
000000000001FFFE
000000000001FFFE
000000000001FFFE
000000000001FFFE
000000000001FFFE
000000000001FFFE
000000000001FFFE
000000000001FFFE
000000000001FFFE
000000000001FFFE
000000000001FFFE
000000000001FFFE
000000000001FFFE
000000000001FFFE
000000000001FFFE
000000000001FFFE
000000000001FFFE
000000000001FFFE
000000000001FFFE
000000000001FFFE
000000000001FFFE
000000000001FFFE
000000000001FFFE
000000000001FFFC
000000000001FFFC
000000000001FFF8
ENDCHAR
STARTCHAR 0072
ENCODING 114
SWIDTH 310 0
DWIDTH 59 0
BBX 41 97 12 0
BITMAP
3FFF00FFFE00
7FFF03FFFF00
7FFF0FFFFF80
FFFF1FFFFF80
FFFF1FFFFF80
FFFF3FFFFF80
FFFF3FFFFF80
FFFF7FFFFF80
FFFF7FFFFF80
FFFFFFFFFF80
FFFFFFFFFF80
FFFF00000000
FFFF00000000
FFFF00000000
FFFF00000000
FFFF00000000
FFFF00000000
FFFF00000000
FFFF00000000
FFFF00000000
FFFF00000000
FFFF00000000
FFFF00000000
FFFF00000000
FFFF00000000
FFFF00000000
FFFF00000000
FFFF00000000
FFFF00000000
FFFF00000000
FFFF00000000
FFFF00000000
FFFF00000000
FFFF00000000
FFFF00000000
FFFF00000000
FFFF00000000
FFFF00000000
FFFF00000000
FFFF00000000
FFFF00000000
FFFF00000000
FFFF00000000
FFFF00000000
FFFF00000000
FFFF00000000
FFFF00000000
FFFF00000000
FFFF00000000
FFFF00000000
FFFF00000000
FFFF00000000
FFFF00000000
FFFF00000000
FFFF00000000
FFFF00000000
FFFF00000000
FFFF00000000
FFFF00000000
FFFF00000000
FFFF00000000
FFFF00000000
FFFF00000000
FFFF00000000
FFFF00000000
FFFF00000000
FFFF00000000
FFFF00000000
FFFF00000000
FFFF00000000
FFFF00000000
FFFF00000000
FFFF00000000
FFFF00000000
FFFF00000000
FFFF00000000
FFFF00000000
FFFF00000000
FFFF00000000
FFFF00000000
FFFF00000000
FFFF00000000
FFFF00000000
FFFF00000000
FFFF00000000
FFFF00000000
FFFF00000000
FFFF00000000
FFFF00000000
FFFF00000000
FFFF00000000
FFFF00000000
FFFF00000000
FFFE00000000
FFFE00000000
FFFE00000000
FFFC00000000
ENDCHAR
STARTCHAR 0073
ENCODING 115
SWIDTH 373 0
DWIDTH 71 0
BBX 50 97 11 0
BITMAP
000FFFFFFFFC00
00FFFFFFFFFE00
03FFFFFFFFFF00
07FFFFFFFFFF00
0FFFFFFFFFFF00
1FFFFFFFFFFF00
3FFFFFFFFFFF00
3FFFFFFFFFFF00
7FFFFFFFFFFF00
7FFFFFFFFFFF00
7FFFFFFFFFFF00
FFFFE000000000
FFFF8000000000
FFFF0000000000
FFFE0000000000
FFFE0000000000
FFFE0000000000
FFFC0000000000
FFFC0000000000
FFFC0000000000
FFFC0000000000
FFFC0000000000
FFFC0000000000
FFFC0000000000
FFFC0000000000
FFFC0000000000
FFFC0000000000
FFFC0000000000
FFFC0000000000
FFFC0000000000
FFFC0000000000
FFFC0000000000
FFFC0000000000
FFFC0000000000
FFFC0000000000
FFFC0000000000
FFFC0000000000
FFFC0000000000
FFFC0000000000
FFFE0000000000
FFFE0000000000
FFFF0000000000
FFFFC000000000
FFFFFFFFFF8000
FFFFFFFFFFF000
7FFFFFFFFFFC00
7FFFFFFFFFFE00
7FFFFFFFFFFF00
3FFFFFFFFFFF00
3FFFFFFFFFFF80
1FFFFFFFFFFF80
0FFFFFFFFFFF80
03FFFFFFFFFF80
007FFFFFFFFFC0
00000001FFFFC0
000000007FFFC0
000000003FFFC0
000000001FFFC0
000000001FFFC0
000000001FFFC0
000000001FFFC0
000000000FFFC0
000000000FFFC0
000000000FFFC0
000000000FFFC0
000000000FFFC0
000000000FFFC0
000000000FFFC0
000000000FFFC0
000000000FFFC0
000000000FFFC0
000000000FFFC0
000000000FFFC0
000000000FFFC0
000000000FFFC0
000000000FFFC0
000000000FFFC0
000000000FFFC0
000000000FFFC0
000000001FFFC0
000000001FFFC0
000000001FFFC0
000000001FFFC0
000000003FFFC0
000000007FFFC0
00000001FFFF80
FFFFFFFFFFFF80
FFFFFFFFFFFF80
FFFFFFFFFFFF80
FFFFFFFFFFFF00
FFFFFFFFFFFF00
FFFFFFFFFFFE00
FFFFFFFFFFFC00
FFFFFFFFFFF800
FFFFFFFFFFF000
FFFFFFFFFFC000
7FFFFFFFFC0000
ENDCHAR
STARTCHAR 0074
ENCODING 116
SWIDTH 305 0
DWIDTH 58 0
BBX 40 119 13 0
BITMAP
7FFE000000
FFFE000000
FFFE000000
FFFE000000
FFFE000000
FFFE000000
FFFE000000
FFFE000000
FFFE000000
FFFE000000
FFFE000000
FFFE000000
FFFE000000
FFFE000000
FFFE000000
FFFE000000
FFFE000000
FFFE000000
FFFE000000
FFFE000000
FFFE000000
FFFE000000
FFFFFFFFF0
FFFFFFFFFC
FFFFFFFFFC
FFFFFFFFFC
FFFFFFFFFC
FFFFFFFFFC
FFFFFFFFFC
FFFFFFFFFC
FFFFFFFFFC
FFFFFFFFFC
FFFFFFFFFC
FFFE000000
FFFE000000
FFFE000000
FFFE000000
FFFE000000
FFFE000000
FFFE000000
FFFE000000
FFFE000000
FFFE000000
FFFE000000
FFFE000000
FFFE000000
FFFE000000
FFFE000000
FFFE000000
FFFE000000
FFFE000000
FFFE000000
FFFE000000
FFFE000000
FFFE000000
FFFE000000
FFFE000000
FFFE000000
FFFE000000
FFFE000000
FFFE000000
FFFE000000
FFFE000000
FFFE000000
FFFE000000
FFFE000000
FFFE000000
FFFE000000
FFFE000000
FFFE000000
FFFE000000
FFFE000000
FFFE000000
FFFE000000
FFFE000000
FFFE000000
FFFE000000
FFFE000000
FFFE000000
FFFE000000
FFFE000000
FFFE000000
FFFE000000
FFFE000000
FFFE000000
FFFE000000
FFFE000000
FFFE000000
FFFE000000
FFFE000000
FFFE000000
FFFE000000
FFFE000000
FFFE000000
FFFE000000
FFFE000000
FFFE000000
FFFE000000
FFFE000000
FFFE000000
FFFE000000
FFFE000000
FFFE000000
FFFE000000
FFFF000000
FFFF000000
FFFF800000
FFFFE00000
FFFFFFFFFF
7FFFFFFFFF
7FFFFFFFFF
7FFFFFFFFF
3FFFFFFFFF
3FFFFFFFFE
1FFFFFFFFE
0FFFFFFFFC
03FFFFFFFC
00FFFFFFF8
001FFFFFE0
ENDCHAR
STARTCHAR 0075
ENCODING 117
SWIDTH 457 0
DWIDTH 87 0
BBX 63 97 12 0
BITMAP
3FFE000000003FFE
7FFE00000000FFFE
FFFE00000000FFFE
FFFE00000000FFFE
FFFE00000000FFFE
FFFE00000000FFFE
FFFE00000000FFFE
FFFE00000000FFFE
FFFE00000000FFFE
FFFE00000000FFFE
FFFE00000000FFFE
FFFE00000000FFFE
FFFE00000000FFFE
FFFE00000000FFFE
FFFE00000000FFFE
FFFE00000000FFFE
FFFE00000000FFFE
FFFE00000000FFFE
FFFE00000000FFFE
FFFE00000000FFFE
FFFE00000000FFFE
FFFE00000000FFFE
FFFE00000000FFFE
FFFE00000000FFFE
FFFE00000000FFFE
FFFE00000000FFFE
FFFE00000000FFFE
FFFE00000000FFFE
FFFE00000000FFFE
FFFE00000000FFFE
FFFE00000000FFFE
FFFE00000000FFFE
FFFE00000000FFFE
FFFE00000000FFFE
FFFE00000000FFFE
FFFE00000000FFFE
FFFE00000000FFFE
FFFE00000000FFFE
FFFE00000000FFFE
FFFE00000000FFFE
FFFE00000000FFFE
FFFE00000000FFFE
FFFE00000000FFFE
FFFE00000000FFFE
FFFE00000000FFFE
FFFE00000000FFFE
FFFE00000000FFFE
FFFE00000000FFFE
FFFE00000000FFFE
FFFE00000000FFFE
FFFE00000000FFFE
FFFE00000000FFFE
FFFE00000000FFFE
FFFE00000000FFFE
FFFE00000000FFFE
FFFE00000000FFFE
FFFE00000000FFFE
FFFE00000000FFFE
FFFE00000000FFFE
FFFE00000000FFFE
FFFE00000000FFFE
FFFE00000000FFFE
FFFE00000000FFFE
FFFE00000000FFFE
FFFE00000000FFFE
FFFE00000000FFFE
FFFE00000000FFFE
FFFE00000000FFFE
FFFE00000000FFFE
FFFE00000000FFFE
FFFE00000000FFFE
FFFE00000000FFFE
FFFE00000000FFFE
FFFE00000000FFFE
FFFE00000000FFFE
FFFE00000000FFFE
FFFE00000000FFFE
FFFE00000000FFFE
FFFE00000000FFFE
FFFF00000000FFFE
FFFF00000000FFFE
FFFF00000000FFFE
FFFF00000000FFFE
FFFF80000000FFFE
7FFFC0000000FFFE
7FFFF0000000FFFE
7FFFFFFFFF00FFFE
7FFFFFFFFF00FFFE
3FFFFFFFFF00FFFE
3FFFFFFFFF00FFFE
3FFFFFFFFF00FFFE
1FFFFFFFFF00FFFE
0FFFFFFFFF00FFFE
07FFFFFFFF00FFFE
03FFFFFFFF00FFFE
00FFFFFFFE00FFFC
000FFFFFFC00FFF8
ENDCHAR
STARTCHAR 0076
ENCODING 118
SWIDTH 426 0
DWIDTH 81 0
BBX 68 97 7 0
BITMAP
7FF000000000007FF0
FFF80000000001FFF0
FFF80000000001FFE0
FFF80000000003FFE0
FFF80000000003FFE0
FFFC0000000003FFE0
FFFC0000000007FFC0
FFFC0000000007FFC0
7FFE0000000007FFC0
7FFE0000000007FF80
7FFE000000000FFF80
3FFE000000000FFF80
3FFF000000000FFF80
3FFF000000001FFF00
3FFF000000001FFF00
1FFF000000001FFF00
1FFF800000001FFE00
1FFF800000003FFE00
1FFF800000003FFE00
0FFFC00000003FFE00
0FFFC00000007FFC00
0FFFC00000007FFC00
07FFC00000007FFC00
07FFE00000007FFC00
07FFE0000000FFF800
07FFE0000000FFF800
03FFF0000000FFF800
03FFF0000001FFF000
03FFF0000001FFF000
03FFF0000001FFF000
01FFF8000001FFF000
01FFF8000003FFE000
01FFF8000003FFE000
00FFF8000003FFE000
00FFFC000007FFC000
00FFFC000007FFC000
00FFFC000007FFC000
007FFE000007FFC000
007FFE00000FFF8000
007FFE00000FFF8000
007FFE00000FFF8000
003FFF00001FFF8000
003FFF00001FFF0000
003FFF00001FFF0000
001FFF80001FFF0000
001FFF80003FFE0000
001FFF80003FFE0000
001FFF80003FFE0000
000FFFC0003FFE0000
000FFFC0007FFC0000
000FFFC0007FFC0000
000FFFC0007FFC0000
0007FFE000FFFC0000
0007FFE000FFF80000
0007FFE000FFF80000
0003FFF000FFF80000
0003FFF001FFF00000
0003FFF001FFF00000
0003FFF001FFF00000
0001FFF803FFF00000
0001FFF803FFE00000
0001FFF803FFE00000
0001FFF803FFE00000
0000FFFC03FFC00000
0000FFFC07FFC00000
0000FFFC07FFC00000
00007FFC07FFC00000
00007FFC07FF800000
00007FFC07FF800000
00007FFE07FF800000
00003FFE0FFF800000
00003FFE0FFF000000
00003FFE0FFF000000
00001FFE0FFF000000
00001FFF0FFE000000
00001FFF0FFE000000
00001FFF1FFE000000
00000FFF1FFE000000
00000FFF1FFC000000
00000FFF1FFC000000
00000FFF9FFC000000
000007FFBFF8000000
000007FFBFF8000000
000007FFFFF8000000
000003FFFFF8000000
000003FFFFF0000000
000003FFFFF0000000
000003FFFFF0000000
000001FFFFF0000000
000001FFFFE0000000
000001FFFFE0000000
000001FFFFE0000000
000000FFFFC0000000
000000FFFFC0000000
000000FFFFC0000000
0000007FFF80000000
0000007FFF00000000
ENDCHAR
STARTCHAR 0077
ENCODING 119
SWIDTH 584 0
DWIDTH 111 0
BBX 100 97 6 0
BITMAP
7FF80000000000000000007FF0
FFF8000000000000000001FFF0
FFF8000000000000000001FFF0
FFFC000000000000000001FFF0
FFFC000000000000000001FFF0
FFFC000000000000000003FFF0
FFFC000000000000000003FFE0
FFFC000000000000000003FFE0
7FFC000000000000000003FFE0
7FFC000000000000000003FFE0
7FFE000000000000000003FFE0
7FFE000000000000000003FFE0
7FFE000000000000000007FFC0
7FFE000000000000000007FFC0
3FFE000000000000000007FFC0
3FFE000000000000000007FFC0
3FFF000000000000000007FFC0
3FFF000000000000000007FFC0
3FFF000000000000000007FF80
3FFF00000000000000000FFF80
1FFF00000000000000000FFF80
1FFF00000000000000000FFF80
1FFF00000000000000000FFF80
1FFF8000000FFFE000000FFF80
1FFF8000001FFFE000000FFF00
1FFF8000001FFFF000001FFF00
0FFF8000003FFFF000001FFF00
0FFF8000003FFFF000001FFF00
0FFF8000003FFFF000001FFF00
0FFF8000007FFFF800001FFF00
0FFFC000007FFFF800001FFE00
0FFFC000007FFFF800001FFE00
07FFC000007FFFF800003FFE00
07FFC00000FFDFFC00003FFE00
07FFC00000FFDFFC00003FFE00
07FFC00000FF8FFC00003FFE00
07FFE00000FF8FFC00003FFC00
03FFE00001FF8FFE00003FFC00
03FFE00001FF8FFE00003FFC00
03FFE00001FF0FFE00007FFC00
03FFE00001FF07FE00007FFC00
03FFE00003FF07FF00007FFC00
03FFE00003FF07FF00007FF800
01FFF00003FE07FF00007FF800
01FFF00007FE03FF00007FF800
01FFF00007FE03FF0000FFF800
01FFF00007FE03FF8000FFF800
01FFF00007FC03FF8000FFF800
01FFF0000FFC01FF8000FFF000
00FFF0000FFC01FF8000FFF000
00FFF8000FFC01FFC000FFF000
00FFF8000FFC01FFC000FFF000
00FFF8001FF801FFC001FFF000
00FFF8001FF800FFC001FFF000
00FFF8001FF800FFE001FFE000
007FF8001FF800FFE001FFE000
007FFC003FF000FFE001FFE000
007FFC003FF0007FE001FFE000
007FFC003FF0007FF001FFE000
007FFC003FF0007FF003FFE000
003FFC007FE0007FF003FFC000
003FFC007FE0003FF003FFC000
003FFC007FE0003FF803FFC000
003FFE00FFE0003FF803FFC000
003FFE00FFC0003FF803FFC000
003FFE00FFC0001FF807FFC000
001FFE00FFC0001FFC07FF8000
001FFE01FFC0001FFC07FF8000
001FFE01FF80001FFC07FF8000
001FFF01FF80000FFC07FF8000
001FFF01FF80000FFE07FF8000
001FFF03FF00000FFE07FF8000
000FFF03FF00000FFE0FFF0000
000FFF03FF000007FE0FFF0000
000FFF03FF000007FF0FFF0000
000FFF07FE000007FF0FFF0000
000FFF87FE000007FF0FFF0000
000FFF87FE000003FF0FFF0000
0007FF87FE000003FF8FFE0000
0007FF8FFC000003FF9FFE0000
0007FF8FFC000003FF9FFE0000
0007FF8FFC000001FF9FFE0000
0007FF9FFC000001FFDFFE0000
0007FFDFF8000001FFDFFE0000
0003FFFFF8000001FFFFFC0000
0003FFFFF8000000FFFFFC0000
0003FFFFF8000000FFFFFC0000
0003FFFFF0000000FFFFFC0000
0003FFFFF0000000FFFFFC0000
0001FFFFF00000007FFFFC0000
0001FFFFE00000007FFFFC0000
0001FFFFE00000007FFFF80000
0001FFFFE00000007FFFF80000
0001FFFFC00000003FFFF80000
0001FFFFC00000003FFFF80000
0000FFFF800000003FFFF00000
0000FFFF000000003FFFE00000
ENDCHAR
STARTCHAR 0078
ENCODING 120
SWIDTH 405 0
DWIDTH 77 0
BBX 65 97 6 0
BITMAP
7FFC000000001FFE00
FFFC000000003FFF00
FFFE000000003FFF00
7FFE000000007FFF00
7FFF000000007FFF00
3FFF00000000FFFE00
3FFF80000000FFFE00
1FFF80000001FFFC00
1FFFC0000001FFFC00
0FFFE0000003FFF800
0FFFE0000003FFF800
07FFF0000007FFF000
07FFF0000007FFE000
03FFF800000FFFE000
03FFF800000FFFC000
01FFFC00001FFFC000
01FFFC00001FFF8000
00FFFE00003FFF8000
00FFFE00003FFF0000
007FFF00007FFF0000
003FFF00007FFE0000
003FFF8000FFFE0000
001FFFC000FFFC0000
001FFFC001FFF80000
000FFFE001FFF80000
000FFFE003FFF00000
0007FFF003FFF00000
0007FFF007FFE00000
0003FFF007FFE00000
0003FFF807FFC00000
0001FFF80FFFC00000
0001FFF80FFF800000
0000FFFC1FFF800000
0000FFFC1FFF000000
00007FFE3FFE000000
00003FFE3FFE000000
00003FFE3FFC000000
00001FFF7FFC000000
00001FFFFFF8000000
00000FFFFFF8000000
00000FFFFFF0000000
000007FFFFF0000000
000007FFFFE0000000
000003FFFFE0000000
000003FFFFC0000000
000001FFFF80000000
000001FFFF80000000
000001FFFF00000000
000001FFFF00000000
000003FFFF00000000
000003FFFF00000000
000007FFFF80000000
000007FFFFC0000000
00000FFFFFC0000000
00000FFFFFE0000000
00001FFFFFE0000000
00001FFFFFF0000000
00003FFFFFF0000000
00003FFE7FF8000000
00007FFC7FFC000000
00007FFC7FFC000000
0000FFFC3FFE000000
0000FFF83FFE000000
0001FFF81FFF000000
0001FFF81FFF000000
0003FFF01FFF800000
0003FFF00FFF800000
0007FFE00FFFC00000
0007FFE007FFE00000
0007FFE007FFE00000
000FFFC007FFF00000
000FFFC003FFF00000
001FFF8003FFF80000
001FFF8001FFF80000
003FFF0000FFFC0000
003FFF0000FFFE0000
007FFE00007FFE0000
007FFE00007FFF0000
00FFFE00003FFF0000
00FFFC00003FFF8000
01FFFC00001FFF8000
01FFF800001FFFC000
03FFF800000FFFE000
03FFF000000FFFE000
07FFF0000007FFF000
07FFE0000003FFF000
0FFFE0000003FFF800
0FFFC0000001FFF800
1FFFC0000001FFFC00
1FFF80000000FFFC00
3FFF80000000FFFE00
3FFF800000007FFF00
7FFF000000007FFF00
7FFF000000003FFF80
FFFE000000003FFF80
7FFE000000001FFF80
7FFC000000001FFF00
ENDCHAR
STARTCHAR 0079
ENCODING 121
SWIDTH 426 0
DWIDTH 81 0
BBX 69 135 6 -38
BITMAP
3FF800000000003FF8
FFF800000000007FF8
FFF80000000000FFF8
FFFC0000000001FFF0
FFFC0000000001FFF0
FFFC0000000001FFF0
7FFC0000000001FFE0
7FFE0000000003FFE0
7FFE0000000003FFE0
7FFE0000000003FFE0
3FFE0000000007FFC0
3FFF0000000007FFC0
3FFF0000000007FFC0
3FFF0000000007FFC0
1FFF000000000FFF80
1FFF800000000FFF80
1FFF800000000FFF80
1FFF800000001FFF00
0FFF800000001FFF00
0FFFC00000001FFF00
0FFFC00000003FFF00
0FFFC00000003FFE00
07FFE00000003FFE00
07FFE00000003FFE00
07FFE00000007FFC00
07FFE00000007FFC00
03FFF00000007FFC00
03FFF0000000FFFC00
03FFF0000000FFF800
03FFF0000000FFF800
01FFF8000000FFF800
01FFF8000001FFF800
01FFF8000001FFF000
01FFF8000001FFF000
00FFFC000003FFF000
00FFFC000003FFE000
00FFFC000003FFE000
00FFFC000003FFE000
007FFE000007FFE000
007FFE000007FFC000
007FFE000007FFC000
003FFE00000FFFC000
003FFF00000FFF8000
003FFF00000FFF8000
003FFF00001FFF8000
001FFF80001FFF8000
001FFF80001FFF0000
001FFF80001FFF0000
001FFF80003FFF0000
000FFFC0003FFF0000
000FFFC0003FFE0000
000FFFC0007FFE0000
000FFFC0007FFE0000
0007FFE0007FFC0000
0007FFE0007FFC0000
0007FFE000FFFC0000
0007FFE000FFFC0000
0003FFF000FFF80000
0003FFF001FFF80000
0003FFF001FFF80000
0003FFF001FFF80000
0001FFF801FFF00000
0001FFF803FFF00000
0001FFF803FFF00000
0001FFF803FFE00000
0000FFF803FFE00000
0000FFFC07FFE00000
0000FFFC07FFE00000
0000FFFC07FFC00000
00007FFC07FFC00000
00007FFC07FFC00000
00007FFC0FFF800000
00007FFE0FFF800000
00003FFE0FFF800000
00003FFE0FFF800000
00003FFE0FFF000000
00003FFE1FFF000000
00001FFE1FFF000000
00001FFF1FFF000000
00001FFF1FFE000000
00001FFF1FFE000000
00000FFF3FFE000000
00000FFF3FFC000000
00000FFF3FFC000000
00000FFFBFFC000000
000007FFFFFC000000
000007FFFFF8000000
000007FFFFF8000000
000007FFFFF8000000
000003FFFFF8000000
000003FFFFF0000000
000003FFFFF0000000
000003FFFFF0000000
000001FFFFE0000000
000001FFFFE0000000
000001FFFFE0000000
000000FFFFE0000000
0000000FFFC0000000
0000000FFFC0000000
0000000FFFC0000000
0000000FFF80000000
0000001FFF80000000
0000001FFF80000000
0000001FFF80000000
0000001FFF00000000
0000003FFF00000000
0000003FFF00000000
0000003FFF00000000
0000003FFE00000000
0000007FFE00000000
0000007FFE00000000
0000007FFC00000000
000000FFFC00000000
000000FFFC00000000
000000FFFC00000000
000000FFF800000000
000001FFF800000000
000001FFF800000000
000001FFF000000000
000001FFF000000000
000003FFF000000000
000003FFF000000000
000003FFE000000000
000003FFE000000000
000007FFE000000000
000007FFE000000000
000007FFC000000000
00000FFFC000000000
00000FFFC000000000
00000FFF8000000000
00000FFF8000000000
00001FFF8000000000
00001FFF0000000000
00001FFF0000000000
00001FFC0000000000
ENDCHAR
STARTCHAR 007A
ENCODING 122
SWIDTH 368 0
DWIDTH 70 0
BBX 53 97 7 0
BITMAP
0FFFFFFFFFFFF0
3FFFFFFFFFFFF8
3FFFFFFFFFFFF8
3FFFFFFFFFFFF8
3FFFFFFFFFFFF8
3FFFFFFFFFFFF8
3FFFFFFFFFFFF8
3FFFFFFFFFFFF8
3FFFFFFFFFFFF8
3FFFFFFFFFFFF8
3FFFFFFFFFFFF8
0000000001FFF8
0000000003FFF8
0000000003FFF0
0000000007FFF0
0000000007FFE0
000000000FFFE0
000000000FFFC0
000000001FFFC0
000000001FFF80
000000003FFF80
000000003FFF00
000000007FFF00
000000007FFE00
00000000FFFC00
00000000FFFC00
00000001FFF800
00000001FFF800
00000003FFF000
00000003FFF000
00000007FFE000
0000000FFFE000
0000000FFFC000
0000001FFFC000
0000001FFF8000
0000003FFF8000
0000003FFF0000
0000007FFF0000
0000007FFE0000
000000FFFE0000
000000FFFC0000
000001FFFC0000
000001FFF80000
000003FFF80000
000003FFF00000
000007FFF00000
000007FFE00000
00000FFFE00000
00000FFFC00000
00001FFFC00000
00001FFF800000
00003FFF800000
00003FFF000000
00007FFE000000
00007FFE000000
0000FFFC000000
0000FFFC000000
0001FFF8000000
0003FFF8000000
0003FFF0000000
0007FFF0000000
0007FFE0000000
000FFFE0000000
000FFFC0000000
001FFFC0000000
001FFF80000000
003FFF80000000
003FFF00000000
007FFF00000000
007FFE00000000
00FFFE00000000
00FFFC00000000
01FFFC00000000
01FFF800000000
03FFF800000000
03FFF000000000
07FFF000000000
07FFE000000000
0FFFE000000000
0FFFC000000000
1FFFC000000000
1FFF8000000000
3FFF0000000000
7FFF0000000000
7FFE0000000000
FFFE0000000000
FFFFFFFFFFFFF8
FFFFFFFFFFFFF8
FFFFFFFFFFFFF8
FFFFFFFFFFFFF8
FFFFFFFFFFFFF8
FFFFFFFFFFFFF8
FFFFFFFFFFFFF8
FFFFFFFFFFFFF8
FFFFFFFFFFFFF8
7FFFFFFFFFFFF8
3FFFFFFFFFFFF0
ENDCHAR
STARTCHAR 007B
ENCODING 123
SWIDTH 363 0
DWIDTH 69 0
BBX 58 168 4 -24
BITMAP
00000000FFFFFFC0
0000000FFFFFFFC0
0000003FFFFFFFC0
0000007FFFFFFFC0
000000FFFFFFFFC0
000001FFFFFFFFC0
000003FFFFFFFFC0
000003FFFFFFFFC0
000007FFFFFFFFC0
000007FFFFFFFFC0
000007FFFFFFFF80
000007FFFFC00000
00000FFFFE000000
00000FFFFC000000
00000FFFF8000000
00000FFFF0000000
00000FFFF0000000
00000FFFF0000000
00000FFFF0000000
00000FFFE0000000
00000FFFE0000000
00000FFFE0000000
00000FFFE0000000
00000FFFE0000000
00000FFFE0000000
00000FFFE0000000
00000FFFE0000000
00000FFFE0000000
00000FFFE0000000
00000FFFE0000000
00000FFFE0000000
00000FFFE0000000
00000FFFE0000000
00000FFFE0000000
00000FFFE0000000
00000FFFE0000000
00000FFFE0000000
00000FFFE0000000
00000FFFE0000000
00000FFFE0000000
00000FFFE0000000
00000FFFE0000000
00000FFFE0000000
00000FFFE0000000
00000FFFE0000000
00000FFFE0000000
00000FFFE0000000
00000FFFE0000000
00000FFFE0000000
00000FFFE0000000
00000FFFE0000000
00000FFFE0000000
00000FFFE0000000
00000FFFE0000000
00000FFFE0000000
00000FFFE0000000
00000FFFE0000000
00000FFFE0000000
00000FFFE0000000
00000FFFE0000000
00000FFFE0000000
00000FFFE0000000
00000FFFE0000000
00000FFFE0000000
00000FFFE0000000
00000FFFE0000000
00000FFFE0000000
00000FFFE0000000
00000FFFE0000000
00000FFFE0000000
00000FFFE0000000
00000FFFE0000000
00000FFFE0000000
00000FFFE0000000
00000FFFE0000000
00001FFFC0000000
00001FFFC0000000
00003FFFC0000000
0000FFFFC0000000
3FFFFFFF80000000
7FFFFFFF80000000
FFFFFFFF00000000
FFFFFFFE00000000
FFFFFFF800000000
FFFFFF8000000000
FFFFFFF800000000
FFFFFFFE00000000
FFFFFFFF00000000
7FFFFFFF80000000
3FFFFFFF80000000
0000FFFFC0000000
00003FFFC0000000
00001FFFC0000000
00001FFFE0000000
00000FFFE0000000
00000FFFE0000000
00000FFFE0000000
00000FFFE0000000
00000FFFE0000000
00000FFFE0000000
00000FFFE0000000
00000FFFE0000000
00000FFFE0000000
00000FFFE0000000
00000FFFE0000000
00000FFFE0000000
00000FFFE0000000
00000FFFE0000000
00000FFFE0000000
00000FFFE0000000
00000FFFE0000000
00000FFFE0000000
00000FFFE0000000
00000FFFE0000000
00000FFFE0000000
00000FFFE0000000
00000FFFE0000000
00000FFFE0000000
00000FFFE0000000
00000FFFE0000000
00000FFFE0000000
00000FFFE0000000
00000FFFE0000000
00000FFFE0000000
00000FFFE0000000
00000FFFE0000000
00000FFFE0000000
00000FFFE0000000
00000FFFE0000000
00000FFFE0000000
00000FFFE0000000
00000FFFE0000000
00000FFFE0000000
00000FFFE0000000
00000FFFE0000000
00000FFFE0000000
00000FFFE0000000
00000FFFE0000000
00000FFFE0000000
00000FFFE0000000
00000FFFE0000000
00000FFFE0000000
00000FFFE0000000
00000FFFE0000000
00000FFFE0000000
00000FFFE0000000
00000FFFE0000000
00000FFFE0000000
00000FFFE0000000
00000FFFF0000000
00000FFFF0000000
00000FFFF0000000
00000FFFF0000000
00000FFFF8000000
00000FFFFC000000
00000FFFFE000000
000007FFFFC00000
000007FFFFFFFF00
000007FFFFFFFFC0
000007FFFFFFFFC0
000003FFFFFFFFC0
000003FFFFFFFFC0
000001FFFFFFFFC0
000000FFFFFFFFC0
0000007FFFFFFFC0
0000003FFFFFFFC0
0000000FFFFFFFC0
00000000FFFFFFC0
ENDCHAR
STARTCHAR 007C
ENCODING 124
SWIDTH 221 0
DWIDTH 42 0
BBX 15 168 14 -24
BITMAP
7FFE
7FFE
FFFE
FFFE
FFFE
FFFE
FFFE
FFFE
FFFE
FFFE
FFFE
FFFE
FFFE
FFFE
FFFE
FFFE
FFFE
FFFE
FFFE
FFFE
FFFE
FFFE
FFFE
FFFE
FFFE
FFFE
FFFE
FFFE
FFFE
FFFE
FFFE
FFFE
FFFE
FFFE
FFFE
FFFE
FFFE
FFFE
FFFE
FFFE
FFFE
FFFE
FFFE
FFFE
FFFE
FFFE
FFFE
FFFE
FFFE
FFFE
FFFE
FFFE
FFFE
FFFE
FFFE
FFFE
FFFE
FFFE
FFFE
FFFE
FFFE
FFFE
FFFE
FFFE
FFFE
FFFE
FFFE
FFFE
FFFE
FFFE
FFFE
FFFE
FFFE
FFFE
FFFE
FFFE
FFFE
FFFE
FFFE
FFFE
FFFE
FFFE
FFFE
FFFE
FFFE
FFFE
FFFE
FFFE
FFFE
FFFE
FFFE
FFFE
FFFE
FFFE
FFFE
FFFE
FFFE
FFFE
FFFE
FFFE
FFFE
FFFE
FFFE
FFFE
FFFE
FFFE
FFFE
FFFE
FFFE
FFFE
FFFE
FFFE
FFFE
FFFE
FFFE
FFFE
FFFE
FFFE
FFFE
FFFE
FFFE
FFFE
FFFE
FFFE
FFFE
FFFE
FFFE
FFFE
FFFE
FFFE
FFFE
FFFE
FFFE
FFFE
FFFE
FFFE
FFFE
FFFE
FFFE
FFFE
FFFE
FFFE
FFFE
FFFE
FFFE
FFFE
FFFE
FFFE
FFFE
FFFE
FFFE
FFFE
FFFE
FFFE
FFFE
FFFE
FFFE
FFFE
FFFE
FFFE
FFFE
FFFE
FFFE
FFFE
FFFC
FFFC
FFFC
FFF8
ENDCHAR
STARTCHAR 007D
ENCODING 125
SWIDTH 363 0
DWIDTH 69 0
BBX 58 168 7 -24
BITMAP
FFFFFFC000000000
FFFFFFFC00000000
FFFFFFFF00000000
FFFFFFFF80000000
FFFFFFFFC0000000
FFFFFFFFE0000000
FFFFFFFFF0000000
FFFFFFFFF0000000
FFFFFFFFF0000000
FFFFFFFFF8000000
7FFFFFFFF8000000
0000FFFFF8000000
00001FFFF8000000
00000FFFFC000000
000007FFFC000000
000003FFFC000000
000003FFFC000000
000003FFFC000000
000003FFFC000000
000001FFFC000000
000001FFFC000000
000001FFFC000000
000001FFFC000000
000001FFFC000000
000001FFFC000000
000001FFFC000000
000001FFFC000000
000001FFFC000000
000001FFFC000000
000001FFFC000000
000001FFFC000000
000001FFFC000000
000001FFFC000000
000001FFFC000000
000001FFFC000000
000001FFFC000000
000001FFFC000000
000001FFFC000000
000001FFFC000000
000001FFFC000000
000001FFFC000000
000001FFFC000000
000001FFFC000000
000001FFFC000000
000001FFFC000000
000001FFFC000000
000001FFFC000000
000001FFFC000000
000001FFFC000000
000001FFFC000000
000001FFFC000000
000001FFFC000000
000001FFFC000000
000001FFFC000000
000001FFFC000000
000001FFFC000000
000001FFFC000000
000001FFFC000000
000001FFFC000000
000001FFFC000000
000001FFFC000000
000001FFFC000000
000001FFFC000000
000001FFFC000000
000001FFFC000000
000001FFFC000000
000001FFFC000000
000001FFFC000000
000001FFFC000000
000001FFFC000000
000001FFFC000000
000001FFFC000000
000001FFFC000000
000001FFFC000000
000001FFFC000000
000001FFFE000000
000000FFFE000000
000000FFFF000000
000000FFFFC00000
0000007FFFFFFF00
0000007FFFFFFF80
0000003FFFFFFF80
0000001FFFFFFFC0
00000007FFFFFFC0
000000007FFFFFC0
00000007FFFFFFC0
0000001FFFFFFFC0
0000003FFFFFFF80
0000007FFFFFFF80
0000007FFFFFFF00
000000FFFFC00000
000000FFFF000000
000000FFFE000000
000001FFFE000000
000001FFFC000000
000001FFFC000000
000001FFFC000000
000001FFFC000000
000001FFFC000000
000001FFFC000000
000001FFFC000000
000001FFFC000000
000001FFFC000000
000001FFFC000000
000001FFFC000000
000001FFFC000000
000001FFFC000000
000001FFFC000000
000001FFFC000000
000001FFFC000000
000001FFFC000000
000001FFFC000000
000001FFFC000000
000001FFFC000000
000001FFFC000000
000001FFFC000000
000001FFFC000000
000001FFFC000000
000001FFFC000000
000001FFFC000000
000001FFFC000000
000001FFFC000000
000001FFFC000000
000001FFFC000000
000001FFFC000000
000001FFFC000000
000001FFFC000000
000001FFFC000000
000001FFFC000000
000001FFFC000000
000001FFFC000000
000001FFFC000000
000001FFFC000000
000001FFFC000000
000001FFFC000000
000001FFFC000000
000001FFFC000000
000001FFFC000000
000001FFFC000000
000001FFFC000000
000001FFFC000000
000001FFFC000000
000001FFFC000000
000001FFFC000000
000001FFFC000000
000001FFFC000000
000001FFFC000000
000001FFFC000000
000001FFFC000000
000003FFFC000000
000003FFFC000000
000003FFFC000000
000003FFFC000000
000007FFFC000000
00000FFFFC000000
00001FFFF8000000
0000FFFFF8000000
7FFFFFFFF8000000
FFFFFFFFF8000000
FFFFFFFFF0000000
FFFFFFFFF0000000
FFFFFFFFF0000000
FFFFFFFFE0000000
FFFFFFFFC0000000
FFFFFFFF80000000
FFFFFFFF00000000
FFFFFFFC00000000
FFFFFFC000000000
ENDCHAR
STARTCHAR 007E
ENCODING 126
SWIDTH 457 0
DWIDTH 87 0
BBX 69 33 9 52
BITMAP
0000FE000000000000
0003FFC00000000000
000FFFE00000000000
001FFFF80000000000
007FFFFC0000000000
00FFFFFE0000000000
01FFFFFF0000000000
03FFFFFF8000000000
07FFFFFFC0000000C0
0FFFFFFFE0000001E0
1FFFFFFFF8000003E0
3FFFFFFFFC000007F0
3FFFFFFFFE00000FF0
7FFF83FFFF00001FF0
7FFF00FFFF80003FF8
FFFC007FFFC0007FF8
FFF8003FFFE000FFF8
FFF0001FFFF001FFF8
FFE0000FFFF803FFF0
7FC00007FFFE0FFFF0
7F800003FFFFFFFFE0
7F000001FFFFFFFFE0
3E000000FFFFFFFFC0
3C0000003FFFFFFF80
180000001FFFFFFF00
000000000FFFFFFE00
0000000007FFFFFC00
0000000003FFFFF800
0000000001FFFFE000
0000000000FFFFC000
00000000003FFF8000
00000000001FFE0000
000000000003F00000
ENDCHAR
STARTCHAR 00A0
ENCODING 160
SWIDTH 194 0
DWIDTH 37 0
BBX 0 0 0 0
BITMAP
ENDCHAR
STARTCHAR 00A1
ENCODING 161
SWIDTH 226 0
DWIDTH 43 0
BBX 16 133 13 -47
BITMAP
FFFC
FFFF
FFFF
FFFF
FFFF
FFFF
FFFF
FFFF
FFFF
FFFF
FFFF
FFFF
FFFF
FFFF
7FFF
0000
0000
0000
0000
0000
0000
0000
0000
0000
0000
0000
0000
0000
0000
0000
1FFF
3FFF
7FFF
7FFF
7FFF
7FFF
7FFF
7FFF
7FFF
7FFF
7FFF
7FFF
7FFF
7FFF
7FFF
7FFF
7FFF
7FFF
7FFF
7FFF
7FFF
7FFF
7FFF
7FFF
7FFF
7FFF
7FFF
7FFF
7FFF
7FFF
7FFF
7FFF
7FFF
7FFF
7FFF
7FFF
7FFF
7FFF
7FFF
7FFF
7FFF
7FFF
7FFF
7FFF
7FFF
7FFF
7FFF
7FFF
7FFF
7FFF
7FFF
7FFF
7FFF
7FFF
7FFF
7FFF
7FFF
7FFF
7FFF
7FFF
7FFF
7FFF
7FFF
7FFF
7FFF
7FFF
7FFF
7FFF
7FFF
7FFF
7FFF
7FFF
7FFF
7FFF
7FFF
7FFF
7FFF
7FFF
7FFF
7FFF
7FFF
7FFF
7FFF
7FFF
7FFF
7FFF
7FFF
7FFF
7FFF
7FFF
7FFF
7FFF
7FFF
7FFF
7FFF
7FFF
7FFF
7FFF
7FFF
7FFF
7FFF
7FFF
7FFC
ENDCHAR
STARTCHAR 00A2
ENCODING 162
SWIDTH 426 0
DWIDTH 81 0
BBX 56 130 13 0
BITMAP
000000FFF80000
000001FFF80000
000003FFF80000
000003FFF80000
000003FFF80000
000003FFF80000
000003FFF80000
000003FFF80000
000003FFF80000
000003FFF80000
000003FFF80000
000003FFF80000
000003FFF80000
000003FFF80000
000003FFF80000
000003FFF80000
000003FFF80000
000003FFF80000
000FFFFFFFFF80
007FFFFFFFFFE0
01FFFFFFFFFFF8
07FFFFFFFFFFF8
0FFFFFFFFFFFFC
1FFFFFFFFFFFFE
1FFFFFFFFFFFFE
3FFFFFFFFFFFFE
3FFFFFFFFFFFFF
3FFFFFFFFFFFFF
7FFFFFFFFFFFFF
7FFFF000000000
7FFFC000000000
7FFF8000000000
7FFF8000000000
7FFF0000000000
FFFF0000000000
FFFF0000000000
FFFF0000000000
FFFF0000000000
FFFF0000000000
FFFF0000000000
FFFF0000000000
FFFF0000000000
FFFF0000000000
FFFF0000000000
FFFF0000000000
FFFF0000000000
FFFF0000000000
FFFF0000000000
FFFF0000000000
FFFF0000000000
FFFF0000000000
FFFF0000000000
FFFF0000000000
FFFF0000000000
FFFF0000000000
FFFF0000000000
FFFF0000000000
FFFF0000000000
FFFF0000000000
FFFF0000000000
FFFF0000000000
FFFF0000000000
FFFF0000000000
FFFF0000000000
FFFF0000000000
FFFF0000000000
FFFF0000000000
FFFF0000000000
FFFF0000000000
FFFF0000000000
FFFF0000000000
FFFF0000000000
FFFF0000000000
FFFF0000000000
FFFF0000000000
FFFF0000000000
FFFF0000000000
FFFF0000000000
FFFF0000000000
FFFF0000000000
FFFF0000000000
FFFF0000000000
FFFF0000000000
FFFF0000000000
FFFF0000000000
FFFF0000000000
FFFF0000000000
FFFF0000000000
FFFF0000000000
FFFF0000000000
FFFF0000000000
FFFF0000000000
FFFF0000000000
FFFF0000000000
FFFF0000000000
FFFF0000000000
FFFF0000000000
FFFF0000000000
7FFF0000000000
7FFF0000000000
7FFF8000000000
7FFF8000000000
7FFFC000000000
7FFFF000000000
7FFFFFFFFFFFFF
3FFFFFFFFFFFFF
3FFFFFFFFFFFFF
3FFFFFFFFFFFFE
1FFFFFFFFFFFFE
1FFFFFFFFFFFFE
0FFFFFFFFFFFFC
07FFFFFFFFFFF8
01FFFFFFFFFFF8
007FFFFFFFFFE0
000FFFFFFFFF80
000003FFF80000
000003FFF80000
000003FFF80000
000003FFF80000
000003FFF80000
000003FFF80000
000003FFF80000
000003FFF80000
000003FFF80000
000003FFF80000
000003FFF80000
000003FFF80000
000003FFF80000
000003FFF00000
000003FFE00000
ENDCHAR
STARTCHAR 00A3
ENCODING 163
SWIDTH 442 0
DWIDTH 84 0
BBX 66 133 8 0
BITMAP
00000003FFFFFFE000
0000003FFFFFFFF800
000000FFFFFFFFFC00
000001FFFFFFFFFE00
000003FFFFFFFFFF00
000007FFFFFFFFFF00
00000FFFFFFFFFFF80
00000FFFFFFFFFFF80
00001FFFFFFFFFFFC0
00001FFFFFFFFFFFC0
00001FFFFFFFFFFFC0
00001FFFF800000000
00003FFFE000000000
00003FFFC000000000
00003FFFC000000000
00003FFFC000000000
00003FFF8000000000
00003FFF8000000000
00003FFF8000000000
00003FFF8000000000
00003FFF8000000000
00003FFF8000000000
00003FFF8000000000
00003FFF8000000000
00003FFF8000000000
00003FFF8000000000
00003FFF8000000000
00003FFF8000000000
00003FFF8000000000
00003FFF8000000000
00003FFF8000000000
00003FFF8000000000
00003FFF8000000000
00003FFF8000000000
00003FFF8000000000
00003FFF8000000000
00003FFF8000000000
00003FFF8000000000
00003FFF8000000000
00003FFF8000000000
00003FFF8000000000
00003FFF8000000000
00003FFF8000000000
00003FFF8000000000
00003FFF8000000000
00003FFF8000000000
00003FFF8000000000
00003FFFFFFFFF8000
00003FFFFFFFFFC000
00003FFFFFFFFFC000
00003FFFFFFFFFC000
00003FFFFFFFFFC000
00003FFFFFFFFFE000
00003FFFFFFFFFE000
00003FFFFFFFFFE000
00003FFFFFFFFFE000
00003FFFFFFFFFE000
00003FFFFFFFFFE000
00003FFF8000000000
00003FFF8000000000
00003FFF8000000000
00003FFF8000000000
00003FFF8000000000
00003FFF8000000000
00003FFF8000000000
00003FFF8000000000
00003FFF8000000000
00003FFF8000000000
00003FFF8000000000
00003FFF8000000000
00003FFF8000000000
00003FFF8000000000
00003FFF8000000000
00003FFF8000000000
00003FFF8000000000
00003FFF8000000000
00003FFF8000000000
00003FFF8000000000
00003FFF8000000000
00003FFF8000000000
00003FFF8000000000
00003FFF8000000000
00003FFF8000000000
00003FFF8000000000
00003FFF8000000000
00003FFF8000000000
00003FFF8000000000
00003FFF8000000000
00003FFF8000000000
00003FFF8000000000
00003FFF8000000000
00003FFF8000000000
00003FFF8000000000
00003FFF8000000000
00003FFF8000000000
00003FFF8000000000
00003FFF8000000000
00003FFF8000000000
00003FFF8000000000
00003FFF8000000000
00003FFF8000000000
00003FFF8000000000
00003FFF8000000000
00003FFF8000000000
00003FFF8000000000
00003FFF8000000000
00003FFF8000000000
00003FFF8000000000
00003FFF8000000000
00003FFF8000000000
00003FFF8000000000
00003FFF8000000000
00003FFF8000000000
00003FFF8000000000
00003FFF8000000000
00003FFF8000000000
00003FFF8000000000
00003FFF8000000000
00003FFF8000000000
00003FFF8000000000
00003FFF8000000000
00003FFF8000000000
FFFFFFFFFFFFFE0000
7FFFFFFFFFFFFFC000
7FFFFFFFFFFFFFE000
7FFFFFFFFFFFFFF000
3FFFFFFFFFFFFFF000
3FFFFFFFFFFFFFF800
1FFFFFFFFFFFFFF800
1FFFFFFFFFFFFFFC00
0FFFFFFFFFFFFFFC00
03FFFFFFFFFFFFFC00
00FFFFFFFFFFFFFE00
ENDCHAR
STARTCHAR 00A4
ENCODING 164
SWIDTH 510 0
DWIDTH 97 0
BBX 76 84 10 35
BITMAP
00400000000000006000
00E0000000000001F800
01F0000000000003FC00
03F8000000000007FE00
07FC00000000000FFF00
0FFE00000000001FFF80
1FFF00000000003FFFC0
3FFF80000000007FFFE0
7FFFC000000000FFFFF0
7FFFE000000001FFFFF0
FFFFF000000003FFFFE0
7FFFF800000007FFFFC0
7FFFFDFFFFFFFFFFFF80
3FFFFFFFFFFFFFFFFF00
1FFFFFFFFFFFFFFFFE00
0FFFFFFFFFFFFFFFFC00
07FFFFFFFFFFFFFFF800
03FFFFFFFFFFFFFFF000
01FFFFFFFFFFFFFFE000
00FFFFFFFFFFFFFFC000
007FFFFFFFFFFFFF8000
003FFFFFFFFFFFFF0000
001FFFFFFFFFFFFF0000
001FFFFF000FFFFF8000
001FFFF80003FFFF8000
001FFFF00000FFFF8000
001FFFE00000FFFF8000
001FFFE000007FFF8000
001FFFC000007FFF8000
001FFFC000003FFF8000
001FFFC000003FFF8000
001FFFC000003FFF8000
001FFFC000003FFF8000
001FFFC000003FFF8000
001FFFC000003FFF8000
001FFFC000003FFF8000
001FFFC000003FFF8000
001FFFC000003FFF8000
001FFFC000003FFF8000
001FFFC000003FFF8000
001FFFC000003FFF8000
001FFFC000003FFF8000
001FFFC000003FFF8000
001FFFC000003FFF8000
001FFFC000003FFF8000
001FFFC000003FFF8000
001FFFC000003FFF8000
001FFFC000003FFF8000
001FFFC000003FFF8000
001FFFC000003FFF8000
001FFFC000003FFF8000
001FFFC000003FFF8000
001FFFC000003FFF8000
001FFFC000003FFF8000
001FFFC000007FFF8000
001FFFE000007FFF8000
001FFFE00000FFFF8000
001FFFF00000FFFF8000
001FFFF80003FFFF8000
001FFFFF000FFFFF8000
001FFFFFFFFFFFFF8000
001FFFFFFFFFFFFFC000
000FFFFFFFFFFFFFE000
001FFFFFFFFFFFFFF000
003FFFFFFFFFFFFFF800
007FFFFFFFFFFFFFFC00
00FFFFFFFFFFFFFFFE00
01FFFFFFFFFFFFFFFF00
03FFFFFFFFFFFFFFFF80
07FFFFFFFFFFFFFFFFC0
0FFFFFFFFFFFFBFFFFE0
1FFFFF00000001FFFFF0
3FFFFF00000000FFFFF0
7FFFFE000000007FFFF0
FFFFFC000000003FFFF0
7FFFF8000000001FFFE0
3FFFF0000000000FFFE0
1FFFE00000000007FFC0
0FFFC00000000003FF80
07FF800000000001FF00
03FF000000000000FE00
01FE0000000000007C00
00FC0000000000003800
00300000000000001000
ENDCHAR
STARTCHAR 00A5
ENCODING 165
SWIDTH 489 0
DWIDTH 93 0
BBX 74 133 10 0
BITMAP
7FF8000000000003FFC0
FFFC000000000007FFC0
FFFC00000000000FFF80
FFFC00000000000FFF80
FFFE00000000001FFF80
FFFE00000000001FFF00
7FFF00000000003FFF00
7FFF00000000003FFE00
7FFF00000000003FFE00
3FFF80000000007FFE00
3FFF80000000007FFC00
1FFF80000000007FFC00
1FFFC000000000FFF800
1FFFC000000000FFF800
0FFFE000000001FFF800
0FFFE000000001FFF000
07FFE000000001FFF000
07FFF000000003FFE000
07FFF000000003FFE000
03FFF800000007FFE000
03FFF800000007FFC000
01FFF800000007FFC000
01FFFC0000000FFF8000
01FFFC0000000FFF8000
00FFFE0000000FFF8000
00FFFE0000001FFF0000
007FFE0000001FFF0000
007FFF0000003FFE0000
007FFF0000003FFE0000
003FFF8000003FFE0000
003FFF8000007FFC0000
001FFF8000007FFC0000
001FFFC000007FF80000
001FFFC00000FFF80000
000FFFE00000FFF80000
000FFFE00001FFF00000
0007FFE00001FFF00000
0007FFF00001FFE00000
0007FFF00003FFE00000
0003FFF00003FFE00000
0003FFF80003FFC00000
0001FFF80007FFC00000
0001FFFC0007FF800000
0001FFFC000FFF800000
0000FFFC000FFF800000
0000FFFE000FFF000000
00007FFE000FFF000000
00007FFE001FFF000000
00007FFF001FFE000000
00003FFF001FFE000000
00003FFF003FFC000000
00001FFF803FFC000000
00001FFF803FFC000000
00001FFF807FF8000000
00000FFF807FF8000000
00000FFFC07FF0000000
000007FFC0FFF0000000
000007FFC0FFF0000000
000007FFE0FFE0000000
000003FFE1FFE0000000
000003FFE1FFC0000000
000001FFF1FFC0000000
000001FFF3FFC0000000
000001FFF3FF80000000
000000FFFFFF80000000
000000FFFFFF00000000
FFFFFFFFFFFFFFFFFE00
FFFFFFFFFFFFFFFFFF00
FFFFFFFFFFFFFFFFFF00
FFFFFFFFFFFFFFFFFF80
FFFFFFFFFFFFFFFFFF80
FFFFFFFFFFFFFFFFFF80
FFFFFFFFFFFFFFFFFF80
FFFFFFFFFFFFFFFFFF80
FFFFFFFFFFFFFFFFFF80
7FFFFFFFFFFFFFFFFF80
3FFFFFFFFFFFFFFFFF80
00000007FFF000000000
00000007FFF000000000
00000007FFF000000000
00000007FFF000000000
00000007FFF000000000
00000007FFF000000000
00000007FFF000000000
00000007FFF000000000
00000007FFF000000000
00000007FFF000000000
FFFFFFFFFFFFFFFFFC00
FFFFFFFFFFFFFFFFFF00
FFFFFFFFFFFFFFFFFF00
FFFFFFFFFFFFFFFFFF00
FFFFFFFFFFFFFFFFFF00
FFFFFFFFFFFFFFFFFF00
FFFFFFFFFFFFFFFFFF00
FFFFFFFFFFFFFFFFFF00
FFFFFFFFFFFFFFFFFF00
7FFFFFFFFFFFFFFFFF00
3FFFFFFFFFFFFFFFFF00
00000007FFF000000000
00000007FFF000000000
00000007FFF000000000
00000007FFF000000000
00000007FFF000000000
00000007FFF000000000
00000007FFF000000000
00000007FFF000000000
00000007FFF000000000
00000007FFF000000000
00000007FFF000000000
00000007FFF000000000
00000007FFF000000000
00000007FFF000000000
00000007FFF000000000
00000007FFF000000000
00000007FFF000000000
00000007FFF000000000
00000007FFF000000000
00000007FFF000000000
00000007FFF000000000
00000007FFF000000000
00000007FFF000000000
00000007FFF000000000
00000007FFF000000000
00000007FFF000000000
00000007FFF000000000
00000007FFF000000000
00000007FFF000000000
00000007FFF000000000
00000007FFF000000000
00000007FFF000000000
00000007FFF000000000
00000007FFE000000000
00000007FFC000000000
ENDCHAR
STARTCHAR 00A6
ENCODING 166
SWIDTH 221 0
DWIDTH 42 0
BBX 15 190 14 -46
BITMAP
3FFE
7FFE
7FFE
FFFE
FFFE
FFFE
FFFE
FFFE
FFFE
FFFE
FFFE
FFFE
FFFE
FFFE
FFFE
FFFE
FFFE
FFFE
FFFE
FFFE
FFFE
FFFE
FFFE
FFFE
FFFE
FFFE
FFFE
FFFE
FFFE
FFFE
FFFE
FFFE
FFFE
FFFE
FFFE
FFFE
FFFE
FFFE
FFFE
FFFE
FFFE
FFFE
FFFE
FFFE
FFFE
FFFE
FFFE
FFFE
FFFE
FFFE
FFFE
FFFE
FFFE
FFFE
FFFE
FFFE
FFFE
FFFE
FFFE
FFFE
FFFE
FFFE
FFFE
FFFE
FFFE
FFFE
FFFE
FFFE
FFFE
FFFE
FFFE
FFFE
FFFE
FFFC
FFFC
FFFC
FFFC
FFF8
0000
0000
0000
0000
0000
0000
0000
0000
0000
0000
0000
0000
0000
0000
0000
0000
0000
0000
0000
0000
0000
0000
0000
0000
0000
0000
0000
0000
0000
0000
0000
0000
0000
0000
3FFE
7FFE
7FFE
FFFE
FFFE
FFFE
FFFE
FFFE
FFFE
FFFE
FFFE
FFFE
FFFE
FFFE
FFFE
FFFE
FFFE
FFFE
FFFE
FFFE
FFFE
FFFE
FFFE
FFFE
FFFE
FFFE
FFFE
FFFE
FFFE
FFFE
FFFE
FFFE
FFFE
FFFE
FFFE
FFFE
FFFE
FFFE
FFFE
FFFE
FFFE
FFFE
FFFE
FFFE
FFFE
FFFE
FFFE
FFFE
FFFE
FFFE
FFFE
FFFE
FFFE
FFFE
FFFE
FFFE
FFFE
FFFE
FFFE
FFFE
FFFE
FFFE
FFFE
FFFE
FFFE
FFFE
FFFE
FFFE
FFFE
FFFE
FFFE
FFFE
FFFE
FFFC
FFFC
FFFC
FFFC
FFF8
ENDCHAR
STARTCHAR 00A7
ENCODING 167
SWIDTH 415 0
DWIDTH 79 0
BBX 57 133 11 0
BITMAP
000FFFFFFFF00000
007FFFFFFFFC0000
01FFFFFFFFFF0000
07FFFFFFFFFF0000
0FFFFFFFFFFF8000
1FFFFFFFFFFFC000
1FFFFFFFFFFFC000
3FFFFFFFFFFFC000
3FFFFFFFFFFFE000
7FFFFFFFFFFFE000
7FFFFFFFFFFFE000
7FFFF00000000000
7FFFC00000000000
7FFF800000000000
7FFF800000000000
FFFF000000000000
FFFF000000000000
FFFF000000000000
FFFF000000000000
FFFF000000000000
FFFF000000000000
FFFF000000000000
FFFF000000000000
FFFF000000000000
FFFF000000000000
FFFF000000000000
FFFF000000000000
FFFF000000000000
FFFF000000000000
FFFF000000000000
FFFF000000000000
FFFF000000000000
FFFF000000000000
7FFF800000000000
7FFF800000000000
7FFFC00000000000
7FFFF00000000000
7FFFFFFFFFF80000
7FFFFFFFFFFF8000
3FFFFFFFFFFFE000
3FFFFFFFFFFFF000
1FFFFFFFFFFFF800
1FFFFFFFFFFFFC00
0FFFFFFFFFFFFE00
07FFFFFFFFFFFE00
03FFFFFFFFFFFF00
007FFFFFFFFFFF00
000FFFFFFFFFFF00
0007000007FFFF00
003F000001FFFF80
00FF000000FFFF80
03FF0000007FFF80
07FF0000007FFF80
0FFF0000007FFF80
1FFF0000003FFF80
3FFF0000003FFF80
3FFF0000003FFF80
7FFF0000003FFF80
7FFF0000003FFF80
7FFF0000003FFF80
7FFF0000003FFF80
FFFF0000003FFF80
FFFF0000003FFF80
FFFF0000003FFF80
FFFF0000003FFF80
FFFF0000003FFF80
FFFF0000003FFF80
FFFF0000003FFF80
FFFF0000003FFF80
FFFF0000003FFF80
FFFF0000003FFF80
FFFF0000003FFF80
FFFF0000003FFF80
FFFF0000003FFF80
FFFF0000003FFF00
FFFF0000003FFF00
FFFF0000003FFF00
FFFF0000003FFE00
FFFF0000003FFE00
FFFF0000003FFC00
FFFF0000003FF800
7FFF8000003FE000
7FFF8000003FC000
7FFFC000003E0000
7FFFF00000300000
7FFFFFFFFFF80000
7FFFFFFFFFFF8000
3FFFFFFFFFFFE000
3FFFFFFFFFFFF000
1FFFFFFFFFFFF800
1FFFFFFFFFFFFC00
0FFFFFFFFFFFFE00
07FFFFFFFFFFFE00
01FFFFFFFFFFFF00
007FFFFFFFFFFF00
000FFFFFFFFFFF00
0000000007FFFF00
0000000001FFFF80
0000000000FFFF80
00000000007FFF80
00000000007FFF80
00000000007FFF80
00000000003FFF80
00000000003FFF80
00000000003FFF80
00000000003FFF80
00000000003FFF80
00000000003FFF80
00000000003FFF80
00000000003FFF80
00000000003FFF80
00000000003FFF80
00000000003FFF80
00000000003FFF80
00000000003FFF80
00000000003FFF80
00000000007FFF80
00000000007FFF80
00000000007FFF80
0000000000FFFF80
0000000001FFFF80
0000000007FFFF00
03FFFFFFFFFFFF00
03FFFFFFFFFFFF00
01FFFFFFFFFFFF00
01FFFFFFFFFFFE00
01FFFFFFFFFFFE00
00FFFFFFFFFFFC00
00FFFFFFFFFFF800
007FFFFFFFFFF000
003FFFFFFFFFE000
001FFFFFFFFF8000
0007FFFFFFF80000
ENDCHAR
STARTCHAR 00A8
ENCODING 168
SWIDTH 342 0
DWIDTH 65 0
BBX 43 15 11 114
BITMAP
FFFE003FFF80
FFFF003FFFC0
FFFF803FFFC0
FFFF803FFFC0
FFFF803FFFE0
FFFF803FFFE0
FFFF803FFFE0
FFFF803FFFE0
FFFF803FFFE0
FFFF803FFFE0
FFFF803FFFE0
FFFF803FFFE0
7FFF803FFFE0
7FFF801FFFE0
3FFF800FFFE0
ENDCHAR
ENDFONT
